<svg xmlns="http://www.w3.org/2000/svg" xmlns:xlink="http://www.w3.org/1999/xlink" viewBox="0 0 960 150"><symbol id="a" viewBox="-84 -20 168 40"><g fill="#666"><path d="M-14.2.8c0-2.6-.6-4.6-1.7-6.2s-2.7-2.3-4.8-2.3c-1.1 0-2 .2-2.8.5s-1.5.8-2.1 1.5v-8.1h-2.9V9.4h2.5l.2-1.9c.6.7 1.3 1.3 2.1 1.7.8.4 1.8.6 2.8.6 2.1 0 3.7-.8 4.9-2.3 1.1-1.5 1.7-3.6 1.7-6.3l.1-.4zm-2.8.4c0 1.8-.4 3.3-1.1 4.4-.8 1.1-1.9 1.7-3.4 1.7-.9 0-1.7-.2-2.4-.6-.6-.4-1.2-1-1.5-1.7v-8c.4-.7.9-1.3 1.6-1.7.6-.4 1.4-.6 2.4-.6 1.5 0 2.6.6 3.4 1.7.6 1.1 1 2.6 1 4.4v.4zM-11.7 1.2c0 2.5.7 4.6 2.1 6.2C-8.2 8.9-6.4 9.7-4 9.7s4.2-.8 5.6-2.4C3 5.8 3.7 3.7 3.7 1.2V.8c0-2.5-.7-4.6-2.1-6.2C.2-6.9-1.6-7.7-4-7.7s-4.2.8-5.6 2.4-2.1 3.6-2.1 6.2v.3zm2.9-.4c0-1.8.4-3.3 1.2-4.5s2-1.7 3.6-1.7c1.5 0 2.7.6 3.5 1.7S.8-1 .8.8v.3C.8 2.9.4 4.4-.4 5.5s-2 1.8-3.6 1.8c-1.5 0-2.7-.6-3.5-1.8S-8.8 3-8.8 1.2V.8zM9.5-7.4H6.7v24.3h2.9V-7.4h-.1zM18.8-1.8l.3-1.1 4 12.3h3.2L19.5-10c-.4-1.1-1-2.1-1.8-3-.8-.8-1.8-1.2-3.2-1.2-.2 0-.4 0-.7.1-.3 0-.6.1-.9.2v2.3h.8c1 0 1.7.2 2.2.6.5.4.9 1.1 1.3 2.2l.7 2-6 16.2h3.2l3.7-11.2zM31.1 9.4l.2-1.9c.6.7 1.3 1.3 2.1 1.7.8.4 1.8.6 2.9.6 1.1 0 2.1-.2 2.9-.7.8-.5 1.4-1.2 1.9-2.2.6.9 1.3 1.6 2.2 2.2.9.5 1.9.8 3.1.8 1.8 0 3.1-.6 4.1-1.7C51.5 7 52 5.3 52 2.9V-7.4h-2.9V2.7c0 1.7-.3 2.9-.9 3.5-.6.7-1.5 1-2.7 1-1.1 0-2-.4-2.7-1.1-.7-.8-1.1-1.7-1.2-2.8V-7.4h-2.9V2.8c0 1.6-.3 2.8-.9 3.5-.6.7-1.5 1.1-2.7 1.1-1 0-1.8-.2-2.4-.6s-1.1-1-1.4-1.8V-7.4h-2.9V9.4h2.7zM62.5-7.7c-2.4 0-4.2.7-5.6 2.2S54.8-2 54.8.4v.7c0 2.7.7 4.8 2.1 6.3s3.2 2.3 5.2 2.3c2.3 0 4.1-.7 5.2-2.2C68.5 6 69 4 69 1.5V.2H57.6c0-1.6.5-3 1.4-4s2.1-1.6 3.6-1.6c1 0 1.8.2 2.5.6s1.3 1 1.9 1.7l1.8-1.4c-.6-1-1.5-1.8-2.5-2.4-1-.5-2.3-.8-3.8-.8zm-.4 15.1c-1.2 0-2.2-.4-2.9-1.2-.8-.8-1.3-2-1.4-3.6h8.4v.2c-.1 1.3-.5 2.4-1.1 3.3-.6.8-1.6 1.3-3 1.3zM80.3 6.9c-.3 0-.5.1-.7.1h-.7c-1 0-1.8-.2-2.4-.6s-1.1-1-1.4-1.8v-12h-2.9V9.4h2.7l.2-1.9c.5.7 1.1 1.3 1.7 1.6.7.4 1.4.6 2.3.6.2 0 .4 0 .7-.1s.5-.1.6-.1l-.1-2.6z"/></g><path fill="#303F9F" d="M-71.9 0l-4-6.9 4-6.9 4 6.9z"/><path fill="#3F51B5" d="M-48.1 13.8l-4-6.9 4-6.9 4 6.9z"/><path fill="#7986CB" d="M-44.1 6.9L-56-13.8h7.9L-40.2 0z"/><path fill="#FF4081" d="M-56 13.8l-15.9-27.6h7.9l15.9 27.6z"/><path fill="#536DFE" d="M-71.9 13.8L-79.8 0l3.9-6.9L-64 13.8z"/><path fill="#FFF" fill-opacity=".2" d="M-56 13.8l3.9-6.9 4 6.9z"/><path fill="#FFF" fill-opacity=".1" d="M-60 6.9l4 6.9 3.9-6.9z"/><path fill="#FFF" fill-opacity="0" d="M-60 6.9l4-6.9 3.9 6.9z"/><path fill-opacity=".1" d="M-64 0l4 6.9 4-6.9z"/><path fill-opacity=".2" d="M-64 0l4-6.9 4 6.9z"/><path fill-opacity=".3" d="M-67.9-6.9L-64 0l4-6.9z"/><path fill-opacity=".4" d="M-67.9-6.9l3.9-6.9 4 6.9z"/><path fill-opacity=".5" d="M-71.9-13.8l4 6.9 3.9-6.9z"/><path fill="#FFF" fill-opacity=".2" d="M-71.9 13.8l4-6.9 3.9 6.9z"/><path fill="#FFF" fill-opacity=".1" d="M-75.9 6.9l4 6.9 4-6.9z"/><path fill="#FFF" fill-opacity="0" d="M-75.9 6.9l4-6.9 4 6.9z"/><path fill-opacity=".1" d="M-79.8 0l3.9 6.9 4-6.9z"/><path fill-opacity=".2" d="M-79.8 0l3.9-6.9 4 6.9z"/><path fill="#FFF" fill-opacity="0" d="M-67.9-6.9l-4 6.9-4-6.9z"/><path fill-opacity=".2" d="M-67.9-6.9l-4-6.9-4 6.9zM-44.1 6.9l-4 6.9-4-6.9z"/><path fill="#FFF" fill-opacity="0" d="M-44.1 6.9l-4-6.9-4 6.9z"/><path fill="#FFF" fill-opacity=".2" d="M-48.1 0l4 6.9 3.9-6.9z"/><path fill="#FFF" fill-opacity=".1" d="M-48.1 0l4-6.9 3.9 6.9z"/><path fill="#FFF" fill-opacity="0" d="M-52.1-6.9l4 6.9 4-6.9z"/><path fill-opacity=".1" d="M-52.1-6.9l4-6.9 4 6.9z"/><path fill-opacity=".2" d="M-56-13.8l3.9 6.9 4-6.9z"/><path fill="none" d="M-40-20h-40v40h40z"/><path fill="none" d="M84-20H-84v40H84z"/></symbol><use xlink:href="#a" width="168" height="40" x="-84" y="-20" transform="matrix(2.3015 0 0 -2.3015 206.675 75)" overflow="visible"/><g fill="#7A8FCC"><path d="M463.8 44.5l-1.6 1.7-10.1-8.5 10.1-8.5 1.6 1.7-8.2 6.8 8.2 6.8zM468.6 38.7c0-1.3.2-2.4.5-3.4.4-1 .9-1.8 1.5-2.5s1.4-1.2 2.3-1.6c.9-.4 1.9-.5 3-.5.5 0 1 0 1.4.1s.9.2 1.4.3v-6.4h2.6V46h-2.4l-.1-2.9c-.7 1.1-1.5 1.9-2.4 2.4-.9.5-1.8.8-2.8.8-.9 0-1.6-.2-2.3-.5-.7-.4-1.2-.9-1.6-1.5-.4-.7-.8-1.4-1-2.4 0-1.1-.1-2.1-.1-3.2zm2.7-.2c0 1.8.3 3.2.8 4.1.5.9 1.3 1.3 2.3 1.3.7 0 1.4-.3 2.1-.9.7-.6 1.5-1.5 2.3-2.6v-7c-.4-.2-.9-.4-1.4-.5s-1-.2-1.6-.2c-1.4 0-2.5.5-3.3 1.4-.8 1-1.2 2.4-1.2 4.4zM499.5 38.2c0 1.2-.2 2.3-.5 3.2-.3 1-.8 1.8-1.4 2.5-.6.7-1.4 1.2-2.3 1.6-.9.4-1.9.6-3 .6s-2.1-.2-2.9-.5c-.9-.3-1.6-.8-2.2-1.5s-1.1-1.5-1.4-2.4-.5-2.1-.5-3.3c0-1.2.2-2.2.5-3.2s.8-1.8 1.4-2.5c.6-.7 1.4-1.2 2.3-1.6s1.9-.6 3-.6 2.1.2 2.9.5 1.6.8 2.2 1.5 1.1 1.5 1.4 2.4c.4 1 .5 2.1.5 3.3zm-2.6.2c0-.9-.1-1.8-.3-2.5-.2-.7-.5-1.3-.9-1.7-.4-.5-.8-.8-1.4-1.1-.5-.2-1.2-.4-1.8-.4-.8 0-1.5.2-2 .5-.6.3-1 .7-1.4 1.2-.4.5-.6 1.1-.8 1.8-.2.7-.2 1.4-.2 2.1 0 .9.1 1.8.3 2.5.2.7.5 1.3.9 1.8s.8.8 1.4 1.1 1.2.4 1.8.4c.8 0 1.5-.2 2-.5.6-.3 1-.7 1.4-1.2.4-.5.6-1.1.8-1.8s.2-1.5.2-2.2zM514.1 45.9V35.1c0-.5 0-.9-.1-1.2s-.1-.5-.2-.7c-.1-.2-.2-.3-.3-.4-.1-.1-.3-.1-.4-.1-.2 0-.4.1-.6.2-.2.1-.4.3-.6.6-.2.3-.4.6-.6 1.1s-.5 1-.8 1.7V46h-2.4V35.3c0-.6 0-1-.1-1.3s-.1-.6-.2-.8c-.1-.2-.2-.3-.3-.4-.1-.1-.3-.1-.4-.1-.2 0-.4.1-.5.2l-.5.5c-.2.3-.4.6-.7 1.1s-.5 1-.9 1.7v9.7h-2.4V30.8h2l.1 2.9c.3-.6.5-1.1.8-1.5.2-.4.5-.7.8-1s.5-.4.8-.5c.3-.1.6-.2 1-.2.8 0 1.4.3 1.9.8.4.5.6 1.4.6 2.5.2-.5.5-1 .7-1.4.2-.4.5-.7.7-1 .3-.3.6-.5.9-.6.3-.1.7-.2 1.1-.2 1.9 0 2.8 1.5 2.8 4.4v11h-2.2zM530.9 38.9h-9v-2.5h9v2.5zM548.1 45.9V35.1c0-.5 0-.9-.1-1.2s-.1-.5-.2-.7c-.1-.2-.2-.3-.3-.4-.1-.1-.3-.1-.4-.1-.2 0-.4.1-.6.2-.2.1-.4.3-.6.6-.2.3-.4.6-.6 1.1s-.5 1-.8 1.7V46h-2.4V35.3c0-.6 0-1-.1-1.3s-.1-.6-.2-.8c-.1-.2-.2-.3-.3-.4-.1-.1-.3-.1-.4-.1-.2 0-.4.1-.5.2l-.5.5c-.2.3-.4.6-.7 1.1s-.5 1-.9 1.7v9.7h-2.4V30.8h2l.1 2.9c.3-.6.5-1.1.8-1.5.2-.4.5-.7.8-1s.5-.4.8-.5c.3-.1.6-.2 1-.2.8 0 1.4.3 1.9.8.4.5.6 1.4.6 2.5.2-.5.5-1 .7-1.4.2-.4.5-.7.7-1 .3-.3.6-.5.9-.6.3-.1.7-.2 1.1-.2 1.9 0 2.8 1.5 2.8 4.4v11h-2.2zM567.4 38.2c0 1.2-.2 2.3-.5 3.2-.3 1-.8 1.8-1.4 2.5-.6.7-1.4 1.2-2.3 1.6-.9.4-1.9.6-3 .6s-2.1-.2-2.9-.5c-.9-.3-1.6-.8-2.2-1.5-.6-.7-1.1-1.5-1.4-2.4s-.5-2.1-.5-3.3c0-1.2.2-2.2.5-3.2s.8-1.8 1.4-2.5c.6-.7 1.4-1.2 2.3-1.6s1.9-.6 3-.6 2.1.2 2.9.5 1.6.8 2.2 1.5c.6.6 1.1 1.5 1.4 2.4s.5 2.1.5 3.3zm-2.6.2c0-.9-.1-1.8-.3-2.5-.2-.7-.5-1.3-.9-1.7-.4-.5-.8-.8-1.4-1.1-.5-.2-1.2-.4-1.8-.4-.8 0-1.5.2-2 .5-.6.3-1 .7-1.4 1.2s-.6 1.1-.8 1.8c-.2.7-.2 1.4-.2 2.1 0 .9.1 1.8.3 2.5.2.7.5 1.3.9 1.8s.8.8 1.4 1.1c.5.2 1.2.4 1.8.4.8 0 1.5-.2 2-.5s1-.7 1.4-1.2.6-1.1.8-1.8.2-1.5.2-2.2zM570.5 38.7c0-1.3.2-2.4.5-3.4s.9-1.8 1.5-2.5 1.4-1.2 2.3-1.6c.9-.4 1.9-.5 3-.5.5 0 1 0 1.4.1s.9.2 1.4.3v-6.4h2.6V46H581l-.1-2.9c-.7 1.1-1.5 1.9-2.4 2.4-.9.5-1.8.8-2.8.8-.9 0-1.6-.2-2.3-.5-.7-.4-1.2-.9-1.6-1.5-.4-.7-.8-1.4-1-2.4-.2-1.1-.3-2.1-.3-3.2zm2.7-.2c0 1.8.3 3.2.8 4.1.5.9 1.3 1.3 2.3 1.3.7 0 1.4-.3 2.1-.9.7-.6 1.5-1.5 2.3-2.6v-7c-.4-.2-.9-.4-1.4-.5s-1-.2-1.6-.2c-1.4 0-2.5.5-3.3 1.4-.8 1-1.2 2.4-1.2 4.4zM600.4 45.9H598l-.1-2.4c-.5.5-.9 1-1.3 1.3s-.8.6-1.2.8-.8.4-1.2.4c-.4.1-.8.1-1.3.1-1.6 0-2.7-.5-3.5-1.4-.8-.9-1.2-2.3-1.2-4.1v-9.9h2.6v9.7c0 2.3.9 3.5 2.6 3.5.3 0 .6 0 .9-.1s.6-.3 1-.5c.3-.2.7-.6 1.1-1 .4-.4.8-.9 1.3-1.5v-10h2.6v15.1zM610.4 26.8h-4.5v-2.2h7.1v19.1h4.5v2.2h-12.1v-2.2h5V26.8zM635 37.6v1.6h-10.6c0 1.5.4 2.7 1.3 3.6.9.8 2.1 1.2 3.7 1.2.4 0 .9 0 1.3-.1.4 0 .9-.1 1.3-.1.4-.1.8-.1 1.2-.2s.7-.2 1-.2v2.2c-.7.2-1.5.4-2.4.5-.9.1-1.8.2-2.8.2-1.3 0-2.4-.2-3.3-.5-.9-.4-1.7-.9-2.3-1.5-.6-.7-1-1.5-1.3-2.5s-.4-2.1-.4-3.3c0-1.1.2-2.1.5-3 .3-.9.8-1.8 1.3-2.5.6-.7 1.3-1.3 2.2-1.7s1.8-.6 2.9-.6c1.1 0 2 .2 2.8.5.8.3 1.5.8 2.1 1.4.6.6 1 1.3 1.3 2.2 0 .7.2 1.7.2 2.8zm-2.8-.4c0-.7 0-1.3-.2-1.8-.2-.6-.4-1-.7-1.4-.3-.4-.8-.7-1.3-.9-.5-.2-1.1-.3-1.7-.3-.6 0-1.1.1-1.6.3-.5.2-.9.5-1.2.9-.3.4-.6.9-.8 1.4-.2.6-.3 1.2-.4 1.9h7.9z"/></g><g fill="#4C2626"><path d="M661.2 33h-4.5v-2.2h7.1v13h4.5V46h-12.1v-2.2h5V33zm.9-8.6c.3 0 .6.1.8.2.3.1.5.3.7.4.2.2.3.4.4.7s.2.5.2.8c0 .3-.1.5-.2.8-.1.3-.3.5-.4.7-.2.2-.4.3-.7.4-.3.1-.5.2-.8.2-.3 0-.6-.1-.8-.2s-.5-.3-.7-.4c-.2-.2-.3-.4-.4-.7-.1-.3-.2-.5-.2-.8 0-.3.1-.6.2-.8s.3-.5.4-.7c.2-.2.4-.3.7-.4s.6-.2.8-.2zM672.3 38.7c0-1.3.2-2.4.5-3.4s.9-1.8 1.5-2.5 1.4-1.2 2.3-1.6c.9-.4 1.9-.5 3-.5.5 0 1 0 1.4.1.5.1.9.2 1.4.3v-6.4h2.6V46h-2.4l-.1-2.9c-.7 1.1-1.5 1.9-2.4 2.4-.9.5-1.8.8-2.8.8-.9 0-1.6-.2-2.3-.5-.7-.4-1.2-.9-1.6-1.5-.4-.7-.8-1.4-1-2.4s-.1-2.1-.1-3.2zm2.7-.2c0 1.8.3 3.2.8 4.1.5.9 1.3 1.3 2.3 1.3.7 0 1.4-.3 2.1-.9.7-.6 1.5-1.5 2.3-2.6v-7c-.4-.2-.9-.4-1.4-.5s-1-.2-1.6-.2c-1.4 0-2.5.5-3.3 1.4s-1.2 2.4-1.2 4.4z"/></g><path d="M702.6 36.2h-13V34h13v2.2zm0 5.2h-13v-2.2h13v2.2z"/><g fill="#CC8466"><path d="M711.8 24.6l-.4 7.1h-2.5l-.4-7.1h3.3zm5.9 0l-.4 7.1h-2.5l-.4-7.1h3.3zM736 41.8c0 .5-.1 1-.3 1.4-.2.4-.4.8-.7 1.1-.3.3-.7.6-1.1.8-.4.2-.9.4-1.3.6-.5.2-.9.3-1.4.3-.5.1-1 .1-1.4.1-1 0-2 0-2.8-.1s-1.7-.2-2.5-.4v-2.4c.9.3 1.8.4 2.6.6.9.1 1.7.2 2.6.2 1.3 0 2.2-.2 2.8-.5.6-.3.9-.8.9-1.5 0-.3 0-.5-.1-.7-.1-.2-.3-.4-.5-.6-.3-.2-.6-.4-1.2-.6-.5-.2-1.2-.5-2.2-.7-.7-.2-1.3-.4-1.9-.7-.6-.3-1.1-.6-1.5-.9-.4-.4-.8-.8-1-1.2-.2-.5-.4-1-.4-1.7 0-.4.1-.9.3-1.4.2-.5.5-1 1-1.4.5-.4 1.1-.8 1.9-1.1.8-.3 1.8-.4 3-.4.6 0 1.3 0 2 .1s1.5.2 2.3.3v2.3c-.8-.2-1.6-.3-2.3-.4s-1.4-.1-1.9-.1c-.7 0-1.2.1-1.7.2-.4.1-.8.2-1.1.4-.3.2-.5.4-.6.6-.1.2-.2.5-.2.8s.1.5.2.7c.1.2.3.4.6.6s.7.4 1.2.6c.5.2 1.2.4 2 .7.9.3 1.6.5 2.3.8.6.3 1.1.6 1.5 1 .4.4.7.7.8 1.2 0 .3.1.8.1 1.4zM753.1 45.9h-2.4l-.1-2.4c-.5.5-.9 1-1.3 1.3-.4.3-.8.6-1.2.8-.4.2-.8.4-1.2.4-.4.1-.8.1-1.3.1-1.6 0-2.7-.5-3.5-1.4-.8-.9-1.2-2.3-1.2-4.1v-9.9h2.6v9.7c0 2.3.9 3.5 2.6 3.5.3 0 .6 0 .9-.1s.6-.3 1-.5c.3-.2.7-.6 1.1-1 .4-.4.8-.9 1.3-1.5v-10h2.6v15.1zM770.9 38.1c0 1.3-.2 2.5-.6 3.5-.4 1-.9 1.8-1.6 2.5-.7.7-1.4 1.2-2.4 1.5-.9.3-1.9.5-2.9.5-.5 0-1 0-1.4-.1-.5-.1-1-.1-1.5-.3V52H758V30.8h2.3l.2 2.5c.8-1 1.6-1.8 2.4-2.2.9-.4 1.8-.6 2.8-.6.9 0 1.6.2 2.3.5.7.4 1.2.9 1.6 1.5.4.7.8 1.5 1 2.4s.3 2 .3 3.2zm-2.7.1c0-.8-.1-1.5-.2-2.2s-.3-1.2-.5-1.7c-.3-.5-.6-.8-1-1.1-.4-.3-.9-.4-1.4-.4-.3 0-.7.1-1 .2-.3.1-.7.3-1.1.5s-.8.6-1.2 1c-.4.4-.8.9-1.3 1.5v7.3c.5.2 1 .4 1.5.5.5.1 1.1.2 1.6.2 1.4 0 2.5-.5 3.3-1.4s1.3-2.5 1.3-4.4zM787.7 37.6v1.6H777c0 1.5.4 2.7 1.3 3.6.9.8 2.1 1.2 3.7 1.2.4 0 .9 0 1.3-.1.4 0 .9-.1 1.3-.1.4-.1.8-.1 1.2-.2s.7-.2 1-.2v2.2c-.7.2-1.5.4-2.4.5-.9.1-1.8.2-2.8.2-1.3 0-2.4-.2-3.3-.5-.9-.4-1.7-.9-2.3-1.5-.6-.7-1-1.5-1.3-2.5-.3-1-.4-2.1-.4-3.3 0-1.1.2-2.1.5-3 .3-.9.8-1.8 1.3-2.5.6-.7 1.3-1.3 2.2-1.7s1.8-.6 2.9-.6c1.1 0 2 .2 2.8.5.8.3 1.5.8 2.1 1.4s1 1.3 1.3 2.2c.2.7.3 1.7.3 2.8zm-2.7-.4c0-.7 0-1.3-.2-1.8-.2-.6-.4-1-.7-1.4-.3-.4-.8-.7-1.3-.9-.5-.2-1.1-.3-1.7-.3-.6 0-1.1.1-1.6.3-.5.2-.9.5-1.2.9-.3.4-.6.9-.8 1.4-.2.6-.3 1.2-.4 1.9h7.9zM792.5 30.8h2.4l.1 2.8c.9-1.1 1.8-1.9 2.6-2.3s1.7-.7 2.6-.7c1.6 0 2.8.5 3.6 1.5.8 1 1.2 2.5 1.1 4.5h-2.7c0-1.3-.2-2.3-.6-2.9-.4-.6-1-.9-1.8-.9-.4 0-.7.1-1.1.2-.4.1-.7.3-1.1.6s-.8.6-1.2 1.1c-.4.4-.9 1-1.4 1.6V46h-2.7V30.8zM819.5 38.9h-9v-2.5h9v2.5zM838.8 38.1c0 1.3-.2 2.4-.5 3.4s-.8 1.8-1.5 2.5-1.4 1.2-2.3 1.6c-.9.4-1.9.5-3.1.5-.9 0-1.8-.1-2.7-.3-.9-.2-1.9-.4-2.8-.8V24.6h2.6v5.9l-.1 2.8c.8-1 1.6-1.7 2.4-2.1.9-.4 1.8-.6 2.8-.6.9 0 1.6.2 2.3.5.7.4 1.2.9 1.6 1.5s.8 1.5 1 2.4.3 1.9.3 3.1zm-2.7.1c0-.8-.1-1.5-.2-2.2s-.3-1.2-.6-1.7-.6-.8-1-1.1c-.4-.3-.9-.4-1.4-.4-.3 0-.7.1-1 .2-.3.1-.7.3-1.1.5s-.8.6-1.2 1c-.4.4-.8.9-1.3 1.5v7.3c.5.2 1 .4 1.6.5s1 .2 1.5.2c.6 0 1.2-.1 1.7-.3.5-.2 1-.5 1.4-1s.7-1 1-1.8c.5-.7.6-1.6.6-2.7zM855 45.9h-2.4l-.1-2.4c-.5.5-.9 1-1.3 1.3s-.8.6-1.2.8-.8.4-1.2.4c-.4.1-.8.1-1.3.1-1.6 0-2.7-.5-3.5-1.4-.8-.9-1.2-2.3-1.2-4.1v-9.9h2.6v9.7c0 2.3.9 3.5 2.6 3.5.3 0 .6 0 .9-.1s.6-.3 1-.5c.3-.2.7-.6 1.1-1 .4-.4.8-.9 1.3-1.5v-10h2.6v15.1zM872 45.7c-.6.2-1.2.3-1.8.3s-1.3.1-1.9.1c-1.9 0-3.3-.4-4.3-1.3s-1.4-2.2-1.4-4V33h-4.2v-2.2h4.2v-4.2l2.6-.7v4.8h6.8V33h-6.8v7.7c0 1.1.3 1.9.9 2.4.6.5 1.4.8 2.6.8.5 0 1 0 1.6-.1.6-.1 1.2-.2 1.8-.4v2.3zM889 45.7c-.6.2-1.2.3-1.8.3s-1.3.1-1.9.1c-1.9 0-3.3-.4-4.3-1.3s-1.4-2.2-1.4-4V33h-4.2v-2.2h4.2v-4.2l2.6-.7v4.8h6.8V33h-6.8v7.7c0 1.1.3 1.9.9 2.4.6.5 1.4.8 2.6.8.5 0 1 0 1.6-.1.6-.1 1.2-.2 1.8-.4v2.3zM906.9 38.2c0 1.2-.2 2.3-.5 3.2-.3 1-.8 1.8-1.4 2.5-.6.7-1.4 1.2-2.3 1.6-.9.4-1.9.6-3 .6s-2.1-.2-2.9-.5c-.9-.3-1.6-.8-2.2-1.5s-1.1-1.5-1.4-2.4c-.3-1-.5-2.1-.5-3.3 0-1.2.2-2.2.5-3.2s.8-1.8 1.4-2.5c.6-.7 1.4-1.2 2.3-1.6s1.9-.6 3-.6 2.1.2 2.9.5 1.6.8 2.2 1.5c.6.6 1.1 1.5 1.4 2.4s.5 2.1.5 3.3zm-2.6.2c0-.9-.1-1.8-.3-2.5-.2-.7-.5-1.3-.9-1.7-.4-.5-.8-.8-1.4-1.1-.5-.2-1.2-.4-1.8-.4-.8 0-1.5.2-2 .5-.6.3-1 .7-1.4 1.2-.4.5-.6 1.1-.8 1.8-.2.7-.2 1.4-.2 2.1 0 .9.1 1.8.3 2.5.2.7.5 1.3.9 1.8s.8.8 1.4 1.1c.5.2 1.2.4 1.8.4.8 0 1.5-.2 2-.5.6-.3 1-.7 1.4-1.2.4-.5.6-1.1.8-1.8.1-.8.2-1.5.2-2.2zM910.7 30.8h2.3l.1 2.4c.4-.5.9-1 1.3-1.3s.8-.6 1.2-.8c.4-.2.8-.4 1.2-.4.4-.1.8-.1 1.3-.1 1.6 0 2.7.5 3.5 1.4.8.9 1.2 2.3 1.2 4.2v9.9h-2.6v-9.7c0-1.2-.2-2.1-.7-2.6-.4-.6-1.1-.9-2-.9-.3 0-.6 0-.9.1-.3.1-.6.3-1 .5s-.7.6-1.1 1-.8.9-1.3 1.5v10h-2.6V30.8zM932.5 24.6l-.4 7.1h-2.5l-.4-7.1h3.3zm5.9 0l-.4 7.1h-2.5l-.4-7.1h3.3z"/></g><path fill="#7A8FCC" d="M945.5 30.9l1.6-1.7 10.1 8.5-10.1 8.5-1.6-1.7 8.2-6.8-8.2-6.8z"/><path d="M488.4 81.4c0 .2 0 .5-.1.7-.1.2-.2.4-.4.6-.2.2-.3.3-.6.4-.2.1-.5.1-.7.1-.3 0-.5 0-.7-.1-.2-.1-.4-.2-.6-.4-.2-.2-.3-.4-.4-.6-.1-.2-.1-.5-.1-.7 0-.3 0-.5.1-.7.1-.2.2-.4.4-.6.2-.2.3-.3.6-.4.2-.1.5-.1.7-.1.3 0 .5 0 .7.1.2.1.4.2.6.4.2.2.3.4.4.6.1.3.1.5.1.7zm5.8 0c0 .2 0 .5-.1.7-.1.2-.2.4-.4.6-.2.2-.3.3-.6.4-.2.1-.5.1-.7.1-.3 0-.5 0-.7-.1s-.4-.2-.6-.4c-.2-.2-.3-.4-.4-.6s-.1-.5-.1-.7c0-.3 0-.5.1-.7.1-.2.2-.4.4-.6.2-.2.3-.3.6-.4s.5-.1.7-.1c.3 0 .5 0 .7.1.2.1.4.2.6.4.2.2.3.4.4.6.1.3.1.5.1.7zm5.8 0c0 .2 0 .5-.1.7-.1.2-.2.4-.4.6-.2.2-.3.3-.6.4s-.5.1-.7.1c-.3 0-.5 0-.7-.1s-.4-.2-.6-.4c-.2-.2-.3-.4-.4-.6s-.1-.5-.1-.7c0-.3 0-.5.1-.7.1-.2.2-.4.4-.6.2-.2.3-.3.6-.4s.5-.1.7-.1c.3 0 .5 0 .7.1s.4.2.6.4c.2.2.3.4.4.6.1.3.1.5.1.7z"/><g fill="#7A8FCC"><path d="M463.8 118.6l-1.6 1.7-10.1-8.5 10.1-8.5 1.6 1.7-8.2 6.8 8.2 6.8zM481.6 98.7l-10.3 24.5h-2.5l10.3-24.5h2.5zM485.6 112.8c0-1.3.2-2.4.5-3.4.4-1 .9-1.8 1.5-2.5s1.4-1.2 2.3-1.6c.9-.4 1.9-.5 3-.5.5 0 1 0 1.4.1.5.1.9.2 1.4.3v-6.4h2.6V120h-2.4l-.1-2.9c-.7 1.1-1.5 1.9-2.4 2.4-.9.5-1.8.8-2.8.8-.9 0-1.6-.2-2.3-.5-.7-.4-1.2-.9-1.6-1.5-.4-.7-.8-1.4-1-2.4s-.1-2-.1-3.1zm2.7-.2c0 1.8.3 3.2.8 4.1.5.9 1.3 1.3 2.3 1.3.7 0 1.4-.3 2.1-.9.7-.6 1.5-1.5 2.3-2.6v-7c-.4-.2-.9-.4-1.4-.5-.5-.1-1-.2-1.6-.2-1.4 0-2.5.5-3.3 1.4s-1.2 2.4-1.2 4.4zM516.5 112.3c0 1.2-.2 2.3-.5 3.2-.3 1-.8 1.8-1.4 2.5-.6.7-1.4 1.2-2.3 1.6-.9.4-1.9.6-3 .6s-2.1-.2-2.9-.5c-.9-.3-1.6-.8-2.2-1.5s-1.1-1.5-1.4-2.4-.5-2.1-.5-3.3c0-1.2.2-2.2.5-3.2s.8-1.8 1.4-2.5c.6-.7 1.4-1.2 2.3-1.6s1.9-.6 3-.6 2.1.2 2.9.5 1.6.8 2.2 1.5 1.1 1.5 1.4 2.4c.4 1 .5 2.1.5 3.3zm-2.7.2c0-.9-.1-1.8-.3-2.5-.2-.7-.5-1.3-.9-1.7-.4-.5-.8-.8-1.4-1.1-.5-.2-1.2-.4-1.8-.4-.8 0-1.5.2-2 .5-.6.3-1 .7-1.4 1.2-.4.5-.6 1.1-.8 1.8-.2.7-.2 1.4-.2 2.1 0 .9.1 1.8.3 2.5.2.7.5 1.3.9 1.8s.8.8 1.4 1.1 1.2.4 1.8.4c.8 0 1.5-.2 2-.5.6-.3 1-.7 1.4-1.2.4-.5.6-1.1.8-1.8s.2-1.5.2-2.2zM531.1 120v-10.9c0-.5 0-.9-.1-1.2s-.1-.5-.2-.7c-.1-.2-.2-.3-.3-.4-.1-.1-.3-.1-.4-.1-.2 0-.4.1-.6.2-.2.1-.4.3-.6.6-.2.3-.4.6-.6 1.1s-.5 1-.8 1.7v9.7h-2.4v-10.6c0-.6 0-1-.1-1.3s-.1-.6-.2-.8c-.1-.2-.2-.3-.3-.4-.1-.1-.3-.1-.4-.1-.2 0-.4.1-.5.2l-.5.5c-.2.3-.4.6-.7 1.1s-.5 1-.9 1.7v9.7h-2.4v-15.1h2l.1 2.9c.3-.6.5-1.1.8-1.5.2-.4.5-.7.8-1s.5-.4.8-.5c.3-.1.6-.2 1-.2.8 0 1.4.3 1.9.8.4.5.6 1.4.6 2.5.2-.5.5-1 .7-1.4.2-.4.5-.7.7-1 .3-.3.6-.5.9-.6.3-.1.7-.2 1.1-.2 1.9 0 2.8 1.5 2.8 4.4v11h-2.2zM547.9 113.1h-9v-2.5h9v2.5zM565.1 120v-10.9c0-.5 0-.9-.1-1.2s-.1-.5-.2-.7c-.1-.2-.2-.3-.3-.4-.1-.1-.3-.1-.4-.1-.2 0-.4.1-.6.2-.2.1-.4.3-.5.6-.2.3-.4.6-.6 1.1-.2.4-.5 1-.8 1.7v9.7h-2.4v-10.6c0-.6 0-1-.1-1.3s-.1-.6-.2-.8c-.1-.2-.2-.3-.3-.4-.1-.1-.3-.1-.4-.1-.2 0-.4.1-.5.2-.2.1-.3.3-.5.5-.2.3-.4.6-.7 1.1-.2.5-.5 1-.9 1.7v9.7h-2.4v-15.1h2l.1 2.9c.3-.6.5-1.1.8-1.5.2-.4.5-.7.8-1 .3-.2.5-.4.8-.5.3-.1.6-.2 1-.2.8 0 1.4.3 1.9.8.4.5.6 1.4.6 2.5.2-.5.5-1 .7-1.4.2-.4.5-.7.7-1 .3-.3.6-.5.9-.6s.7-.2 1.1-.2c1.9 0 2.8 1.5 2.8 4.4v11h-2.3zM584.4 112.3c0 1.2-.2 2.3-.5 3.2-.3 1-.8 1.8-1.4 2.5-.6.7-1.4 1.2-2.3 1.6-.9.4-1.9.6-3 .6s-2.1-.2-2.9-.5c-.9-.3-1.6-.8-2.2-1.5-.6-.7-1.1-1.5-1.4-2.4s-.5-2.1-.5-3.3c0-1.2.2-2.2.5-3.2s.8-1.8 1.4-2.5c.6-.7 1.4-1.2 2.3-1.6s1.9-.6 3-.6 2.1.2 2.9.5 1.6.8 2.2 1.5c.6.6 1.1 1.5 1.4 2.4s.5 2.1.5 3.3zm-2.7.2c0-.9-.1-1.8-.3-2.5-.2-.7-.5-1.3-.9-1.7-.4-.5-.8-.8-1.4-1.1-.5-.2-1.2-.4-1.8-.4-.8 0-1.5.2-2 .5-.6.3-1 .7-1.4 1.2s-.6 1.1-.8 1.8c-.2.7-.2 1.4-.2 2.1 0 .9.1 1.8.3 2.5.2.7.5 1.3.9 1.8s.8.8 1.4 1.1c.5.2 1.2.4 1.8.4.8 0 1.5-.2 2-.5s1-.7 1.4-1.2.6-1.1.8-1.8.2-1.5.2-2.2zM587.5 112.8c0-1.3.2-2.4.5-3.4s.9-1.8 1.5-2.5 1.4-1.2 2.3-1.6c.9-.4 1.9-.5 3-.5.5 0 1 0 1.4.1s.9.2 1.4.3v-6.4h2.6V120h-2.4l-.1-2.9c-.7 1.1-1.5 1.9-2.4 2.4-.9.5-1.8.8-2.8.8-.9 0-1.6-.2-2.3-.5-.7-.4-1.2-.9-1.6-1.5-.4-.7-.8-1.4-1-2.4 0-1-.1-2-.1-3.1zm2.6-.2c0 1.8.3 3.2.8 4.1.5.9 1.3 1.3 2.3 1.3.7 0 1.4-.3 2.1-.9.7-.6 1.5-1.5 2.3-2.6v-7c-.4-.2-.9-.4-1.4-.5s-1-.2-1.6-.2c-1.4 0-2.5.5-3.3 1.4-.8 1-1.2 2.4-1.2 4.4zM617.4 120H615l-.1-2.4c-.5.5-.9 1-1.3 1.3-.4.3-.8.6-1.2.8s-.8.4-1.2.4c-.4.1-.8.1-1.3.1-1.6 0-2.7-.5-3.5-1.4-.8-.9-1.2-2.3-1.2-4.1v-9.9h2.6v9.7c0 2.3.9 3.5 2.6 3.5.3 0 .6 0 .9-.1s.6-.3 1-.5c.3-.2.7-.6 1.1-1 .4-.4.8-.9 1.3-1.5v-10h2.6V120zM627.3 100.9h-4.5v-2.2h7.1v19.1h4.5v2.2h-12.1v-2.2h5v-16.9zM651.9 111.7v1.6h-10.6c0 1.5.4 2.7 1.3 3.6.9.8 2.1 1.2 3.7 1.2.4 0 .9 0 1.3-.1.4 0 .9-.1 1.3-.1.4-.1.8-.1 1.2-.2s.7-.2 1-.2v2.2c-.7.2-1.5.4-2.4.5-.9.1-1.8.2-2.8.2-1.3 0-2.4-.2-3.3-.5-.9-.4-1.7-.9-2.3-1.5-.6-.7-1-1.5-1.3-2.5s-.4-2.1-.4-3.3c0-1.1.2-2.1.5-3 .3-.9.8-1.8 1.3-2.5.6-.7 1.3-1.3 2.2-1.7s1.8-.6 2.9-.6c1.1 0 2 .2 2.8.5.8.3 1.5.8 2.1 1.4.6.6 1 1.3 1.3 2.2.1.7.2 1.7.2 2.8zm-2.7-.4c0-.7 0-1.3-.2-1.8-.2-.6-.4-1-.7-1.4-.3-.4-.8-.7-1.3-.9-.5-.2-1.1-.3-1.7-.3-.6 0-1.1.1-1.6.3-.5.2-.9.5-1.2.9-.3.4-.6.9-.8 1.4-.2.6-.3 1.2-.4 1.9h7.9zM656.9 105l1.6-1.7 10.1 8.5-10.1 8.5-1.6-1.7 8.2-6.8-8.2-6.8z"/></g></svg>