<svg xmlns="http://www.w3.org/2000/svg" viewBox="0 0 960 150"><text transform="translate(122.26 93.194)" fill="#666" font-family="'Roboto-Medium'" font-size="62.257">Utilisation</text><g fill="#7A8FCC"><path d="M463.9 81.1l-1.5 1.6-9.5-7.9 9.5-7.9 1.5 1.6-7.7 6.3 7.7 6.3zM480.4 78.6c0 .5-.1.9-.3 1.3-.2.4-.4.7-.7 1.1-.3.3-.6.6-1 .8-.4.2-.8.4-1.2.5-.4.1-.9.2-1.3.3s-.9.1-1.4.1c-1 0-1.8 0-2.6-.1s-1.6-.2-2.4-.4v-2.3c.8.2 1.7.4 2.5.5s1.6.2 2.4.2c1.2 0 2-.2 2.6-.5s.8-.8.8-1.4c0-.3 0-.5-.1-.7-.1-.2-.3-.4-.5-.6-.2-.2-.6-.4-1.1-.6-.5-.2-1.2-.4-2-.7l-1.8-.6s-1-.5-1.4-.9c-.4-.3-.7-.7-.9-1.2-.2-.4-.3-1-.3-1.6 0-.4.1-.8.3-1.3s.5-.9.9-1.3 1-.7 1.8-1c.8-.3 1.7-.4 2.8-.4.6 0 1.2 0 1.9.1l2.1.3v2.2c-.8-.2-1.5-.3-2.2-.4-.7-.1-1.3-.1-1.8-.1-.6 0-1.1 0-1.5.1-.4.1-.8.2-1 .4-.3.2-.4.4-.6.6-.1.2-.2.5-.2.7 0 .3 0 .5.1.7.1.2.3.4.6.6.3.2.6.4 1.1.6.5.2 1.1.4 1.9.6.8.2 1.5.5 2.1.8.6.3 1 .6 1.4.9.4.3.6.7.8 1.1s.2 1.1.2 1.6zM496.5 82.5h-2.2l-.1-2.3c-.4.5-.8.9-1.2 1.2-.4.3-.8.6-1.1.8-.4.2-.8.3-1.1.4-.4.1-.8.1-1.2.1-1.5 0-2.6-.4-3.3-1.3-.7-.9-1.1-2.2-1.1-3.9v-9.3h2.5v9.1c0 2.2.8 3.3 2.5 3.3.3 0 .6 0 .9-.1.3-.1.6-.2.9-.5.3-.2.7-.5 1-.9.4-.4.8-.9 1.2-1.4v-9.4h2.5v14.2zM513.1 75.1c0 1.3-.2 2.4-.5 3.3-.4.9-.8 1.7-1.5 2.3-.6.6-1.4 1.1-2.2 1.4s-1.8.5-2.8.5c-.5 0-.9 0-1.3-.1s-.9-.1-1.4-.2v5.9H501v-20h2.2l.2 2.4c.7-1 1.5-1.7 2.3-2 .8-.4 1.7-.6 2.6-.6.8 0 1.5.2 2.1.5.6.3 1.1.8 1.5 1.4.4.6.7 1.4.9 2.2s.3 2 .3 3zm-2.5.1c0-.7-.1-1.4-.2-2-.1-.6-.3-1.2-.5-1.6-.2-.4-.5-.8-.9-1-.4-.2-.8-.4-1.3-.4-.3 0-.6 0-.9.1-.3.1-.7.3-1 .5-.3.2-.7.5-1.1.9-.4.4-.8.9-1.2 1.4V80c.5.2.9.3 1.4.4s1 .2 1.5.2c1.3 0 2.4-.4 3.1-1.3.7-.9 1.1-2.2 1.1-4.1zM528.8 74.6v1.6h-10c0 1.5.4 2.6 1.2 3.3.8.8 2 1.2 3.5 1.2h1.2c.4 0 .8-.1 1.2-.1.4-.1.8-.1 1.1-.2.4-.1.7-.1 1-.2v2c-.7.2-1.4.3-2.3.5-.8.1-1.7.2-2.6.2-1.2 0-2.3-.2-3.1-.5-.9-.3-1.6-.8-2.2-1.4s-1-1.4-1.2-2.3-.4-1.9-.4-3.1c0-1 .1-1.9.4-2.8s.7-1.7 1.3-2.3c.6-.7 1.2-1.2 2-1.6s1.7-.6 2.7-.6c1 0 1.9.2 2.6.5.8.3 1.4.8 1.9 1.3.5.6.9 1.3 1.2 2.1.4.5.5 1.4.5 2.4zm-2.5-.3c0-.6 0-1.2-.2-1.7s-.4-1-.7-1.3c-.3-.4-.7-.7-1.2-.9s-1-.3-1.6-.3c-.5 0-1 .1-1.5.3-.4.2-.8.5-1.1.9s-.6.8-.8 1.4c-.2.5-.3 1.1-.4 1.7h7.5zM533.3 68.3h2.2l.1 2.6c.8-1 1.7-1.7 2.5-2.2.8-.5 1.6-.7 2.5-.7 1.5 0 2.6.5 3.3 1.4s1.1 2.4 1.1 4.2h-2.5c0-1.2-.2-2.1-.5-2.7s-1-.8-1.7-.8c-.3 0-.7.1-1 .2-.3.1-.7.3-1 .6-.4.3-.7.6-1.1 1-.4.4-.8.9-1.3 1.5v9.1h-2.5V68.3zM558.6 75.9h-8.4v-2.3h8.4v2.3zM576.7 75.1c0 1.2-.2 2.2-.5 3.2s-.8 1.7-1.4 2.4c-.6.6-1.3 1.1-2.2 1.5-.9.3-1.8.5-2.9.5-.8 0-1.7-.1-2.6-.2-.9-.2-1.7-.4-2.6-.8V62.5h2.5V68l-.1 2.6c.7-1 1.5-1.6 2.3-2 .8-.4 1.7-.6 2.6-.6.8 0 1.5.2 2.1.5.6.3 1.1.8 1.5 1.4.4.6.7 1.4.9 2.2s.4 2 .4 3zm-2.5.1c0-.7-.1-1.4-.2-2-.1-.6-.3-1.2-.5-1.6-.2-.4-.5-.8-.9-1-.4-.2-.8-.4-1.3-.4-.3 0-.6 0-.9.1-.3.1-.7.3-1 .5-.3.2-.7.5-1.1.9-.4.4-.8.9-1.2 1.4V80c.5.2 1 .3 1.5.4s1 .2 1.4.2c.6 0 1.1-.1 1.6-.3.5-.2 1-.5 1.4-.9s.7-1 .9-1.7c.2-.6.3-1.4.3-2.5zM591.9 82.5h-2.2l-.1-2.3c-.4.5-.8.9-1.2 1.2-.4.3-.8.6-1.1.8-.4.2-.8.3-1.1.4-.4.1-.8.1-1.2.1-1.5 0-2.6-.4-3.3-1.3-.7-.9-1.1-2.2-1.1-3.9v-9.3h2.5v9.1c0 2.2.8 3.3 2.5 3.3.3 0 .6 0 .9-.1.3-.1.6-.2.9-.5.3-.2.7-.5 1-.9.4-.4.8-.9 1.2-1.4v-9.4h2.5v14.2zM607.8 82.3c-.6.1-1.1.2-1.7.3-.6.1-1.2.1-1.8.1-1.8 0-3.1-.4-4-1.2-.9-.8-1.3-2-1.3-3.7v-7.4h-4v-2.1h4v-3.9l2.5-.6v4.5h6.4v2.1h-6.4v7.2c0 1 .3 1.8.8 2.3.5.5 1.3.8 2.4.8.5 0 .9 0 1.5-.1.5-.1 1.1-.2 1.7-.3v2zM623.7 82.3c-.6.1-1.1.2-1.7.3-.6.1-1.2.1-1.8.1-1.8 0-3.1-.4-4-1.2-.9-.8-1.3-2-1.3-3.7v-7.4h-4v-2.1h4v-3.9l2.5-.6v4.5h6.4v2.1h-6.4v7.2c0 1 .3 1.8.8 2.3.5.5 1.3.8 2.4.8.5 0 .9 0 1.5-.1.5-.1 1.1-.2 1.7-.3v2zM640.6 75.3c0 1.1-.2 2.1-.5 3-.3.9-.8 1.7-1.3 2.4-.6.7-1.3 1.2-2.1 1.5-.8.4-1.8.5-2.9.5-1 0-1.9-.2-2.7-.5-.8-.3-1.5-.8-2-1.4s-1-1.4-1.3-2.3-.4-1.9-.4-3.1c0-1.1.2-2.1.5-3 .3-.9.8-1.7 1.3-2.3.6-.7 1.3-1.2 2.1-1.5s1.7-.6 2.7-.6c1 0 1.9.2 2.7.5.8.3 1.5.8 2 1.4.6.6 1 1.4 1.3 2.3s.6 1.9.6 3.1zm-2.6.1c0-.9-.1-1.6-.3-2.3-.2-.7-.5-1.2-.8-1.6-.4-.4-.8-.8-1.3-1-.5-.2-1.1-.3-1.7-.3-.7 0-1.4.1-1.9.4-.5.3-1 .7-1.3 1.2-.3.5-.6 1-.7 1.7s-.2 1.3-.2 2c0 .9.1 1.6.3 2.3.2.7.5 1.2.8 1.6.4.4.8.8 1.3 1 .5.2 1.1.3 1.7.3.7 0 1.4-.1 1.9-.4.5-.3 1-.7 1.3-1.2.3-.5.6-1 .7-1.7s.2-1.3.2-2zM644.1 68.3h2.2l.1 2.3c.4-.5.8-.9 1.2-1.2.4-.3.8-.6 1.1-.8.4-.2.8-.3 1.1-.4.4-.1.8-.1 1.2-.1 1.5 0 2.6.4 3.3 1.3.7.9 1.1 2.2 1.1 3.9v9.3h-2.5v-9.1c0-1.1-.2-1.9-.6-2.5-.4-.5-1-.8-1.9-.8-.3 0-.6 0-.9.1-.3.1-.6.2-.9.5-.3.2-.6.5-1 .9s-.8.8-1.2 1.4v9.4h-2.5V68.3zM660.7 68.4l1.5-1.6 9.5 7.9-9.5 7.9-1.5-1.6 7.7-6.3-7.7-6.3z"/></g><path d="M681.5 78c.3 0 .6.1.9.2.3.1.5.3.7.5s.4.5.5.8c.1.3.2.6.2.9 0 .3-.1.6-.2.9-.1.3-.3.5-.5.7s-.5.4-.7.5c-.3.1-.6.2-.9.2-.3 0-.6-.1-.9-.2-.3-.1-.5-.3-.7-.5-.2-.2-.4-.5-.5-.7-.1-.3-.2-.6-.2-.9 0-.3.1-.6.2-.9s.3-.5.5-.8c.2-.2.5-.4.7-.5.2-.1.5-.2.9-.2zM697.4 78c.3 0 .6.1.9.2.3.1.5.3.7.5s.4.5.5.8c.1.3.2.6.2.9 0 .3-.1.6-.2.9-.1.3-.3.5-.5.7s-.5.4-.7.5c-.3.1-.6.2-.9.2-.3 0-.6-.1-.9-.2-.3-.1-.5-.3-.7-.5-.2-.2-.4-.5-.5-.7-.1-.3-.2-.6-.2-.9 0-.3.1-.6.2-.9s.3-.5.5-.8c.2-.2.5-.4.7-.5.2-.1.5-.2.9-.2zM713.3 78c.3 0 .6.1.9.2.3.1.5.3.7.5.2.2.4.5.5.8s.2.6.2.9c0 .3-.1.6-.2.9-.1.3-.3.5-.5.7-.2.2-.5.4-.7.5-.3.1-.6.2-.9.2-.3 0-.6-.1-.9-.2-.3-.1-.5-.3-.7-.5s-.4-.5-.5-.7c-.1-.3-.2-.6-.2-.9 0-.3.1-.6.2-.9.1-.3.3-.5.5-.8s.5-.4.7-.5c.2-.1.6-.2.9-.2z"/><g fill="#7A8FCC"><path d="M734.3 81.1l-1.5 1.6-9.5-7.9 9.5-7.9 1.5 1.6-7.7 6.3 7.7 6.3zM750.9 62.5l-9.7 23h-2.3l9.7-23h2.3zM766.7 78.6c0 .5-.1.9-.3 1.3-.2.4-.4.7-.7 1.1-.3.3-.6.6-1 .8s-.8.4-1.2.5c-.4.1-.9.2-1.3.3-.5.1-.9.1-1.4.1-1 0-1.8 0-2.6-.1s-1.6-.2-2.4-.4v-2.3c.8.2 1.7.4 2.5.5s1.6.2 2.4.2c1.2 0 2-.2 2.6-.5.6-.3.8-.8.8-1.4 0-.3 0-.5-.1-.7-.1-.2-.3-.4-.5-.6-.2-.2-.6-.4-1.1-.6-.5-.2-1.2-.4-2-.7l-1.8-.6c-.5-.2-1-.5-1.4-.9-.4-.3-.7-.7-.9-1.2-.2-.4-.3-1-.3-1.6 0-.4.1-.8.3-1.3s.5-.9.9-1.3 1-.7 1.8-1c.8-.3 1.7-.4 2.8-.4.6 0 1.2 0 1.9.1l2.1.3v2.2c-.8-.2-1.5-.3-2.2-.4-.7-.1-1.3-.1-1.8-.1-.6 0-1.1 0-1.5.1-.4.1-.8.2-1 .4-.3.2-.4.4-.6.6-.1.2-.2.5-.2.7 0 .3 0 .5.1.7s.3.4.6.6c.3.2.6.4 1.1.6.5.2 1.1.4 1.9.6.8.2 1.5.5 2.1.8.6.3 1 .6 1.4.9.4.3.6.7.8 1.1s.2 1.1.2 1.6zM782.7 82.5h-2.2l-.1-2.3c-.4.5-.8.9-1.2 1.2-.4.3-.8.6-1.1.8-.4.2-.8.3-1.1.4-.4.1-.8.1-1.2.1-1.5 0-2.6-.4-3.3-1.3-.7-.9-1.1-2.2-1.1-3.9v-9.3h2.5v9.1c0 2.2.8 3.3 2.5 3.3.3 0 .6 0 .9-.1.3-.1.6-.2.9-.5.3-.2.7-.5 1-.9.4-.4.8-.9 1.2-1.4v-9.4h2.5v14.2zM799.4 75.1c0 1.3-.2 2.4-.5 3.3-.4.9-.8 1.7-1.5 2.3-.6.6-1.4 1.1-2.2 1.4-.8.3-1.8.5-2.8.5-.5 0-.9 0-1.3-.1s-.9-.1-1.4-.2v5.9h-2.5v-20h2.2l.2 2.4c.7-1 1.5-1.7 2.3-2 .8-.4 1.7-.6 2.6-.6.8 0 1.5.2 2.1.5s1.1.8 1.5 1.4c.4.6.7 1.4.9 2.2s.4 2 .4 3zm-2.5.1c0-.7-.1-1.4-.2-2-.1-.6-.3-1.2-.5-1.6-.2-.4-.5-.8-.9-1-.4-.2-.8-.4-1.3-.4-.3 0-.6 0-.9.1s-.7.3-1 .5c-.3.2-.7.5-1.1.9-.4.4-.8.9-1.2 1.4V80c.5.2.9.3 1.4.4s1 .2 1.5.2c1.3 0 2.4-.4 3.1-1.3.7-.9 1.1-2.2 1.1-4.1zM815.1 74.6v1.6h-10c0 1.5.4 2.6 1.2 3.3.8.8 2 1.2 3.5 1.2h1.2c.4 0 .8-.1 1.2-.1.4-.1.8-.1 1.1-.2.4-.1.7-.1 1-.2v2c-.7.2-1.4.3-2.3.5-.8.1-1.7.2-2.6.2-1.2 0-2.3-.2-3.1-.5-.9-.3-1.6-.8-2.2-1.4-.6-.6-1-1.4-1.2-2.3-.3-.9-.4-1.9-.4-3.1 0-1 .1-1.9.4-2.8s.7-1.7 1.3-2.3c.6-.7 1.2-1.2 2-1.6.8-.4 1.7-.6 2.7-.6 1 0 1.9.2 2.6.5.8.3 1.4.8 1.9 1.3.5.6.9 1.3 1.2 2.1.4.5.5 1.4.5 2.4zm-2.5-.3c0-.6 0-1.2-.2-1.7s-.4-1-.7-1.3c-.3-.4-.7-.7-1.2-.9-.5-.2-1-.3-1.6-.3-.5 0-1 .1-1.5.3-.4.2-.8.5-1.1.9-.3.4-.6.8-.8 1.4-.2.5-.3 1.1-.4 1.7h7.5zM819.6 68.3h2.2l.1 2.6c.8-1 1.7-1.7 2.5-2.2.8-.5 1.6-.7 2.5-.7 1.5 0 2.6.5 3.3 1.4s1.1 2.4 1.1 4.2h-2.5c0-1.2-.2-2.1-.5-2.7s-1-.8-1.7-.8c-.3 0-.7.1-1 .2-.3.1-.7.3-1 .6-.4.3-.7.6-1.1 1-.4.4-.8.9-1.3 1.5v9.1h-2.5V68.3zM844.9 75.9h-8.4v-2.3h8.4v2.3zM863 75.1c0 1.2-.2 2.2-.5 3.2-.3.9-.8 1.7-1.4 2.4-.6.6-1.3 1.1-2.2 1.5s-1.8.5-2.9.5c-.8 0-1.7-.1-2.6-.2s-1.7-.4-2.6-.8V62.5h2.5V68l-.1 2.6c.7-1 1.5-1.6 2.3-2 .8-.4 1.7-.6 2.6-.6.8 0 1.5.2 2.1.5s1.1.8 1.5 1.4c.4.6.7 1.4.9 2.2s.4 2 .4 3zm-2.5.1c0-.7-.1-1.4-.2-2-.1-.6-.3-1.2-.5-1.6-.2-.4-.5-.8-.9-1-.4-.2-.8-.4-1.3-.4-.3 0-.6 0-.9.1s-.7.3-1 .5c-.3.2-.7.5-1.1.9-.4.4-.8.9-1.2 1.4V80c.5.2 1 .3 1.5.4.5.1 1 .2 1.4.2.6 0 1.1-.1 1.6-.3s1-.5 1.4-.9c.4-.4.7-1 .9-1.7.2-.6.3-1.4.3-2.5zM878.2 82.5H876l-.1-2.3c-.4.5-.8.9-1.2 1.2-.4.3-.8.6-1.1.8-.4.2-.8.3-1.1.4-.4.1-.8.1-1.2.1-1.5 0-2.6-.4-3.3-1.3-.7-.9-1.1-2.2-1.1-3.9v-9.3h2.5v9.1c0 2.2.8 3.3 2.5 3.3.3 0 .6 0 .9-.1.3-.1.6-.2.9-.5.3-.2.7-.5 1-.9.4-.4.8-.9 1.2-1.4v-9.4h2.5v14.2zM894.1 82.3c-.6.1-1.1.2-1.7.3-.6.1-1.2.1-1.8.1-1.8 0-3.1-.4-4-1.2-.9-.8-1.3-2-1.3-3.7v-7.4h-4v-2.1h4v-3.9l2.5-.6v4.5h6.4v2.1h-6.4v7.2c0 1 .3 1.8.8 2.3.5.5 1.3.8 2.4.8.5 0 .9 0 1.5-.1.5-.1 1.1-.2 1.7-.3v2zM910 82.3c-.6.1-1.1.2-1.7.3-.6.1-1.2.1-1.8.1-1.8 0-3.1-.4-4-1.2-.9-.8-1.3-2-1.3-3.7v-7.4h-4v-2.1h4v-3.9l2.5-.6v4.5h6.4v2.1h-6.4v7.2c0 1 .3 1.8.8 2.3.5.5 1.3.8 2.4.8.5 0 .9 0 1.5-.1.5-.1 1.1-.2 1.7-.3v2zM926.8 75.3c0 1.1-.2 2.1-.5 3-.3.9-.8 1.7-1.3 2.4-.6.7-1.3 1.2-2.1 1.5-.8.4-1.8.5-2.9.5-1 0-1.9-.2-2.7-.5-.8-.3-1.5-.8-2-1.4-.6-.6-1-1.4-1.3-2.3s-.4-1.9-.4-3.1c0-1.1.2-2.1.5-3 .3-.9.8-1.7 1.3-2.3.6-.7 1.3-1.2 2.1-1.5.8-.4 1.8-.5 2.9-.5 1 0 1.9.2 2.7.5.8.3 1.5.8 2 1.4s1 1.4 1.3 2.3c.3.8.4 1.8.4 3zm-2.5.1c0-.9-.1-1.6-.3-2.3-.2-.7-.5-1.2-.8-1.6-.4-.4-.8-.8-1.3-1-.5-.2-1.1-.3-1.7-.3-.7 0-1.4.1-1.9.4-.5.3-1 .7-1.3 1.2-.3.5-.6 1-.7 1.7s-.2 1.3-.2 2c0 .9.1 1.6.3 2.3s.5 1.2.8 1.6c.4.4.8.8 1.3 1 .5.2 1.1.3 1.7.3.7 0 1.4-.1 1.9-.4s1-.7 1.3-1.2c.3-.5.6-1 .7-1.7s.2-1.3.2-2zM930.4 68.3h2.2l.1 2.3c.4-.5.8-.9 1.2-1.2.4-.3.8-.6 1.1-.8.4-.2.8-.3 1.1-.4.4-.1.8-.1 1.2-.1 1.5 0 2.6.4 3.3 1.3.7.9 1.1 2.2 1.1 3.9v9.3h-2.5v-9.1c0-1.1-.2-1.9-.6-2.5-.4-.5-1-.8-1.9-.8-.3 0-.6 0-.9.1-.3.1-.6.2-.9.5-.3.2-.6.5-1 .9s-.8.8-1.2 1.4v9.4h-2.5V68.3zM947 68.4l1.5-1.6 9.5 7.9-9.5 7.9L947 81l7.7-6.3-7.7-6.3z"/></g></svg>