<svg xmlns="http://www.w3.org/2000/svg" viewBox="0 0 960 150"><path fill="#E44D26" d="M55.4 115.6L32 51.3l64.5-17.2 11.7 67.4-24.5 14.4-28.3-.3z"/><path fill="#F16529" d="M82.3 110.3L102 98.7 91.9 41l-26.4 7 16.8 62.3z"/><path fill="#EFEFEF" d="M127.1 67.3l3.1 10.3-23 6.4s0 13.8-11.2 19.4c-11.2 5.5-19.8.8-19.8.8l-1.4-4 16.5-4.5L95 81.5 84.4 71l-15.3 4.6-1.4-3.6s7.2-15.8 28.3-6.9c0 0 6.7 4.1 8.1 7.8l23-5.6zm2.9-.7l3.7-1.1 3 10.6-3.9 1.2-2.8-10.7z"/><path fill="#BCBCBC" d="M131.4 66.1l2.4-.5 3 10.6-3.9 1.2-1.1-3.5 1.6-.5-2-7.3zm-6.9 1.9l2.5-.6 3.1 10.3-23 6.4s-.3 12.1-8.2 17.5c-8 5.5-17 5.3-22.7 2.6l-.6-1.8s15.6 3.7 23.3-8c4.7-7.7 4.6-13.3 4.6-13.3l23.1-6.2-2.1-6.9zm-56.9 4.3L81 68.4l3.2 3-15.3 4.5-1.3-3.6z"/><path fill="#EFEFEF" d="M20 79.5L22.8 90l23.1-6.2S53 95.7 65.3 94.7c12.4-1.1 17.4-9.4 17.4-9.4l-.8-4.1-16.5 4.6L55 75.4 58.8 61l15.5-3.9-.8-3.8S59.3 43.4 45.6 62c0 0-3.6 7-3.1 10.9L20 79.5zm-2.9.9l-3.7.9 2.9 10.6 3.9-.9-3.1-10.6z"/><path fill="#BCBCBC" d="M15.7 80.6l-2.3.7L16.3 92l3.9-.9-.9-3.6-1.7.3-1.9-7.2zm6.7-1.8l-2.4.7L22.8 90l23.1-6.2s6.3 10.2 16 10.8 17.3-4.1 20.9-9.4l-.4-1.9s-11.5 11.2-24.3 5.1c-7.9-4.2-10.8-9.2-10.8-9.2l-23.1 6.4c.1.1-1.8-6.8-1.8-6.8zm51.1-25.5L60 56.8l-1.1 4.1L74.4 57l-.9-3.7z"/><g fill="#666"><path d="M182.7 54.1l4.7-23.2h5.3l-7.1 30.8h-5.1l-5.9-22.5-6 22.5h-5.1l-7.1-30.8h5.3l4.8 23.1 5.9-23.1h4.5l5.8 23.2zM205.6 62.1c-3.3 0-5.9-1-7.9-3.1s-3-4.8-3-8.2v-.6c0-2.3.4-4.3 1.3-6.1.9-1.8 2.1-3.2 3.7-4.2s3.4-1.5 5.3-1.5c3.1 0 5.5 1 7.2 3s2.5 4.8 2.5 8.4v2.1h-14.9c.2 1.9.8 3.4 1.9 4.5 1.1 1.1 2.5 1.6 4.2 1.6 2.4 0 4.3-1 5.8-2.9l2.8 2.6c-.9 1.4-2.1 2.4-3.7 3.2-1.6.8-3.3 1.2-5.2 1.2zm-.6-19.6c-1.4 0-2.5.5-3.4 1.5s-1.4 2.4-1.7 4.1h9.8v-.4c-.1-1.7-.6-3-1.4-3.9-.8-.8-1.9-1.3-3.3-1.3zM238.8 50.5c0 3.6-.8 6.4-2.4 8.5-1.6 2.1-3.8 3.2-6.5 3.2s-4.8-1-6.3-2.9l-.3 2.5h-4.7V29.2h5.1V41c1.5-1.7 3.5-2.6 6-2.6 2.8 0 5 1 6.6 3.1s2.4 5 2.4 8.7l.1.3zm-5.1-.4c0-2.5-.4-4.3-1.3-5.6-.9-1.2-2.1-1.9-3.8-1.9-2.2 0-3.8 1-4.7 2.9V55c.9 2 2.5 3 4.7 3 1.6 0 2.8-.6 3.7-1.8s1.3-3 1.4-5.4v-.7z"/></g><g fill="#666"><path d="M180.6 104.2c-.3 3.2-1.4 5.6-3.3 7.3-1.9 1.7-4.5 2.5-7.7 2.5-2.2 0-4.1-.6-5.8-1.7s-3-2.7-3.9-4.7-1.4-4.4-1.4-7v-4.8c0-2.6.5-5 1.4-7 .9-2.1 2.2-3.7 3.9-4.8 1.7-1.1 3.6-1.7 5.8-1.7 3.2 0 5.8.8 7.7 2.5s3 4.1 3.3 7.3h-1.1c-.3-2.8-1.3-5-3-6.5s-3.9-2.2-6.9-2.2-5.4 1.1-7.2 3.4-2.8 5.3-2.8 9.1v4.5c0 2.4.4 4.6 1.2 6.4.8 1.9 2 3.3 3.5 4.4 1.5 1 3.3 1.6 5.3 1.6 2.9 0 5.2-.7 6.9-2.2s2.6-3.6 2.9-6.5l1.2.1zM185.4 101.7c0-2.2.4-4.1 1.3-5.9.8-1.7 2-3.1 3.6-4.1 1.5-1 3.3-1.5 5.2-1.5s3.6.5 5.2 1.4c1.5.9 2.7 2.3 3.6 4 .9 1.7 1.3 3.7 1.3 5.9v1c0 2.2-.4 4.2-1.2 5.9-.8 1.7-2 3.1-3.5 4.1s-3.3 1.5-5.2 1.5-3.7-.5-5.2-1.4c-1.5-1-2.7-2.3-3.6-4s-1.3-3.7-1.3-5.8v-1.1h-.2zm1.1.9c0 1.9.4 3.6 1.1 5.2.8 1.6 1.8 2.8 3.1 3.7 1.3.9 2.9 1.3 4.6 1.3 2.6 0 4.7-1 6.4-2.9 1.6-2 2.5-4.5 2.5-7.6v-.7c0-1.9-.4-3.6-1.1-5.2s-1.8-2.8-3.2-3.7c-1.3-.9-2.9-1.3-4.6-1.3-2.6 0-4.7 1-6.4 3s-2.5 4.5-2.5 7.5l.1.7zM227.3 113.6h-1.1V98.3c0-2.3-.5-4-1.5-5.1s-2.6-1.7-4.7-1.7c-2.5 0-4.6 1.1-6.2 3.3-.9 1.3-1.6 2.8-1.9 4.4v14.4h-1.2V90.7h1.2v5.4c.8-1.9 1.9-3.3 3.3-4.3s3-1.5 4.8-1.5c1.9 0 3.5.4 4.7 1.3s2 2.2 2.4 4.1c.7-1.6 1.8-3 3.3-3.9 1.5-1 3.2-1.5 5.1-1.5 2.5 0 4.3.7 5.5 2.1s1.8 3.5 1.8 6.3v14.9h-1.1V98.8c0-2.5-.5-4.4-1.5-5.6s-2.6-1.8-4.7-1.8c-2.8 0-5 1.1-6.6 3.3-.9 1.3-1.4 2.5-1.5 3.6v15.3h-.1zM267.2 102.4c0 3.6-.8 6.4-2.3 8.5s-3.6 3.2-6.3 3.2c-1.7 0-3.3-.4-4.6-1.1-1.4-.7-2.4-1.7-3.2-2.9v12.3h-1.1V90.7h1.1v4.1c.8-1.5 1.9-2.6 3.2-3.3 1.3-.8 2.9-1.2 4.6-1.2 2.7 0 4.8 1 6.3 3.1s2.3 4.9 2.3 8.6v.4zm-1.1-.5c0-3.3-.7-5.9-2-7.7s-3.1-2.8-5.5-2.8c-1.9 0-3.5.5-4.9 1.5-1.3 1-2.3 2.4-2.9 4.3v10.7c.6 1.6 1.6 2.8 2.9 3.7 1.3.9 3 1.3 4.9 1.3 2.3 0 4.2-.9 5.5-2.8s2-4.6 2-8.2zM271.7 101.7c0-2.2.4-4.1 1.3-5.9.8-1.7 2-3.1 3.6-4.1 1.5-1 3.3-1.5 5.2-1.5 1.9 0 3.6.5 5.2 1.4 1.5.9 2.7 2.3 3.6 4s1.3 3.7 1.3 5.9v1c0 2.2-.4 4.2-1.2 5.9-.8 1.7-2 3.1-3.5 4.1s-3.3 1.5-5.2 1.5c-1.9 0-3.7-.5-5.2-1.4-1.5-1-2.7-2.3-3.6-4s-1.3-3.7-1.3-5.8v-1.1h-.2zm1.2.9c0 1.9.4 3.6 1.1 5.2.8 1.6 1.8 2.8 3.1 3.7 1.3.9 2.9 1.3 4.6 1.3 2.6 0 4.7-1 6.4-2.9 1.6-2 2.5-4.5 2.5-7.6v-.7c0-1.9-.4-3.6-1.1-5.2s-1.8-2.8-3.2-3.7c-1.3-.9-2.9-1.3-4.6-1.3-2.6 0-4.7 1-6.4 3s-2.5 4.5-2.5 7.5v.7h.1zM298.4 96.1c.7-1.8 1.8-3.2 3.3-4.2s3.1-1.5 4.8-1.5c2.5 0 4.3.7 5.5 2.1s1.8 3.5 1.8 6.3v14.9h-1.1v-15c0-2.5-.5-4.3-1.5-5.4-1-1.2-2.6-1.8-4.7-1.8-2 0-3.7.7-5.1 2.1s-2.4 3.2-2.9 5.4v14.6h-1.1V90.7h1.1l-.1 5.4zM329.2 114c-1.8 0-3.5-.5-5.1-1.5-1.5-1-2.8-2.4-3.6-4.1-.9-1.7-1.3-3.7-1.3-5.8v-1c0-2.1.4-4.1 1.3-5.8.8-1.8 2-3.1 3.5-4.1s3.1-1.5 4.8-1.5c2.6 0 4.6.9 6.3 2.7 1.6 1.8 2.4 4.2 2.4 7.2v1.2h-17.1v1.2c0 1.9.4 3.6 1.2 5.2s1.9 2.8 3.2 3.7c1.4.9 2.9 1.4 4.5 1.4 1.5 0 2.8-.3 3.9-.8s2-1.3 2.9-2.4l.8.6c-1.8 2.6-4.3 3.8-7.7 3.8zm-.4-22.5c-2.2 0-4.1.8-5.7 2.5s-2.5 3.8-2.7 6.3h15.9v-.3c0-1.6-.3-3-1-4.3s-1.6-2.4-2.7-3.1c-1.1-.8-2.4-1.1-3.8-1.1zM343.9 96.1c.7-1.8 1.8-3.2 3.3-4.2s3.1-1.5 4.8-1.5c2.5 0 4.3.7 5.5 2.1s1.8 3.5 1.8 6.3v14.9h-1.1v-15c0-2.5-.5-4.3-1.5-5.4-1-1.2-2.6-1.8-4.7-1.8-2 0-3.7.7-5.1 2.1s-2.4 3.2-2.9 5.4v14.6h-1.1V90.7h1.1l-.1 5.4zM369.1 84.6v6.2h5.2v1.1h-5.2v16.3c0 1.6.3 2.8.8 3.6.5.8 1.4 1.2 2.7 1.2.6 0 1.4-.1 2.3-.2l.2 1.1c-.5.2-1.3.3-2.4.3-1.7 0-2.9-.5-3.6-1.4s-1.1-2.4-1.1-4.4V91.9h-4.2v-1.1h4.2v-6.2h1.1zM394.3 108c0-2.8-2.4-4.7-7.1-5.7-2.8-.6-4.8-1.4-5.9-2.3-1.1-1-1.7-2.3-1.7-3.9 0-1.7.7-3.1 2.1-4.1 1.4-1.1 3.3-1.6 5.5-1.6 2.5 0 4.4.6 5.9 1.8s2.2 2.8 2.2 4.8h-1.2c0-1.5-.6-2.8-1.9-3.8s-3-1.5-5.1-1.5c-2 0-3.6.4-4.8 1.3-1.2.9-1.8 2-1.8 3.3 0 1 .2 1.8.7 2.4s1.1 1.1 2.1 1.6 2.4.9 4.3 1.4c1.9.4 3.4 1 4.5 1.5 1.1.6 1.9 1.3 2.4 2.1s.7 1.8.7 3c0 1.8-.7 3.3-2.2 4.4s-3.4 1.6-5.8 1.6c-2.6 0-4.6-.6-6.2-1.7s-2.4-2.7-2.4-4.5h1.1c.1 1.6.8 2.9 2.1 3.8 1.3.9 3.1 1.3 5.3 1.3 2 0 3.7-.5 5-1.4 1.6-1.3 2.2-2.4 2.2-3.8z"/></g><g fill="#594C24"><path d="M449.9 75.5c0-.9.1-1.8.4-2.5s.6-1.4 1.1-1.9 1-.9 1.7-1.2 1.4-.4 2.2-.4c.4 0 .7 0 1 .1s.7.1 1 .2v-4.7h1.9v15.6h-1.7l-.1-2.1c-.5.8-1.1 1.4-1.7 1.7-.6.4-1.3.6-2 .6-.6 0-1.2-.1-1.7-.4-.5-.3-.9-.6-1.2-1.1-.3-.5-.6-1.1-.7-1.7-.1-.6-.2-1.3-.2-2.2zm2-.1c0 1.3.2 2.3.6 3 .4.7 1 1 1.7 1 .5 0 1-.2 1.5-.7s1.1-1.1 1.7-1.9v-5.2c-.3-.1-.7-.3-1.1-.3-.4-.1-.8-.1-1.1-.1-1 0-1.9.3-2.4 1-.6.7-.9 1.8-.9 3.2zM472.6 75.2c0 .9-.1 1.7-.4 2.4-.2.7-.6 1.3-1.1 1.8-.5.5-1 .9-1.7 1.2-.7.3-1.4.4-2.2.4-.8 0-1.5-.1-2.1-.4-.6-.2-1.2-.6-1.6-1.1-.4-.5-.8-1.1-1-1.8-.2-.7-.3-1.5-.3-2.4 0-.9.1-1.7.4-2.4.2-.7.6-1.3 1.1-1.8.5-.5 1-.9 1.7-1.2.7-.3 1.4-.4 2.2-.4.8 0 1.5.1 2.1.4.6.2 1.2.6 1.6 1.1.4.5.8 1.1 1 1.8.2.7.3 1.5.3 2.4zm-2 .1c0-.7-.1-1.3-.2-1.8-.2-.5-.4-.9-.6-1.3-.3-.3-.6-.6-1-.8-.4-.2-.8-.3-1.3-.3-.6 0-1.1.1-1.5.3s-.7.5-1 .9-.5.8-.6 1.3-.2 1-.2 1.6c0 .7.1 1.3.2 1.8.2.5.4.9.6 1.3s.6.6 1 .8c.4.2.8.3 1.3.3.6 0 1.1-.1 1.5-.3.4-.2.7-.5 1-.9s.5-.8.6-1.3.2-1 .2-1.6zM484 80.4c-.5.2-1 .3-1.5.4s-1.1.1-1.6.1c-1.8 0-3.1-.5-4.1-1.4-.9-1-1.4-2.3-1.4-4.2 0-.9.1-1.7.4-2.4.3-.7.7-1.3 1.2-1.8s1.1-.9 1.8-1.2c.7-.3 1.4-.4 2.3-.4.6 0 1.1 0 1.6.1s1 .2 1.4.4v2c-.5-.3-1-.4-1.5-.5s-1-.2-1.5-.2-1 .1-1.4.3c-.4.2-.8.5-1.2.8-.3.4-.6.8-.8 1.3s-.3 1.1-.3 1.7c0 1.3.3 2.3 1 3 .7.7 1.6 1 2.7 1 .5 0 1-.1 1.5-.2s1-.3 1.4-.5v1.7zM496.8 80.9H495l-.1-1.8c-.3.4-.6.7-.9 1-.3.3-.6.5-.9.6-.3.2-.6.3-.9.3-.3.1-.6.1-.9.1-1.1 0-2-.3-2.6-1-.6-.7-.9-1.7-.9-3v-7.3h1.9v7.1c0 1.7.6 2.6 1.9 2.6.2 0 .5 0 .7-.1.2-.1.5-.2.7-.4.2-.2.5-.4.8-.7s.6-.7 1-1.1v-7.4h1.9v11.1zM508.2 80.9v-8-.9c0-.2-.1-.4-.1-.5-.1-.1-.1-.2-.2-.3-.1-.1-.2-.1-.3-.1-.1 0-.3 0-.4.1-.1.1-.3.2-.4.4-.1.2-.3.5-.5.8-.2.3-.4.7-.6 1.2v7.1h-1.8v-7.8-1c0-.3-.1-.4-.1-.6-.1-.1-.1-.2-.2-.3-.1-.1-.2-.1-.3-.1-.1 0-.3 0-.4.1l-.4.4c-.1.2-.3.5-.5.8-.2.3-.4.8-.6 1.3v7.1h-1.8V69.7h1.5l.1 2.1c.2-.4.4-.8.6-1.1s.4-.5.6-.7c.2-.2.4-.3.6-.4s.5-.1.7-.1c.6 0 1.1.2 1.4.6.3.4.5 1 .5 1.8.2-.4.3-.7.5-1s.4-.5.5-.8.4-.4.6-.5c.2-.1.5-.2.8-.2 1.4 0 2.1 1.1 2.1 3.2v8.1h-1.9zM522.1 74.7v1.2h-7.8c0 1.1.3 2 1 2.6.6.6 1.5.9 2.7.9h1c.3 0 .6-.1.9-.1.3 0 .6-.1.9-.1.3-.1.5-.1.8-.2v1.6c-.5.1-1.1.3-1.8.4-.7.1-1.3.1-2.1.1-1 0-1.8-.1-2.5-.4-.7-.3-1.2-.6-1.7-1.1-.4-.5-.8-1.1-1-1.8-.2-.7-.3-1.5-.3-2.4 0-.8.1-1.5.3-2.2.2-.7.6-1.3 1-1.8s1-.9 1.6-1.3 1.3-.5 2.1-.5 1.5.1 2.1.4c.6.2 1.1.6 1.5 1s.7 1 .9 1.6c.3.6.4 1.3.4 2.1zm-2-.3c0-.5 0-.9-.1-1.4s-.3-.8-.5-1.1-.6-.5-.9-.7c-.4-.2-.8-.2-1.3-.2-.4 0-.8.1-1.2.2s-.6.4-.9.7-.5.6-.6 1.1-.3.9-.3 1.4h5.8zM525.2 69.7h1.7l.1 1.8c.3-.4.6-.7.9-1 .3-.3.6-.5.9-.6.3-.2.6-.3.9-.3.3-.1.6-.1.9-.1 1.1 0 2 .3 2.6 1 .6.7.9 1.7.9 3v7.2h-1.9v-7.1c0-.9-.2-1.5-.5-1.9-.3-.4-.8-.6-1.4-.6-.2 0-.5 0-.7.1-.2.1-.5.2-.7.4-.2.2-.5.4-.8.7-.3.3-.6.7-1 1.1v7.4h-1.9V69.7zM546.6 80.7c-.4.1-.9.2-1.3.2-.5 0-.9.1-1.4.1-1.4 0-2.4-.3-3.1-.9-.7-.6-1-1.6-1-2.9v-5.8h-3.1v-1.6h3.1v-3.1l1.9-.5v3.6h5v1.6h-5V77c0 .8.2 1.4.6 1.8s1 .6 1.9.6c.4 0 .7 0 1.2-.1.4-.1.9-.1 1.3-.3v1.7z"/></g><g><path d="M554.5 77.4c.3 0 .5 0 .7.1.2.1.4.2.6.4.2.2.3.4.4.6.1.2.1.5.1.7 0 .3 0 .5-.1.7-.1.2-.2.4-.4.6-.2.2-.4.3-.6.4s-.5.1-.7.1c-.3 0-.5 0-.7-.1-.2-.1-.4-.2-.6-.4-.2-.2-.3-.4-.4-.6-.1-.2-.1-.5-.1-.7 0-.3 0-.5.1-.7.1-.2.2-.4.4-.6s.4-.3.6-.4c.2-.1.4-.1.7-.1zM563 69.7h1.8l.1 2c.7-.8 1.3-1.4 1.9-1.7.6-.4 1.3-.5 1.9-.5 1.2 0 2 .4 2.6 1.1s.9 1.9.8 3.3h-1.9c0-1-.1-1.7-.4-2.1s-.8-.7-1.3-.7c-.3 0-.5 0-.8.1-.3.1-.5.2-.8.4-.3.2-.6.5-.9.8-.3.3-.6.7-1 1.2v7.1h-2v-11zM584.4 74.7v1.2h-7.8c0 1.1.3 2 1 2.6s1.5.9 2.7.9h1c.3 0 .6-.1.9-.1.3 0 .6-.1.9-.1.3-.1.5-.1.8-.2v1.6c-.5.1-1.1.3-1.8.4-.7.1-1.3.1-2.1.1-1 0-1.8-.1-2.5-.4-.7-.3-1.2-.6-1.7-1.1s-.8-1.1-1-1.8c-.2-.7-.3-1.5-.3-2.4 0-.8.1-1.5.3-2.2.2-.7.6-1.3 1-1.8s1-.9 1.6-1.3c.6-.3 1.3-.5 2.1-.5s1.5.1 2.1.4c.6.2 1.1.6 1.5 1 .4.4.7 1 .9 1.6s.4 1.3.4 2.1zm-2-.3c0-.5 0-.9-.1-1.4s-.3-.8-.5-1.1-.6-.5-.9-.7c-.4-.2-.8-.2-1.3-.2-.4 0-.8.1-1.2.2s-.6.4-.9.7c-.3.3-.5.6-.6 1.1-.2.4-.3.9-.3 1.4h5.8zM595.5 71.3c.2.3.4.6.5.9.1.3.2.7.2 1.1 0 .6-.1 1.1-.3 1.6-.2.5-.5.9-.9 1.2-.4.3-.8.6-1.4.8-.5.2-1.1.3-1.8.3-.5 0-.9 0-1.3-.1s-.7-.2-1-.4c-.1.2-.3.4-.4.6s-.1.4-.1.6c0 .3.1.5.4.7.3.2.6.3 1.1.3l2.9.1c.6 0 1.1.1 1.5.2.5.1.9.3 1.2.5.3.2.6.5.8.9.2.3.3.7.3 1.2s-.1 1-.3 1.4-.5.8-1 1.2c-.4.3-1 .6-1.7.8-.7.2-1.5.3-2.4.3-.9 0-1.7-.1-2.3-.2-.6-.1-1.1-.3-1.6-.6-.4-.3-.7-.6-.9-.9s-.3-.7-.3-1.2.1-1 .4-1.4c.3-.4.6-.8 1.2-1.2-.2-.1-.4-.2-.5-.3-.1-.1-.3-.3-.3-.4-.1-.2-.2-.3-.2-.5s-.1-.3-.1-.5c0-.5.1-.9.3-1.3s.5-.8.8-1.1c-.1-.2-.3-.3-.4-.5-.1-.2-.2-.3-.3-.5-.1-.2-.1-.4-.2-.6 0-.2-.1-.5-.1-.7 0-.6.1-1.1.3-1.6s.5-.9.9-1.2c.4-.3.8-.6 1.4-.8.5-.2 1.1-.3 1.8-.3.3 0 .5 0 .8.1.3 0 .5.1.7.1h4v1.6h-1.7zm-6.7 11.2c0 .5.3.9.8 1.1.5.2 1.3.4 2.3.4.6 0 1.1-.1 1.5-.2s.8-.3 1-.4c.3-.2.4-.4.5-.6.1-.2.2-.5.2-.7 0-.5-.2-.8-.6-1s-.9-.3-1.7-.4l-2.9-.1c-.2.2-.4.3-.6.5-.2.2-.3.3-.4.5-.1.2-.2.3-.2.5.1 0 .1.2.1.4zm.6-9.1c0 .4.1.7.2 1s.3.5.5.8c.2.2.5.4.8.5.3.1.6.2 1 .2s.7-.1 1-.2c.3-.1.5-.3.8-.5.2-.2.4-.5.5-.8.1-.3.2-.6.2-.9 0-.4-.1-.7-.2-1-.1-.3-.3-.5-.5-.8-.2-.2-.5-.4-.8-.5-.3-.1-.6-.2-1-.2s-.7.1-1 .2-.5.3-.8.5c-.2.2-.4.5-.5.8-.1.3-.2.6-.2.9zM603.7 71.3h-3.3v-1.6h5.2v9.5h3.3v1.6H600v-1.6h3.7v-7.9zm.7-6.2c.2 0 .4 0 .6.1s.3.2.5.3c.1.1.2.3.3.5s.1.4.1.6c0 .2 0 .4-.1.6-.1.2-.2.3-.3.5-.1.1-.3.2-.5.3s-.4.1-.6.1-.4 0-.6-.1c-.2-.1-.3-.2-.5-.3-.1-.1-.2-.3-.3-.5-.1-.2-.1-.4-.1-.6 0-.2 0-.4.1-.6.1-.2.2-.3.3-.5.1-.1.3-.2.5-.3.2-.1.4-.1.6-.1zM621.2 77.8c0 .4-.1.7-.2 1.1-.1.3-.3.6-.5.8-.2.2-.5.4-.8.6s-.6.3-1 .4c-.3.1-.7.2-1.1.2-.4.1-.7.1-1.1.1-.8 0-1.4 0-2.1-.1s-1.2-.2-1.9-.3v-1.8c.6.2 1.3.3 1.9.4s1.3.1 1.9.1c.9 0 1.6-.1 2-.4s.7-.6.7-1.1c0-.2 0-.4-.1-.5-.1-.2-.2-.3-.4-.5-.2-.1-.5-.3-.9-.4-.4-.2-.9-.3-1.6-.5-.5-.1-1-.3-1.4-.5-.4-.2-.8-.4-1.1-.7-.3-.3-.6-.6-.7-.9-.2-.3-.3-.8-.3-1.2 0-.3.1-.6.2-1s.4-.7.7-1c.3-.3.8-.6 1.4-.8.6-.2 1.3-.3 2.2-.3.4 0 .9 0 1.4.1.5 0 1.1.1 1.7.2v1.7c-.6-.1-1.2-.3-1.7-.3-.5-.1-1-.1-1.4-.1-.5 0-.9 0-1.2.1-.3.1-.6.2-.8.3-.2.1-.3.3-.4.5-.1.2-.1.4-.1.6 0 .2 0 .4.1.5s.2.3.4.5.5.3.9.5.9.3 1.5.5c.7.2 1.2.4 1.7.6.4.2.8.4 1.1.7s.5.5.6.9c.3.2.4.6.4 1zM633.8 80.7c-.4.1-.9.2-1.3.2s-1 .1-1.5.1c-1.4 0-2.4-.3-3.1-.9s-1-1.6-1-2.9v-5.8h-3.1v-1.6h3.1v-3.1l1.9-.5v3.6h5v1.6h-5V77c0 .8.2 1.4.6 1.8s1 .6 1.9.6c.4 0 .7 0 1.2-.1.4-.1.9-.1 1.3-.3v1.7zM646.7 74.7v1.2h-7.8c0 1.1.3 2 1 2.6s1.5.9 2.7.9h1c.3 0 .6-.1.9-.1.3 0 .6-.1.9-.1.3-.1.5-.1.8-.2v1.6c-.5.1-1.1.3-1.8.4-.7.1-1.3.1-2.1.1-1 0-1.8-.1-2.5-.4-.7-.3-1.2-.6-1.7-1.1s-.8-1.1-1-1.8c-.2-.7-.3-1.5-.3-2.4 0-.8.1-1.5.3-2.2.2-.7.6-1.3 1-1.8s1-.9 1.6-1.3c.6-.3 1.3-.5 2.1-.5s1.5.1 2.1.4c.6.2 1.1.6 1.5 1 .4.4.7 1 .9 1.6s.4 1.3.4 2.1zm-2-.3c0-.5 0-.9-.1-1.4s-.3-.8-.5-1.1-.6-.5-.9-.7c-.4-.2-.8-.2-1.3-.2-.4 0-.8.1-1.2.2s-.6.4-.9.7c-.3.3-.5.6-.6 1.1-.2.4-.3.9-.3 1.4h5.8zM650.2 69.7h1.8l.1 2c.7-.8 1.3-1.4 1.9-1.7.6-.4 1.3-.5 1.9-.5 1.2 0 2 .4 2.6 1.1s.9 1.9.8 3.3h-1.9c0-1-.1-1.7-.4-2.1s-.8-.7-1.3-.7c-.3 0-.5 0-.8.1-.3.1-.5.2-.8.4-.3.2-.6.5-.9.8-.3.3-.6.7-1 1.2v7.1h-1.9v-11zM670.9 80.9h-8.2V66.4h8.2v1.7h-6.2v4.5h6v1.7h-6v5h6.2v1.6zM678.5 66.8h-3.3v-1.6h5.2v14h3.3v1.6h-8.9v-1.6h3.7V66.8zM696.5 74.7v1.2h-7.8c0 1.1.3 2 1 2.6.6.6 1.5.9 2.7.9h1c.3 0 .6-.1.9-.1.3 0 .6-.1.9-.1.3-.1.5-.1.8-.2v1.6c-.5.1-1.1.3-1.8.4-.7.1-1.3.1-2.1.1-1 0-1.8-.1-2.5-.4-.7-.3-1.2-.6-1.7-1.1-.4-.5-.8-1.1-1-1.8-.2-.7-.3-1.5-.3-2.4 0-.8.1-1.5.3-2.2.2-.7.6-1.3 1-1.8s1-.9 1.6-1.3 1.3-.5 2.1-.5 1.5.1 2.1.4c.6.2 1.1.6 1.5 1s.7 1 .9 1.6c.3.6.4 1.3.4 2.1zm-2-.3c0-.5 0-.9-.1-1.4s-.3-.8-.5-1.1-.6-.5-.9-.7c-.4-.2-.8-.2-1.3-.2-.4 0-.8.1-1.2.2s-.6.4-.9.7-.5.6-.6 1.1-.3.9-.3 1.4h5.8zM707.5 80.9v-8-.9c0-.2-.1-.4-.1-.5-.1-.1-.1-.2-.2-.3-.1-.1-.2-.1-.3-.1-.1 0-.3 0-.4.1-.1.1-.3.2-.4.4-.1.2-.3.5-.5.8-.2.3-.4.7-.6 1.2v7.1h-1.8v-7.8-1c0-.3-.1-.4-.1-.6-.1-.1-.1-.2-.2-.3-.1-.1-.2-.1-.3-.1-.1 0-.3 0-.4.1l-.4.4c-.1.2-.3.5-.5.8-.2.3-.4.8-.6 1.3v7.1h-1.8V69.7h1.5l.1 2.1c.2-.4.4-.8.6-1.1s.4-.5.6-.7c.2-.2.4-.3.6-.4s.5-.1.7-.1c.6 0 1.1.2 1.4.6.3.4.5 1 .5 1.8.2-.4.3-.7.5-1s.4-.5.5-.8.4-.4.6-.5c.2-.1.5-.2.8-.2 1.4 0 2.1 1.1 2.1 3.2v8.1h-1.9zM721.4 74.7v1.2h-7.8c0 1.1.3 2 1 2.6.6.6 1.5.9 2.7.9h1c.3 0 .6-.1.9-.1.3 0 .6-.1.9-.1.3-.1.5-.1.8-.2v1.6c-.5.1-1.1.3-1.8.4-.7.1-1.3.1-2.1.1-1 0-1.8-.1-2.5-.4-.7-.3-1.2-.6-1.7-1.1-.4-.5-.8-1.1-1-1.8-.2-.7-.3-1.5-.3-2.4 0-.8.1-1.5.3-2.2.2-.7.6-1.3 1-1.8s1-.9 1.6-1.3 1.3-.5 2.1-.5 1.5.1 2.1.4c.6.2 1.1.6 1.5 1s.7 1 .9 1.6c.3.6.4 1.3.4 2.1zm-2-.3c0-.5 0-.9-.1-1.4s-.3-.8-.5-1.1-.6-.5-.9-.7c-.4-.2-.8-.2-1.3-.2-.4 0-.8.1-1.2.2s-.6.4-.9.7-.5.6-.6 1.1-.3.9-.3 1.4h5.8zM724.5 69.7h1.7l.1 1.8c.3-.4.6-.7.9-1 .3-.3.6-.5.9-.6.3-.2.6-.3.9-.3.3-.1.6-.1.9-.1 1.1 0 2 .3 2.6 1 .6.7.9 1.7.9 3v7.2h-1.9v-7.1c0-.9-.2-1.5-.5-1.9-.3-.4-.8-.6-1.4-.6-.2 0-.5 0-.7.1-.2.1-.5.2-.7.4-.2.2-.5.4-.8.7-.3.3-.6.7-1 1.1v7.4h-1.9V69.7zM745.9 80.7c-.4.1-.9.2-1.3.2-.5 0-.9.1-1.4.1-1.4 0-2.4-.3-3.1-.9-.7-.6-1-1.6-1-2.9v-5.8H736v-1.6h3.1v-3.1l1.9-.5v3.6h5v1.6h-5V77c0 .8.2 1.4.6 1.8s1 .6 1.9.6c.4 0 .7 0 1.2-.1.4-.1.9-.1 1.3-.3v1.7zM756.1 85.5c-3.4-3.1-5.1-6.6-5.1-10.4 0-.9.1-1.8.3-2.7s.5-1.8.9-2.7.9-1.8 1.6-2.7 1.5-1.8 2.4-2.7l1.1 1.1c-2.9 2.8-4.3 6-4.3 9.4 0 1.7.4 3.4 1.1 4.9s1.8 3.1 3.2 4.5l-1.2 1.3z"/></g><g fill="#E6845C"><path d="M769.9 66.6c-.4 0-.7 0-1.1.1-.4.1-.7.2-.9.3-.3.2-.5.4-.6.6-.2.2-.2.5-.2.8s.1.6.2.7c.1.2.2.4.4.5s.3.3.4.5c.1.2.2.4.2.7 0 .2 0 .3-.1.5s-.1.3-.3.5c-.1.1-.3.3-.5.3-.2.1-.4.1-.7.1-.3 0-.5-.1-.8-.2-.2-.1-.4-.3-.6-.5-.2-.2-.3-.5-.4-.8-.1-.3-.2-.7-.2-1.2 0-.6.1-1.2.3-1.8.2-.6.6-1.1 1-1.5.4-.4 1-.8 1.7-1 .7-.3 1.4-.4 2.3-.4v1.8zM783.1 77.8c0 .4-.1.7-.2 1.1-.1.3-.3.6-.5.8-.2.2-.5.4-.8.6-.3.2-.6.3-1 .4-.3.1-.7.2-1.1.2-.4.1-.7.1-1.1.1-.8 0-1.4 0-2.1-.1-.6-.1-1.2-.2-1.9-.3v-1.8c.6.2 1.3.3 1.9.4s1.3.1 1.9.1c.9 0 1.6-.1 2-.4.4-.3.7-.6.7-1.1 0-.2 0-.4-.1-.5-.1-.2-.2-.3-.4-.5-.2-.1-.5-.3-.9-.4-.4-.2-.9-.3-1.6-.5-.5-.1-1-.3-1.4-.5-.4-.2-.8-.4-1.1-.7-.3-.3-.6-.6-.7-.9-.2-.3-.3-.8-.3-1.2 0-.3.1-.6.2-1s.4-.7.7-1c.3-.3.8-.6 1.4-.8s1.3-.3 2.2-.3c.4 0 .9 0 1.4.1.5 0 1.1.1 1.7.2v1.7c-.6-.1-1.2-.3-1.7-.3s-1-.1-1.4-.1c-.5 0-.9 0-1.2.1-.3.1-.6.2-.8.3s-.3.3-.4.5c-.1.2-.1.4-.1.6 0 .2 0 .4.1.5.1.2.2.3.4.5s.5.3.9.5.9.3 1.5.5c.7.2 1.2.4 1.7.6.5.2.8.4 1.1.7s.5.5.6.9.4.6.4 1zM795.7 80.9H794l-.1-1.8c-.3.4-.6.7-.9 1-.3.3-.6.5-.9.6-.3.2-.6.3-.9.3-.3.1-.6.1-.9.1-1.1 0-2-.3-2.6-1-.6-.7-.9-1.7-.9-3v-7.3h1.9v7.1c0 1.7.6 2.6 1.9 2.6.2 0 .5 0 .7-.1.2-.1.5-.2.7-.4.2-.2.5-.4.8-.7s.6-.7 1-1.1v-7.4h1.9v11.1zM808.7 75.1c0 1-.1 1.9-.4 2.6s-.7 1.3-1.1 1.8c-.5.5-1.1.9-1.7 1.1-.7.2-1.4.4-2.2.4-.4 0-.7 0-1.1-.1s-.7-.1-1.1-.2v4.6h-1.9V69.7h1.7l.1 1.9c.6-.8 1.1-1.3 1.8-1.6.6-.3 1.3-.5 2-.5.6 0 1.2.1 1.7.4s.9.6 1.2 1.1c.3.5.6 1.1.7 1.7.2.8.3 1.6.3 2.4zm-2 .1c0-.6 0-1.1-.1-1.6s-.2-.9-.4-1.3c-.2-.3-.4-.6-.7-.8-.3-.2-.6-.3-1-.3-.2 0-.5 0-.7.1-.3.1-.5.2-.8.4-.3.2-.6.4-.9.7s-.6.7-1 1.1V79c.4.1.7.3 1.1.3.4.1.8.1 1.2.1 1 0 1.9-.4 2.4-1.1s.9-1.7.9-3.1zM821.1 74.7v1.2h-7.8c0 1.1.3 2 1 2.6.6.6 1.5.9 2.7.9h1c.3 0 .6-.1.9-.1.3 0 .6-.1.9-.1.3-.1.5-.1.8-.2v1.6c-.5.1-1.1.3-1.8.4-.7.1-1.3.1-2.1.1-1 0-1.8-.1-2.5-.4-.7-.3-1.2-.6-1.7-1.1-.4-.5-.8-1.1-1-1.8-.2-.7-.3-1.5-.3-2.4 0-.8.1-1.5.3-2.2.2-.7.6-1.3 1-1.8s1-.9 1.6-1.3 1.3-.5 2.1-.5 1.5.1 2.1.4c.6.2 1.1.6 1.5 1s.7 1 .9 1.6c.2.6.4 1.3.4 2.1zm-2-.3c0-.5 0-.9-.1-1.4s-.3-.8-.5-1.1-.6-.5-.9-.7c-.4-.2-.8-.2-1.3-.2-.4 0-.8.1-1.2.2s-.6.4-.9.7-.5.6-.6 1.1-.3.9-.3 1.4h5.8zM824.6 69.7h1.8l.1 2c.7-.8 1.3-1.4 1.9-1.7.6-.4 1.3-.5 1.9-.5 1.2 0 2 .4 2.6 1.1s.9 1.9.8 3.3h-1.9c0-1-.1-1.7-.4-2.1-.3-.4-.8-.7-1.3-.7-.3 0-.5 0-.8.1-.3.1-.5.2-.8.4-.3.2-.6.5-.9.8-.3.3-.6.7-1 1.2v7.1h-1.9v-11zM844.3 75.7h-6.6v-1.8h6.6v1.8zM858.5 75.1c0 .9-.1 1.7-.4 2.5-.3.7-.6 1.3-1.1 1.8-.5.5-1 .9-1.7 1.2-.7.3-1.4.4-2.3.4-.7 0-1.3-.1-2-.2s-1.4-.3-2-.6v-15h1.9v4.3l-.1 2.1c.6-.7 1.1-1.3 1.8-1.6.6-.3 1.3-.5 2-.5.6 0 1.2.1 1.7.4s.9.6 1.2 1.1c.3.5.6 1.1.7 1.7.2.8.3 1.6.3 2.4zm-1.9.1c0-.6 0-1.1-.1-1.6s-.2-.9-.4-1.3c-.2-.3-.4-.6-.7-.8-.3-.2-.6-.3-1-.3-.2 0-.5 0-.7.1-.3.1-.5.2-.8.4-.3.2-.6.4-.9.7s-.6.7-1 1.1V79c.4.1.8.3 1.2.3.4.1.8.1 1.1.1.4 0 .9-.1 1.3-.2s.8-.4 1.1-.7.5-.8.7-1.3.2-1.2.2-2zM870.4 80.9h-1.7l-.1-1.8c-.3.4-.6.7-.9 1-.3.3-.6.5-.9.6-.3.2-.6.3-.9.3-.3.1-.6.1-.9.1-1.1 0-2-.3-2.6-1-.6-.7-.9-1.7-.9-3v-7.3h1.9v7.1c0 1.7.6 2.6 1.9 2.6.2 0 .5 0 .7-.1.2-.1.5-.2.7-.4.2-.2.5-.4.8-.7s.6-.7 1-1.1v-7.4h1.9v11.1zM882.9 80.7c-.4.1-.9.2-1.3.2s-.9.1-1.4.1c-1.4 0-2.4-.3-3.1-.9s-1-1.6-1-2.9v-5.8H873v-1.6h3.1v-3.1l1.9-.5v3.6h5v1.6h-5V77c0 .8.2 1.4.6 1.8s1 .6 1.9.6c.4 0 .7 0 1.2-.1.4-.1.9-.1 1.3-.3v1.7zM895.4 80.7c-.4.1-.9.2-1.3.2s-.9.1-1.4.1c-1.4 0-2.4-.3-3.1-.9s-1-1.6-1-2.9v-5.8h-3.1v-1.6h3.1v-3.1l1.9-.5v3.6h5v1.6h-5V77c0 .8.2 1.4.6 1.8s1 .6 1.9.6c.4 0 .7 0 1.2-.1.4-.1.9-.1 1.3-.3v1.7zM908.5 75.2c0 .9-.1 1.7-.4 2.4-.2.7-.6 1.3-1.1 1.8-.5.5-1 .9-1.7 1.2-.7.3-1.4.4-2.2.4-.8 0-1.5-.1-2.1-.4-.6-.2-1.2-.6-1.6-1.1s-.8-1.1-1-1.8-.3-1.5-.3-2.4c0-.9.1-1.7.4-2.4.2-.7.6-1.3 1.1-1.8.5-.5 1-.9 1.7-1.2.7-.3 1.4-.4 2.2-.4.8 0 1.5.1 2.1.4.6.2 1.2.6 1.6 1.1.4.5.8 1.1 1 1.8.2.7.3 1.5.3 2.4zm-1.9.1c0-.7-.1-1.3-.2-1.8-.2-.5-.4-.9-.6-1.3-.3-.3-.6-.6-1-.8-.4-.2-.8-.3-1.3-.3-.6 0-1.1.1-1.5.3s-.7.5-1 .9-.5.8-.6 1.3c-.1.5-.2 1-.2 1.6 0 .7.1 1.3.2 1.8.2.5.4.9.6 1.3s.6.6 1 .8c.4.2.8.3 1.3.3.6 0 1.1-.1 1.5-.3.4-.2.7-.5 1-.9s.5-.8.6-1.3c.1-.5.2-1 .2-1.6zM911.3 69.7h1.7l.1 1.8c.3-.4.6-.7.9-1 .3-.3.6-.5.9-.6.3-.2.6-.3.9-.3.3-.1.6-.1.9-.1 1.1 0 2 .3 2.6 1s.9 1.7.9 3v7.2h-1.9v-7.1c0-.9-.2-1.5-.5-1.9s-.8-.6-1.4-.6c-.2 0-.5 0-.7.1-.2.1-.5.2-.7.4-.2.2-.5.4-.8.7s-.6.7-1 1.1v7.4h-1.9V69.7zM924.6 70.9c.4 0 .7 0 1.1-.1.4-.1.7-.2.9-.4.3-.2.5-.4.6-.6.2-.2.2-.5.2-.8s-.1-.6-.2-.8-.2-.4-.4-.5c-.1-.2-.3-.3-.4-.5-.1-.2-.2-.4-.2-.7 0-.2 0-.3.1-.5s.1-.3.3-.5c.1-.1.3-.3.5-.3.2-.1.4-.1.7-.1.3 0 .5.1.7.2.2.1.5.3.6.5s.3.5.4.8c.1.3.2.7.2 1.2 0 .6-.1 1.2-.3 1.8-.2.6-.6 1.1-1 1.5-.4.4-1 .8-1.7 1-.7.3-1.4.4-2.3.4v-1.6z"/></g><g><path d="M938.5 64.4c3.4 3.1 5.1 6.7 5.1 10.5 0 .8-.1 1.6-.2 2.5s-.4 1.7-.8 2.6c-.4.9-.9 1.8-1.6 2.7-.7.9-1.5 1.8-2.5 2.8l-1.1-1.1c1.4-1.4 2.5-2.9 3.2-4.5s1.1-3.2 1.1-4.9c0-3.5-1.4-6.7-4.3-9.5l1.1-1.1zM949.6 83.1c.4 0 .7 0 1.1-.1.4-.1.7-.2.9-.4.3-.2.5-.4.6-.6s.2-.5.2-.8c0-.3-.1-.6-.2-.8-.1-.2-.2-.4-.4-.5s-.3-.3-.4-.5c-.1-.2-.2-.4-.2-.7 0-.2 0-.3.1-.5s.1-.3.3-.5c.1-.1.3-.3.5-.3.2-.1.4-.1.7-.1.3 0 .5.1.7.2.2.1.5.3.6.5.2.2.3.5.4.8.1.3.2.7.2 1.2 0 .6-.1 1.2-.3 1.8-.2.6-.6 1.1-1 1.5-.4.4-1 .8-1.7 1-.7.3-1.4.4-2.3.4v-1.6zm3.5-13.6c.2 0 .4 0 .7.1.2.1.4.2.5.4.2.2.3.3.4.5.1.2.1.4.1.7 0 .2 0 .5-.1.7-.1.2-.2.4-.4.5-.2.2-.3.3-.5.4-.2.1-.4.1-.7.1-.2 0-.5 0-.7-.1-.2-.1-.4-.2-.5-.4-.2-.2-.3-.3-.4-.5-.1-.2-.1-.4-.1-.7 0-.2 0-.4.1-.7.1-.2.2-.4.4-.5s.3-.3.5-.4c.3 0 .5-.1.7-.1z"/></g></svg>