<?xml version="1.0" encoding="utf-8"?>
<!-- Generator: Adobe Illustrator 18.0.0, SVG Export Plug-In . SVG Version: 6.00 Build 0)  -->
<!DOCTYPE svg PUBLIC "-//W3C//DTD SVG 1.1//EN" "http://www.w3.org/Graphics/SVG/1.1/DTD/svg11.dtd">
<svg version="1.1" id="Calque_1" xmlns="http://www.w3.org/2000/svg" xmlns:xlink="http://www.w3.org/1999/xlink" x="0px" y="0px"
	 viewBox="0 0 960 150" enable-background="new 0 0 960 150" xml:space="preserve">
<symbol  id="polymer-logo--lockup" viewBox="-84 -20 168 40">
	<g>
		<g>
			<path fill="#666666" d="M-14.2,0.8c0-2.6-0.6-4.6-1.7-6.2s-2.7-2.3-4.8-2.3c-1.1,0-2,0.2-2.8,0.5s-1.5,0.8-2.1,1.5v-8.1h-2.9V9.4
				h2.5l0.2-1.9c0.6,0.7,1.3,1.3,2.1,1.7c0.8,0.4,1.8,0.6,2.8,0.6c2.1,0,3.7-0.8,4.9-2.3c1.1-1.5,1.7-3.6,1.7-6.3L-14.2,0.8
				L-14.2,0.8z M-17,1.2c0,1.8-0.4,3.3-1.1,4.4c-0.8,1.1-1.9,1.7-3.4,1.7c-0.9,0-1.7-0.2-2.4-0.6c-0.6-0.4-1.2-1-1.5-1.7v-8
				c0.4-0.7,0.9-1.3,1.6-1.7c0.6-0.4,1.4-0.6,2.4-0.6c1.5,0,2.6,0.6,3.4,1.7c0.6,1.1,1,2.6,1,4.4V1.2z"/>
			<path fill="#666666" d="M-11.7,1.2c0,2.5,0.7,4.6,2.1,6.2C-8.2,8.9-6.4,9.7-4,9.7s4.2-0.8,5.6-2.4C3,5.8,3.7,3.7,3.7,1.2V0.8
				c0-2.5-0.7-4.6-2.1-6.2C0.2-6.9-1.6-7.7-4-7.7s-4.2,0.8-5.6,2.4s-2.1,3.6-2.1,6.2L-11.7,1.2L-11.7,1.2z M-8.8,0.8
				c0-1.8,0.4-3.3,1.2-4.5s2-1.7,3.6-1.7c1.5,0,2.7,0.6,3.5,1.7S0.8-1,0.8,0.8v0.3c0,1.8-0.4,3.3-1.2,4.4s-2,1.8-3.6,1.8
				c-1.5,0-2.7-0.6-3.5-1.8S-8.8,3-8.8,1.2V0.8L-8.8,0.8z"/>
			<path fill="#666666" d="M9.5-7.4H6.7v24.3h2.9V-7.4H9.5z"/>
			<path fill="#666666" d="M18.8-1.8l0.3-1.1l4,12.3h3.2L19.5-10c-0.4-1.1-1-2.1-1.8-3c-0.8-0.8-1.8-1.2-3.2-1.2
				c-0.2,0-0.4,0-0.7,0.1c-0.3,0-0.6,0.1-0.9,0.2v2.3c0.1,0,0.2,0,0.4,0s0.3,0,0.4,0c1,0,1.7,0.2,2.2,0.6c0.5,0.4,0.9,1.1,1.3,2.2
				l0.7,2l-6,16.2h3.2L18.8-1.8z"/>
			<path fill="#666666" d="M31.1,9.4l0.2-1.9c0.6,0.7,1.3,1.3,2.1,1.7c0.8,0.4,1.8,0.6,2.9,0.6c1.1,0,2.1-0.2,2.9-0.7
				c0.8-0.5,1.4-1.2,1.9-2.2c0.6,0.9,1.3,1.6,2.2,2.2c0.9,0.5,1.9,0.8,3.1,0.8c1.8,0,3.1-0.6,4.1-1.7C51.5,7,52,5.3,52,2.9V-7.4
				h-2.9V2.7c0,1.7-0.3,2.9-0.9,3.5c-0.6,0.7-1.5,1-2.7,1c-1.1,0-2-0.4-2.7-1.1c-0.7-0.8-1.1-1.7-1.2-2.8V-7.4h-2.9V2.8
				c0,1.6-0.3,2.8-0.9,3.5c-0.6,0.7-1.5,1.1-2.7,1.1c-1,0-1.8-0.2-2.4-0.6s-1.1-1-1.4-1.8V-7.4h-2.9V9.4H31.1L31.1,9.4z"/>
			<path fill="#666666" d="M62.5-7.7c-2.4,0-4.2,0.7-5.6,2.2S54.8-2,54.8,0.4v0.7c0,2.7,0.7,4.8,2.1,6.3s3.2,2.3,5.2,2.3
				c2.3,0,4.1-0.7,5.2-2.2C68.5,6,69,4,69,1.5V0.2H57.6c0-1.6,0.5-3,1.4-4s2.1-1.6,3.6-1.6c1,0,1.8,0.2,2.5,0.6s1.3,1,1.9,1.7
				l1.8-1.4c-0.6-1-1.5-1.8-2.5-2.4C65.3-7.4,64-7.7,62.5-7.7z M62.1,7.4c-1.2,0-2.2-0.4-2.9-1.2c-0.8-0.8-1.3-2-1.4-3.6h8.4v0.2
				c-0.1,1.3-0.5,2.4-1.1,3.3C64.5,6.9,63.5,7.4,62.1,7.4z"/>
			<path fill="#666666" d="M80.3,6.9C80,6.9,79.8,7,79.6,7s-0.4,0-0.7,0c-1,0-1.8-0.2-2.4-0.6s-1.1-1-1.4-1.8v-12h-2.9V9.4h2.7
				l0.2-1.9c0.5,0.7,1.1,1.3,1.7,1.6c0.7,0.4,1.4,0.6,2.3,0.6c0.2,0,0.4,0,0.7-0.1s0.5-0.1,0.6-0.1L80.3,6.9L80.3,6.9z"/>
		</g>
	</g>
	<g>
		<g>
			<polygon fill="#303F9F" points="-71.9,0 -75.9,-6.9 -71.9,-13.8 -67.9,-6.9 			"/>
			<polygon fill="#3F51B5" points="-48.1,13.8 -52.1,6.9 -48.1,0 -44.1,6.9 			"/>
			<polygon fill="#7986CB" points="-44.1,6.9 -56,-13.8 -48.1,-13.8 -40.2,0 			"/>
			<polygon fill="#FF4081" points="-56,13.8 -71.9,-13.8 -64,-13.8 -48.1,13.8 			"/>
			<polygon fill="#536DFE" points="-71.9,13.8 -79.8,0 -75.9,-6.9 -64,13.8 			"/>
			<polygon fill="#FFFFFF" fill-opacity="0.2" points="-56,13.8 -52.1,6.9 -48.1,13.8 			"/>
			<polygon fill="#FFFFFF" fill-opacity="0.1" points="-60,6.9 -56,13.8 -52.1,6.9 			"/>
			<polygon fill="#FFFFFF" fill-opacity="0" points="-60,6.9 -56,0 -52.1,6.9 			"/>
			<polygon fill-opacity="0.1" points="-64,0 -60,6.9 -56,0 			"/>
			<polygon fill-opacity="0.2" points="-64,0 -60,-6.9 -56,0 			"/>
			<polygon fill-opacity="0.3" points="-67.9,-6.9 -64,0 -60,-6.9 			"/>
			<polygon fill-opacity="0.4" points="-67.9,-6.9 -64,-13.8 -60,-6.9 			"/>
			<polygon fill-opacity="0.5" points="-71.9,-13.8 -67.9,-6.9 -64,-13.8 			"/>
			<polygon fill="#FFFFFF" fill-opacity="0.2" points="-71.9,13.8 -67.9,6.9 -64,13.8 			"/>
			<polygon fill="#FFFFFF" fill-opacity="0.1" points="-75.9,6.9 -71.9,13.8 -67.9,6.9 			"/>
			<polygon fill="#FFFFFF" fill-opacity="0" points="-75.9,6.9 -71.9,0 -67.9,6.9 			"/>
			<polygon fill-opacity="0.1" points="-79.8,0 -75.9,6.9 -71.9,0 			"/>
			<polygon fill-opacity="0.2" points="-79.8,0 -75.9,-6.9 -71.9,0 			"/>
			<polygon fill="#FFFFFF" fill-opacity="0" points="-67.9,-6.9 -71.9,0 -75.9,-6.9 			"/>
			<polygon fill-opacity="0.2" points="-67.9,-6.9 -71.9,-13.8 -75.9,-6.9 			"/>
			<polygon fill-opacity="0.2" points="-44.1,6.9 -48.1,13.8 -52.1,6.9 			"/>
			<polygon fill="#FFFFFF" fill-opacity="0" points="-44.1,6.9 -48.1,0 -52.1,6.9 			"/>
			<g>
				<polygon fill="#FFFFFF" fill-opacity="0.2" points="-48.1,0 -44.1,6.9 -40.2,0 				"/>
				<polygon fill="#FFFFFF" fill-opacity="0.1" points="-48.1,0 -44.1,-6.9 -40.2,0 				"/>
				<polygon fill="#FFFFFF" fill-opacity="0" points="-52.1,-6.9 -48.1,0 -44.1,-6.9 				"/>
				<polygon fill-opacity="0.1" points="-52.1,-6.9 -48.1,-13.8 -44.1,-6.9 				"/>
				<polygon fill-opacity="0.2" points="-56,-13.8 -52.1,-6.9 -48.1,-13.8 				"/>
			</g>
		</g>
		<polygon fill="none" points="-40,-20 -80,-20 -80,20 -40,20 		"/>
	</g>
	<polygon fill="none" points="84,-20 -84,-20 -84,20 84,20 	"/>
</symbol>
<g>
	
		<use xlink:href="#polymer-logo--lockup"  width="168" height="40" x="-84" y="-20" transform="matrix(2.3015 0 0 -2.3015 206.6755 75)" overflow="visible"/>
	<g enable-background="new    ">
		<path fill="#7A8FCC" d="M463.8,44.5l-1.6,1.7l-10.1-8.5l10.1-8.5l1.6,1.7l-8.2,6.8L463.8,44.5z"/>
		<path fill="#7A8FCC" d="M468.6,38.7c0-1.3,0.2-2.4,0.5-3.4c0.4-1,0.9-1.8,1.5-2.5c0.6-0.7,1.4-1.2,2.3-1.6c0.9-0.4,1.9-0.5,3-0.5
			c0.5,0,1,0,1.4,0.1s0.9,0.2,1.4,0.3v-6.4h2.6v21.3h-2.4l-0.1-2.9c-0.7,1.1-1.5,1.9-2.4,2.4c-0.9,0.5-1.8,0.8-2.8,0.8
			c-0.9,0-1.6-0.2-2.3-0.5c-0.7-0.4-1.2-0.9-1.6-1.5c-0.4-0.7-0.8-1.4-1-2.4C468.7,40.8,468.6,39.8,468.6,38.7z M471.3,38.5
			c0,1.8,0.3,3.2,0.8,4.1c0.5,0.9,1.3,1.3,2.3,1.3c0.7,0,1.4-0.3,2.1-0.9c0.7-0.6,1.5-1.5,2.3-2.6v-7c-0.4-0.2-0.9-0.4-1.4-0.5
			s-1-0.2-1.6-0.2c-1.4,0-2.5,0.5-3.3,1.4C471.7,35.1,471.3,36.5,471.3,38.5z"/>
		<path fill="#7A8FCC" d="M499.5,38.2c0,1.2-0.2,2.3-0.5,3.2c-0.3,1-0.8,1.8-1.4,2.5c-0.6,0.7-1.4,1.2-2.3,1.6
			c-0.9,0.4-1.9,0.6-3,0.6c-1.1,0-2.1-0.2-2.9-0.5c-0.9-0.3-1.6-0.8-2.2-1.5s-1.1-1.5-1.4-2.4s-0.5-2.1-0.5-3.3
			c0-1.2,0.2-2.2,0.5-3.2c0.3-1,0.8-1.8,1.4-2.5c0.6-0.7,1.4-1.2,2.3-1.6s1.9-0.6,3-0.6c1.1,0,2.1,0.2,2.9,0.5s1.6,0.8,2.2,1.5
			s1.1,1.5,1.4,2.4C499.4,35.9,499.5,37,499.5,38.2z M496.9,38.4c0-0.9-0.1-1.8-0.3-2.5c-0.2-0.7-0.5-1.3-0.9-1.7
			c-0.4-0.5-0.8-0.8-1.4-1.1c-0.5-0.2-1.2-0.4-1.8-0.4c-0.8,0-1.5,0.2-2,0.5c-0.6,0.3-1,0.7-1.4,1.2c-0.4,0.5-0.6,1.1-0.8,1.8
			c-0.2,0.7-0.2,1.4-0.2,2.1c0,0.9,0.1,1.8,0.3,2.5c0.2,0.7,0.5,1.3,0.9,1.8c0.4,0.5,0.8,0.8,1.4,1.1s1.2,0.4,1.8,0.4
			c0.8,0,1.5-0.2,2-0.5c0.6-0.3,1-0.7,1.4-1.2c0.4-0.5,0.6-1.1,0.8-1.8S496.9,39.1,496.9,38.4z"/>
		<path fill="#7A8FCC" d="M514.1,45.9V35.1c0-0.5,0-0.9-0.1-1.2s-0.1-0.5-0.2-0.7c-0.1-0.2-0.2-0.3-0.3-0.4
			c-0.1-0.1-0.3-0.1-0.4-0.1c-0.2,0-0.4,0.1-0.6,0.2c-0.2,0.1-0.4,0.3-0.6,0.6c-0.2,0.3-0.4,0.6-0.6,1.1s-0.5,1-0.8,1.7v9.7h-2.4
			V35.3c0-0.6,0-1-0.1-1.3s-0.1-0.6-0.2-0.8c-0.1-0.2-0.2-0.3-0.3-0.4c-0.1-0.1-0.3-0.1-0.4-0.1c-0.2,0-0.4,0.1-0.5,0.2
			s-0.3,0.3-0.5,0.5c-0.2,0.3-0.4,0.6-0.7,1.1s-0.5,1-0.9,1.7v9.7h-2.4V30.8h2l0.1,2.9c0.3-0.6,0.5-1.1,0.8-1.5
			c0.2-0.4,0.5-0.7,0.8-1s0.5-0.4,0.8-0.5c0.3-0.1,0.6-0.2,1-0.2c0.8,0,1.4,0.3,1.9,0.8c0.4,0.5,0.6,1.4,0.6,2.5
			c0.2-0.5,0.5-1,0.7-1.4c0.2-0.4,0.5-0.7,0.7-1c0.3-0.3,0.6-0.5,0.9-0.6c0.3-0.1,0.7-0.2,1.1-0.2c1.9,0,2.8,1.5,2.8,4.4v11H514.1z"
			/>
		<path fill="#7A8FCC" d="M530.9,38.9h-9v-2.5h9V38.9z"/>
		<path fill="#7A8FCC" d="M548.1,45.9V35.1c0-0.5,0-0.9-0.1-1.2s-0.1-0.5-0.2-0.7c-0.1-0.2-0.2-0.3-0.3-0.4
			c-0.1-0.1-0.3-0.1-0.4-0.1c-0.2,0-0.4,0.1-0.6,0.2c-0.2,0.1-0.4,0.3-0.6,0.6c-0.2,0.3-0.4,0.6-0.6,1.1s-0.5,1-0.8,1.7v9.7h-2.4
			V35.3c0-0.6,0-1-0.1-1.3s-0.1-0.6-0.2-0.8c-0.1-0.2-0.2-0.3-0.3-0.4c-0.1-0.1-0.3-0.1-0.4-0.1c-0.2,0-0.4,0.1-0.5,0.2
			s-0.3,0.3-0.5,0.5c-0.2,0.3-0.4,0.6-0.7,1.1s-0.5,1-0.9,1.7v9.7h-2.4V30.8h2l0.1,2.9c0.3-0.6,0.5-1.1,0.8-1.5
			c0.2-0.4,0.5-0.7,0.8-1s0.5-0.4,0.8-0.5c0.3-0.1,0.6-0.2,1-0.2c0.8,0,1.4,0.3,1.9,0.8c0.4,0.5,0.6,1.4,0.6,2.5
			c0.2-0.5,0.5-1,0.7-1.4c0.2-0.4,0.5-0.7,0.7-1c0.3-0.3,0.6-0.5,0.9-0.6c0.3-0.1,0.7-0.2,1.1-0.2c1.9,0,2.8,1.5,2.8,4.4v11H548.1z"
			/>
		<path fill="#7A8FCC" d="M567.4,38.2c0,1.2-0.2,2.3-0.5,3.2c-0.3,1-0.8,1.8-1.4,2.5c-0.6,0.7-1.4,1.2-2.3,1.6
			c-0.9,0.4-1.9,0.6-3,0.6c-1.1,0-2.1-0.2-2.9-0.5c-0.9-0.3-1.6-0.8-2.2-1.5c-0.6-0.7-1.1-1.5-1.4-2.4s-0.5-2.1-0.5-3.3
			c0-1.2,0.2-2.2,0.5-3.2c0.3-1,0.8-1.8,1.4-2.5c0.6-0.7,1.4-1.2,2.3-1.6s1.9-0.6,3-0.6c1.1,0,2.1,0.2,2.9,0.5s1.6,0.8,2.2,1.5
			c0.6,0.6,1.1,1.5,1.4,2.4S567.4,37,567.4,38.2z M564.8,38.4c0-0.9-0.1-1.8-0.3-2.5c-0.2-0.7-0.5-1.3-0.9-1.7
			c-0.4-0.5-0.8-0.8-1.4-1.1c-0.5-0.2-1.2-0.4-1.8-0.4c-0.8,0-1.5,0.2-2,0.5c-0.6,0.3-1,0.7-1.4,1.2s-0.6,1.1-0.8,1.8
			c-0.2,0.7-0.2,1.4-0.2,2.1c0,0.9,0.1,1.8,0.3,2.5c0.2,0.7,0.5,1.3,0.9,1.8s0.8,0.8,1.4,1.1c0.5,0.2,1.2,0.4,1.8,0.4
			c0.8,0,1.5-0.2,2-0.5s1-0.7,1.4-1.2s0.6-1.1,0.8-1.8S564.8,39.1,564.8,38.4z"/>
		<path fill="#7A8FCC" d="M570.5,38.7c0-1.3,0.2-2.4,0.5-3.4s0.9-1.8,1.5-2.5s1.4-1.2,2.3-1.6c0.9-0.4,1.9-0.5,3-0.5
			c0.5,0,1,0,1.4,0.1s0.9,0.2,1.4,0.3v-6.4h2.6v21.3H581l-0.1-2.9c-0.7,1.1-1.5,1.9-2.4,2.4c-0.9,0.5-1.8,0.8-2.8,0.8
			c-0.9,0-1.6-0.2-2.3-0.5c-0.7-0.4-1.2-0.9-1.6-1.5c-0.4-0.7-0.8-1.4-1-2.4C570.6,40.8,570.5,39.8,570.5,38.7z M573.2,38.5
			c0,1.8,0.3,3.2,0.8,4.1c0.5,0.9,1.3,1.3,2.3,1.3c0.7,0,1.4-0.3,2.1-0.9c0.7-0.6,1.5-1.5,2.3-2.6v-7c-0.4-0.2-0.9-0.4-1.4-0.5
			s-1-0.2-1.6-0.2c-1.4,0-2.5,0.5-3.3,1.4C573.6,35.1,573.2,36.5,573.2,38.5z"/>
		<path fill="#7A8FCC" d="M600.4,45.9H598l-0.1-2.4c-0.5,0.5-0.9,1-1.3,1.3s-0.8,0.6-1.2,0.8s-0.8,0.4-1.2,0.4
			c-0.4,0.1-0.8,0.1-1.3,0.1c-1.6,0-2.7-0.5-3.5-1.4c-0.8-0.9-1.2-2.3-1.2-4.1v-9.9h2.6v9.7c0,2.3,0.9,3.5,2.6,3.5
			c0.3,0,0.6,0,0.9-0.1s0.6-0.3,1-0.5c0.3-0.2,0.7-0.6,1.1-1c0.4-0.4,0.8-0.9,1.3-1.5v-10h2.6V45.9z"/>
		<path fill="#7A8FCC" d="M610.4,26.8h-4.5v-2.2h7.1v19.1h4.5v2.2h-12.1v-2.2h5V26.8z"/>
		<path fill="#7A8FCC" d="M635,37.6c0,0.4,0,0.7,0,0.9c0,0.3,0,0.5,0,0.7h-10.6c0,1.5,0.4,2.7,1.3,3.6c0.9,0.8,2.1,1.2,3.7,1.2
			c0.4,0,0.9,0,1.3-0.1c0.4,0,0.9-0.1,1.3-0.1c0.4-0.1,0.8-0.1,1.2-0.2s0.7-0.2,1-0.2v2.2c-0.7,0.2-1.5,0.4-2.4,0.5
			c-0.9,0.1-1.8,0.2-2.8,0.2c-1.3,0-2.4-0.2-3.3-0.5c-0.9-0.4-1.7-0.9-2.3-1.5c-0.6-0.7-1-1.5-1.3-2.5s-0.4-2.1-0.4-3.3
			c0-1.1,0.2-2.1,0.5-3c0.3-0.9,0.8-1.8,1.3-2.5c0.6-0.7,1.3-1.3,2.2-1.7s1.8-0.6,2.9-0.6c1.1,0,2,0.2,2.8,0.5
			c0.8,0.3,1.5,0.8,2.1,1.4c0.6,0.6,1,1.3,1.3,2.2C634.8,35.5,635,36.5,635,37.6z M632.2,37.2c0-0.7,0-1.3-0.2-1.8
			c-0.2-0.6-0.4-1-0.7-1.4c-0.3-0.4-0.8-0.7-1.3-0.9c-0.5-0.2-1.1-0.3-1.7-0.3c-0.6,0-1.1,0.1-1.6,0.3c-0.5,0.2-0.9,0.5-1.2,0.9
			c-0.3,0.4-0.6,0.9-0.8,1.4c-0.2,0.6-0.3,1.2-0.4,1.9H632.2z"/>
	</g>
	<g enable-background="new    ">
	</g>
	<g enable-background="new    ">
		<path fill="#4C2626" d="M661.2,33h-4.5v-2.2h7.1v13h4.5v2.2h-12.1v-2.2h5V33z M662.1,24.4c0.3,0,0.6,0.1,0.8,0.2
			c0.3,0.1,0.5,0.3,0.7,0.4c0.2,0.2,0.3,0.4,0.4,0.7s0.2,0.5,0.2,0.8c0,0.3-0.1,0.5-0.2,0.8c-0.1,0.3-0.3,0.5-0.4,0.7
			c-0.2,0.2-0.4,0.3-0.7,0.4c-0.3,0.1-0.5,0.2-0.8,0.2c-0.3,0-0.6-0.1-0.8-0.2s-0.5-0.3-0.7-0.4c-0.2-0.2-0.3-0.4-0.4-0.7
			c-0.1-0.3-0.2-0.5-0.2-0.8c0-0.3,0.1-0.6,0.2-0.8s0.3-0.5,0.4-0.7c0.2-0.2,0.4-0.3,0.7-0.4S661.9,24.4,662.1,24.4z"/>
		<path fill="#4C2626" d="M672.3,38.7c0-1.3,0.2-2.4,0.5-3.4s0.9-1.8,1.5-2.5s1.4-1.2,2.3-1.6c0.9-0.4,1.9-0.5,3-0.5
			c0.5,0,1,0,1.4,0.1c0.5,0.1,0.9,0.2,1.4,0.3v-6.4h2.6v21.3h-2.4l-0.1-2.9c-0.7,1.1-1.5,1.9-2.4,2.4c-0.9,0.5-1.8,0.8-2.8,0.8
			c-0.9,0-1.6-0.2-2.3-0.5c-0.7-0.4-1.2-0.9-1.6-1.5c-0.4-0.7-0.8-1.4-1-2.4S672.3,39.8,672.3,38.7z M675,38.5
			c0,1.8,0.3,3.2,0.8,4.1c0.5,0.9,1.3,1.3,2.3,1.3c0.7,0,1.4-0.3,2.1-0.9c0.7-0.6,1.5-1.5,2.3-2.6v-7c-0.4-0.2-0.9-0.4-1.4-0.5
			s-1-0.2-1.6-0.2c-1.4,0-2.5,0.5-3.3,1.4S675,36.5,675,38.5z"/>
	</g>
	<g enable-background="new    ">
		<path d="M702.6,36.2h-13V34h13V36.2z M702.6,41.4h-13v-2.2h13V41.4z"/>
	</g>
	<g enable-background="new    ">
		<path fill="#CC8466" d="M711.8,24.6l-0.4,7.1h-2.5l-0.4-7.1H711.8z M717.7,24.6l-0.4,7.1h-2.5l-0.4-7.1H717.7z"/>
		<path fill="#CC8466" d="M736,41.8c0,0.5-0.1,1-0.3,1.4c-0.2,0.4-0.4,0.8-0.7,1.1c-0.3,0.3-0.7,0.6-1.1,0.8
			c-0.4,0.2-0.9,0.4-1.3,0.6c-0.5,0.2-0.9,0.3-1.4,0.3c-0.5,0.1-1,0.1-1.4,0.1c-1,0-2,0-2.8-0.1s-1.7-0.2-2.5-0.4v-2.4
			c0.9,0.3,1.8,0.4,2.6,0.6c0.9,0.1,1.7,0.2,2.6,0.2c1.3,0,2.2-0.2,2.8-0.5c0.6-0.3,0.9-0.8,0.9-1.5c0-0.3,0-0.5-0.1-0.7
			c-0.1-0.2-0.3-0.4-0.5-0.6c-0.3-0.2-0.6-0.4-1.2-0.6c-0.5-0.2-1.2-0.5-2.2-0.7c-0.7-0.2-1.3-0.4-1.9-0.7c-0.6-0.3-1.1-0.6-1.5-0.9
			c-0.4-0.4-0.8-0.8-1-1.2c-0.2-0.5-0.4-1-0.4-1.7c0-0.4,0.1-0.9,0.3-1.4c0.2-0.5,0.5-1,1-1.4c0.5-0.4,1.1-0.8,1.9-1.1
			c0.8-0.3,1.8-0.4,3-0.4c0.6,0,1.3,0,2,0.1s1.5,0.2,2.3,0.3v2.3c-0.8-0.2-1.6-0.3-2.3-0.4s-1.4-0.1-1.9-0.1c-0.7,0-1.2,0.1-1.7,0.2
			c-0.4,0.1-0.8,0.2-1.1,0.4c-0.3,0.2-0.5,0.4-0.6,0.6c-0.1,0.2-0.2,0.5-0.2,0.8s0.1,0.5,0.2,0.7c0.1,0.2,0.3,0.4,0.6,0.6
			s0.7,0.4,1.2,0.6c0.5,0.2,1.2,0.4,2,0.7c0.9,0.3,1.6,0.5,2.3,0.8c0.6,0.3,1.1,0.6,1.5,1c0.4,0.4,0.7,0.7,0.8,1.2
			C735.9,40.7,736,41.2,736,41.8z"/>
		<path fill="#CC8466" d="M753.1,45.9h-2.4l-0.1-2.4c-0.5,0.5-0.9,1-1.3,1.3c-0.4,0.3-0.8,0.6-1.2,0.8c-0.4,0.2-0.8,0.4-1.2,0.4
			c-0.4,0.1-0.8,0.1-1.3,0.1c-1.6,0-2.7-0.5-3.5-1.4c-0.8-0.9-1.2-2.3-1.2-4.1v-9.9h2.6v9.7c0,2.3,0.9,3.5,2.6,3.5
			c0.3,0,0.6,0,0.9-0.1s0.6-0.3,1-0.5c0.3-0.2,0.7-0.6,1.1-1c0.4-0.4,0.8-0.9,1.3-1.5v-10h2.6V45.9z"/>
		<path fill="#CC8466" d="M770.9,38.1c0,1.3-0.2,2.5-0.6,3.5c-0.4,1-0.9,1.8-1.6,2.5c-0.7,0.7-1.4,1.2-2.4,1.5
			c-0.9,0.3-1.9,0.5-2.9,0.5c-0.5,0-1,0-1.4-0.1c-0.5-0.1-1-0.1-1.5-0.3v6.3H758V30.8h2.3l0.2,2.5c0.8-1,1.6-1.8,2.4-2.2
			c0.9-0.4,1.8-0.6,2.8-0.6c0.9,0,1.6,0.2,2.3,0.5c0.7,0.4,1.2,0.9,1.6,1.5c0.4,0.7,0.8,1.5,1,2.4S770.9,36.9,770.9,38.1z
			 M768.2,38.2c0-0.8-0.1-1.5-0.2-2.2s-0.3-1.2-0.5-1.7c-0.3-0.5-0.6-0.8-1-1.1c-0.4-0.3-0.9-0.4-1.4-0.4c-0.3,0-0.7,0.1-1,0.2
			c-0.3,0.1-0.7,0.3-1.1,0.5s-0.8,0.6-1.2,1c-0.4,0.4-0.8,0.9-1.3,1.5v7.3c0.5,0.2,1,0.4,1.5,0.5c0.5,0.1,1.1,0.2,1.6,0.2
			c1.4,0,2.5-0.5,3.3-1.4S768.2,40.1,768.2,38.2z"/>
		<path fill="#CC8466" d="M787.7,37.6c0,0.4,0,0.7,0,0.9s0,0.5,0,0.7H777c0,1.5,0.4,2.7,1.3,3.6c0.9,0.8,2.1,1.2,3.7,1.2
			c0.4,0,0.9,0,1.3-0.1c0.4,0,0.9-0.1,1.3-0.1c0.4-0.1,0.8-0.1,1.2-0.2s0.7-0.2,1-0.2v2.2c-0.7,0.2-1.5,0.4-2.4,0.5
			c-0.9,0.1-1.8,0.2-2.8,0.2c-1.3,0-2.4-0.2-3.3-0.5c-0.9-0.4-1.7-0.9-2.3-1.5c-0.6-0.7-1-1.5-1.3-2.5c-0.3-1-0.4-2.1-0.4-3.3
			c0-1.1,0.2-2.1,0.5-3c0.3-0.9,0.8-1.8,1.3-2.5c0.6-0.7,1.3-1.3,2.2-1.7s1.8-0.6,2.9-0.6c1.1,0,2,0.2,2.8,0.5
			c0.8,0.3,1.5,0.8,2.1,1.4s1,1.3,1.3,2.2C787.6,35.5,787.7,36.5,787.7,37.6z M785,37.2c0-0.7,0-1.3-0.2-1.8c-0.2-0.6-0.4-1-0.7-1.4
			c-0.3-0.4-0.8-0.7-1.3-0.9c-0.5-0.2-1.1-0.3-1.7-0.3c-0.6,0-1.1,0.1-1.6,0.3c-0.5,0.2-0.9,0.5-1.2,0.9c-0.3,0.4-0.6,0.9-0.8,1.4
			c-0.2,0.6-0.3,1.2-0.4,1.9H785z"/>
		<path fill="#CC8466" d="M792.5,30.8h2.4l0.1,2.8c0.9-1.1,1.8-1.9,2.6-2.3s1.7-0.7,2.6-0.7c1.6,0,2.8,0.5,3.6,1.5
			c0.8,1,1.2,2.5,1.1,4.5h-2.7c0-1.3-0.2-2.3-0.6-2.9c-0.4-0.6-1-0.9-1.8-0.9c-0.4,0-0.7,0.1-1.1,0.2c-0.4,0.1-0.7,0.3-1.1,0.6
			s-0.8,0.6-1.2,1.1c-0.4,0.4-0.9,1-1.4,1.6v9.7h-2.7V30.8z"/>
		<path fill="#CC8466" d="M819.5,38.9h-9v-2.5h9V38.9z"/>
		<path fill="#CC8466" d="M838.8,38.1c0,1.3-0.2,2.4-0.5,3.4c-0.3,1-0.8,1.8-1.5,2.5s-1.4,1.2-2.3,1.6c-0.9,0.4-1.9,0.5-3.1,0.5
			c-0.9,0-1.8-0.1-2.7-0.3c-0.9-0.2-1.9-0.4-2.8-0.8V24.6h2.6v5.9l-0.1,2.8c0.8-1,1.6-1.7,2.4-2.1c0.9-0.4,1.8-0.6,2.8-0.6
			c0.9,0,1.6,0.2,2.3,0.5c0.7,0.4,1.2,0.9,1.6,1.5s0.8,1.5,1,2.4S838.8,36.9,838.8,38.1z M836.1,38.2c0-0.8-0.1-1.5-0.2-2.2
			s-0.3-1.2-0.6-1.7c-0.3-0.5-0.6-0.8-1-1.1c-0.4-0.3-0.9-0.4-1.4-0.4c-0.3,0-0.7,0.1-1,0.2c-0.3,0.1-0.7,0.3-1.1,0.5
			s-0.8,0.6-1.2,1c-0.4,0.4-0.8,0.9-1.3,1.5v7.3c0.5,0.2,1,0.4,1.6,0.5s1,0.2,1.5,0.2c0.6,0,1.2-0.1,1.7-0.3c0.5-0.2,1-0.5,1.4-1
			s0.7-1,1-1.8C836,40.2,836.1,39.3,836.1,38.2z"/>
		<path fill="#CC8466" d="M855,45.9h-2.4l-0.1-2.4c-0.5,0.5-0.9,1-1.3,1.3s-0.8,0.6-1.2,0.8s-0.8,0.4-1.2,0.4
			c-0.4,0.1-0.8,0.1-1.3,0.1c-1.6,0-2.7-0.5-3.5-1.4c-0.8-0.9-1.2-2.3-1.2-4.1v-9.9h2.6v9.7c0,2.3,0.9,3.5,2.6,3.5
			c0.3,0,0.6,0,0.9-0.1s0.6-0.3,1-0.5c0.3-0.2,0.7-0.6,1.1-1c0.4-0.4,0.8-0.9,1.3-1.5v-10h2.6V45.9z"/>
		<path fill="#CC8466" d="M872,45.7c-0.6,0.2-1.2,0.3-1.8,0.3s-1.3,0.1-1.9,0.1c-1.9,0-3.3-0.4-4.3-1.3s-1.4-2.2-1.4-4V33h-4.2v-2.2
			h4.2v-4.2l2.6-0.7v4.8h6.8V33h-6.8v7.7c0,1.1,0.3,1.9,0.9,2.4c0.6,0.5,1.4,0.8,2.6,0.8c0.5,0,1,0,1.6-0.1c0.6-0.1,1.2-0.2,1.8-0.4
			V45.7z"/>
		<path fill="#CC8466" d="M889,45.7c-0.6,0.2-1.2,0.3-1.8,0.3s-1.3,0.1-1.9,0.1c-1.9,0-3.3-0.4-4.3-1.3s-1.4-2.2-1.4-4V33h-4.2v-2.2
			h4.2v-4.2l2.6-0.7v4.8h6.8V33h-6.8v7.7c0,1.1,0.3,1.9,0.9,2.4c0.6,0.5,1.4,0.8,2.6,0.8c0.5,0,1,0,1.6-0.1c0.6-0.1,1.2-0.2,1.8-0.4
			V45.7z"/>
		<path fill="#CC8466" d="M906.9,38.2c0,1.2-0.2,2.3-0.5,3.2c-0.3,1-0.8,1.8-1.4,2.5c-0.6,0.7-1.4,1.2-2.3,1.6
			c-0.9,0.4-1.9,0.6-3,0.6c-1.1,0-2.1-0.2-2.9-0.5c-0.9-0.3-1.6-0.8-2.2-1.5s-1.1-1.5-1.4-2.4c-0.3-1-0.5-2.1-0.5-3.3
			c0-1.2,0.2-2.2,0.5-3.2c0.3-1,0.8-1.8,1.4-2.5c0.6-0.7,1.4-1.2,2.3-1.6s1.9-0.6,3-0.6c1.1,0,2.1,0.2,2.9,0.5s1.6,0.8,2.2,1.5
			c0.6,0.6,1.1,1.5,1.4,2.4S906.9,37,906.9,38.2z M904.3,38.4c0-0.9-0.1-1.8-0.3-2.5c-0.2-0.7-0.5-1.3-0.9-1.7
			c-0.4-0.5-0.8-0.8-1.4-1.1c-0.5-0.2-1.2-0.4-1.8-0.4c-0.8,0-1.5,0.2-2,0.5c-0.6,0.3-1,0.7-1.4,1.2c-0.4,0.5-0.6,1.1-0.8,1.8
			c-0.2,0.7-0.2,1.4-0.2,2.1c0,0.9,0.1,1.8,0.3,2.5c0.2,0.7,0.5,1.3,0.9,1.8c0.4,0.5,0.8,0.8,1.4,1.1c0.5,0.2,1.2,0.4,1.8,0.4
			c0.8,0,1.5-0.2,2-0.5c0.6-0.3,1-0.7,1.4-1.2c0.4-0.5,0.6-1.1,0.8-1.8C904.2,39.8,904.3,39.1,904.3,38.4z"/>
		<path fill="#CC8466" d="M910.7,30.8h2.3l0.1,2.4c0.4-0.5,0.9-1,1.3-1.3s0.8-0.6,1.2-0.8c0.4-0.2,0.8-0.4,1.2-0.4
			c0.4-0.1,0.8-0.1,1.3-0.1c1.6,0,2.7,0.5,3.5,1.4c0.8,0.9,1.2,2.3,1.2,4.2v9.9h-2.6v-9.7c0-1.2-0.2-2.1-0.7-2.6
			c-0.4-0.6-1.1-0.9-2-0.9c-0.3,0-0.6,0-0.9,0.1c-0.3,0.1-0.6,0.3-1,0.5s-0.7,0.6-1.1,1s-0.8,0.9-1.3,1.5v10h-2.6V30.8z"/>
		<path fill="#CC8466" d="M932.5,24.6l-0.4,7.1h-2.5l-0.4-7.1H932.5z M938.4,24.6l-0.4,7.1h-2.5l-0.4-7.1H938.4z"/>
	</g>
	<g enable-background="new    ">
		<path fill="#7A8FCC" d="M945.5,30.9l1.6-1.7l10.1,8.5l-10.1,8.5l-1.6-1.7l8.2-6.8L945.5,30.9z"/>
	</g>
	<g enable-background="new    ">
		<path d="M488.4,81.4c0,0.2,0,0.5-0.1,0.7c-0.1,0.2-0.2,0.4-0.4,0.6c-0.2,0.2-0.3,0.3-0.6,0.4c-0.2,0.1-0.5,0.1-0.7,0.1
			c-0.3,0-0.5,0-0.7-0.1c-0.2-0.1-0.4-0.2-0.6-0.4c-0.2-0.2-0.3-0.4-0.4-0.6c-0.1-0.2-0.1-0.5-0.1-0.7c0-0.3,0-0.5,0.1-0.7
			c0.1-0.2,0.2-0.4,0.4-0.6c0.2-0.2,0.3-0.3,0.6-0.4c0.2-0.1,0.5-0.1,0.7-0.1c0.3,0,0.5,0,0.7,0.1c0.2,0.1,0.4,0.2,0.6,0.4
			c0.2,0.2,0.3,0.4,0.4,0.6C488.4,81,488.4,81.2,488.4,81.4z M494.2,81.4c0,0.2,0,0.5-0.1,0.7c-0.1,0.2-0.2,0.4-0.4,0.6
			c-0.2,0.2-0.3,0.3-0.6,0.4c-0.2,0.1-0.5,0.1-0.7,0.1c-0.3,0-0.5,0-0.7-0.1s-0.4-0.2-0.6-0.4c-0.2-0.2-0.3-0.4-0.4-0.6
			s-0.1-0.5-0.1-0.7c0-0.3,0-0.5,0.1-0.7c0.1-0.2,0.2-0.4,0.4-0.6c0.2-0.2,0.3-0.3,0.6-0.4s0.5-0.1,0.7-0.1c0.3,0,0.5,0,0.7,0.1
			c0.2,0.1,0.4,0.2,0.6,0.4c0.2,0.2,0.3,0.4,0.4,0.6C494.2,81,494.2,81.2,494.2,81.4z M500,81.4c0,0.2,0,0.5-0.1,0.7
			c-0.1,0.2-0.2,0.4-0.4,0.6c-0.2,0.2-0.3,0.3-0.6,0.4s-0.5,0.1-0.7,0.1c-0.3,0-0.5,0-0.7-0.1s-0.4-0.2-0.6-0.4
			c-0.2-0.2-0.3-0.4-0.4-0.6s-0.1-0.5-0.1-0.7c0-0.3,0-0.5,0.1-0.7c0.1-0.2,0.2-0.4,0.4-0.6c0.2-0.2,0.3-0.3,0.6-0.4
			s0.5-0.1,0.7-0.1c0.3,0,0.5,0,0.7,0.1s0.4,0.2,0.6,0.4c0.2,0.2,0.3,0.4,0.4,0.6C500,81,500,81.2,500,81.4z"/>
	</g>
	<g enable-background="new    ">
		<path fill="#7A8FCC" d="M463.8,118.6l-1.6,1.7l-10.1-8.5l10.1-8.5l1.6,1.7l-8.2,6.8L463.8,118.6z"/>
		<path fill="#7A8FCC" d="M481.6,98.7l-10.3,24.5h-2.5l10.3-24.5H481.6z"/>
		<path fill="#7A8FCC" d="M485.6,112.8c0-1.3,0.2-2.4,0.5-3.4c0.4-1,0.9-1.8,1.5-2.5c0.6-0.7,1.4-1.2,2.3-1.6c0.9-0.4,1.9-0.5,3-0.5
			c0.5,0,1,0,1.4,0.1c0.5,0.1,0.9,0.2,1.4,0.3v-6.4h2.6V120h-2.4l-0.1-2.9c-0.7,1.1-1.5,1.9-2.4,2.4c-0.9,0.5-1.8,0.8-2.8,0.8
			c-0.9,0-1.6-0.2-2.3-0.5c-0.7-0.4-1.2-0.9-1.6-1.5c-0.4-0.7-0.8-1.4-1-2.4S485.6,113.9,485.6,112.8z M488.3,112.6
			c0,1.8,0.3,3.2,0.8,4.1c0.5,0.9,1.3,1.3,2.3,1.3c0.7,0,1.4-0.3,2.1-0.9c0.7-0.6,1.5-1.5,2.3-2.6v-7c-0.4-0.2-0.9-0.4-1.4-0.5
			c-0.5-0.1-1-0.2-1.6-0.2c-1.4,0-2.5,0.5-3.3,1.4S488.3,110.6,488.3,112.6z"/>
		<path fill="#7A8FCC" d="M516.5,112.3c0,1.2-0.2,2.3-0.5,3.2c-0.3,1-0.8,1.8-1.4,2.5c-0.6,0.7-1.4,1.2-2.3,1.6
			c-0.9,0.4-1.9,0.6-3,0.6c-1.1,0-2.1-0.2-2.9-0.5c-0.9-0.3-1.6-0.8-2.2-1.5s-1.1-1.5-1.4-2.4s-0.5-2.1-0.5-3.3
			c0-1.2,0.2-2.2,0.5-3.2c0.3-1,0.8-1.8,1.4-2.5c0.6-0.7,1.4-1.2,2.3-1.6s1.9-0.6,3-0.6c1.1,0,2.1,0.2,2.9,0.5s1.6,0.8,2.2,1.5
			s1.1,1.5,1.4,2.4C516.4,110,516.5,111.1,516.5,112.3z M513.8,112.5c0-0.9-0.1-1.8-0.3-2.5c-0.2-0.7-0.5-1.3-0.9-1.7
			c-0.4-0.5-0.8-0.8-1.4-1.1c-0.5-0.2-1.2-0.4-1.8-0.4c-0.8,0-1.5,0.2-2,0.5c-0.6,0.3-1,0.7-1.4,1.2c-0.4,0.5-0.6,1.1-0.8,1.8
			c-0.2,0.7-0.2,1.4-0.2,2.1c0,0.9,0.1,1.8,0.3,2.5c0.2,0.7,0.5,1.3,0.9,1.8c0.4,0.5,0.8,0.8,1.4,1.1s1.2,0.4,1.8,0.4
			c0.8,0,1.5-0.2,2-0.5c0.6-0.3,1-0.7,1.4-1.2c0.4-0.5,0.6-1.1,0.8-1.8S513.8,113.2,513.8,112.5z"/>
		<path fill="#7A8FCC" d="M531.1,120v-10.9c0-0.5,0-0.9-0.1-1.2s-0.1-0.5-0.2-0.7c-0.1-0.2-0.2-0.3-0.3-0.4
			c-0.1-0.1-0.3-0.1-0.4-0.1c-0.2,0-0.4,0.1-0.6,0.2c-0.2,0.1-0.4,0.3-0.6,0.6c-0.2,0.3-0.4,0.6-0.6,1.1s-0.5,1-0.8,1.7v9.7h-2.4
			v-10.6c0-0.6,0-1-0.1-1.3s-0.1-0.6-0.2-0.8c-0.1-0.2-0.2-0.3-0.3-0.4c-0.1-0.1-0.3-0.1-0.4-0.1c-0.2,0-0.4,0.1-0.5,0.2
			s-0.3,0.3-0.5,0.5c-0.2,0.3-0.4,0.6-0.7,1.1s-0.5,1-0.9,1.7v9.7h-2.4v-15.1h2l0.1,2.9c0.3-0.6,0.5-1.1,0.8-1.5
			c0.2-0.4,0.5-0.7,0.8-1s0.5-0.4,0.8-0.5c0.3-0.1,0.6-0.2,1-0.2c0.8,0,1.4,0.3,1.9,0.8c0.4,0.5,0.6,1.4,0.6,2.5
			c0.2-0.5,0.5-1,0.7-1.4c0.2-0.4,0.5-0.7,0.7-1c0.3-0.3,0.6-0.5,0.9-0.6c0.3-0.1,0.7-0.2,1.1-0.2c1.9,0,2.8,1.5,2.8,4.4v11H531.1z"
			/>
		<path fill="#7A8FCC" d="M547.9,113.1h-9v-2.5h9V113.1z"/>
		<path fill="#7A8FCC" d="M565.1,120v-10.9c0-0.5,0-0.9-0.1-1.2s-0.1-0.5-0.2-0.7c-0.1-0.2-0.2-0.3-0.3-0.4
			c-0.1-0.1-0.3-0.1-0.4-0.1c-0.2,0-0.4,0.1-0.6,0.2c-0.2,0.1-0.4,0.3-0.5,0.6c-0.2,0.3-0.4,0.6-0.6,1.1c-0.2,0.4-0.5,1-0.8,1.7v9.7
			h-2.4v-10.6c0-0.6,0-1-0.1-1.3s-0.1-0.6-0.2-0.8c-0.1-0.2-0.2-0.3-0.3-0.4c-0.1-0.1-0.3-0.1-0.4-0.1c-0.2,0-0.4,0.1-0.5,0.2
			c-0.2,0.1-0.3,0.3-0.5,0.5c-0.2,0.3-0.4,0.6-0.7,1.1c-0.2,0.5-0.5,1-0.9,1.7v9.7h-2.4v-15.1h2l0.1,2.9c0.3-0.6,0.5-1.1,0.8-1.5
			c0.2-0.4,0.5-0.7,0.8-1c0.3-0.2,0.5-0.4,0.8-0.5c0.3-0.1,0.6-0.2,1-0.2c0.8,0,1.4,0.3,1.9,0.8c0.4,0.5,0.6,1.4,0.6,2.5
			c0.2-0.5,0.5-1,0.7-1.4c0.2-0.4,0.5-0.7,0.7-1c0.3-0.3,0.6-0.5,0.9-0.6s0.7-0.2,1.1-0.2c1.9,0,2.8,1.5,2.8,4.4v11H565.1z"/>
		<path fill="#7A8FCC" d="M584.4,112.3c0,1.2-0.2,2.3-0.5,3.2c-0.3,1-0.8,1.8-1.4,2.5c-0.6,0.7-1.4,1.2-2.3,1.6
			c-0.9,0.4-1.9,0.6-3,0.6c-1.1,0-2.1-0.2-2.9-0.5c-0.9-0.3-1.6-0.8-2.2-1.5c-0.6-0.7-1.1-1.5-1.4-2.4s-0.5-2.1-0.5-3.3
			c0-1.2,0.2-2.2,0.5-3.2c0.3-1,0.8-1.8,1.4-2.5c0.6-0.7,1.4-1.2,2.3-1.6s1.9-0.6,3-0.6c1.1,0,2.1,0.2,2.9,0.5s1.6,0.8,2.2,1.5
			c0.6,0.6,1.1,1.5,1.4,2.4S584.4,111.1,584.4,112.3z M581.7,112.5c0-0.9-0.1-1.8-0.3-2.5c-0.2-0.7-0.5-1.3-0.9-1.7
			c-0.4-0.5-0.8-0.8-1.4-1.1c-0.5-0.2-1.2-0.4-1.8-0.4c-0.8,0-1.5,0.2-2,0.5c-0.6,0.3-1,0.7-1.4,1.2s-0.6,1.1-0.8,1.8
			c-0.2,0.7-0.2,1.4-0.2,2.1c0,0.9,0.1,1.8,0.3,2.5c0.2,0.7,0.5,1.3,0.9,1.8s0.8,0.8,1.4,1.1c0.5,0.2,1.2,0.4,1.8,0.4
			c0.8,0,1.5-0.2,2-0.5s1-0.7,1.4-1.2s0.6-1.1,0.8-1.8S581.7,113.2,581.7,112.5z"/>
		<path fill="#7A8FCC" d="M587.5,112.8c0-1.3,0.2-2.4,0.5-3.4s0.9-1.8,1.5-2.5s1.4-1.2,2.3-1.6c0.9-0.4,1.9-0.5,3-0.5
			c0.5,0,1,0,1.4,0.1s0.9,0.2,1.4,0.3v-6.4h2.6V120h-2.4l-0.1-2.9c-0.7,1.1-1.5,1.9-2.4,2.4c-0.9,0.5-1.8,0.8-2.8,0.8
			c-0.9,0-1.6-0.2-2.3-0.5c-0.7-0.4-1.2-0.9-1.6-1.5c-0.4-0.7-0.8-1.4-1-2.4C587.6,114.9,587.5,113.9,587.5,112.8z M590.1,112.6
			c0,1.8,0.3,3.2,0.8,4.1c0.5,0.9,1.3,1.3,2.3,1.3c0.7,0,1.4-0.3,2.1-0.9c0.7-0.6,1.5-1.5,2.3-2.6v-7c-0.4-0.2-0.9-0.4-1.4-0.5
			s-1-0.2-1.6-0.2c-1.4,0-2.5,0.5-3.3,1.4C590.5,109.2,590.1,110.6,590.1,112.6z"/>
		<path fill="#7A8FCC" d="M617.4,120H615l-0.1-2.4c-0.5,0.5-0.9,1-1.3,1.3c-0.4,0.3-0.8,0.6-1.2,0.8s-0.8,0.4-1.2,0.4
			c-0.4,0.1-0.8,0.1-1.3,0.1c-1.6,0-2.7-0.5-3.5-1.4c-0.8-0.9-1.2-2.3-1.2-4.1v-9.9h2.6v9.7c0,2.3,0.9,3.5,2.6,3.5
			c0.3,0,0.6,0,0.9-0.1s0.6-0.3,1-0.5c0.3-0.2,0.7-0.6,1.1-1c0.4-0.4,0.8-0.9,1.3-1.5v-10h2.6V120z"/>
		<path fill="#7A8FCC" d="M627.3,100.9h-4.5v-2.2h7.1v19.1h4.5v2.2h-12.1v-2.2h5V100.9z"/>
		<path fill="#7A8FCC" d="M651.9,111.7c0,0.4,0,0.7,0,0.9c0,0.3,0,0.5,0,0.7h-10.6c0,1.5,0.4,2.7,1.3,3.6c0.9,0.8,2.1,1.2,3.7,1.2
			c0.4,0,0.9,0,1.3-0.1c0.4,0,0.9-0.1,1.3-0.1c0.4-0.1,0.8-0.1,1.2-0.2s0.7-0.2,1-0.2v2.2c-0.7,0.2-1.5,0.4-2.4,0.5
			c-0.9,0.1-1.8,0.2-2.8,0.2c-1.3,0-2.4-0.2-3.3-0.5c-0.9-0.4-1.7-0.9-2.3-1.5c-0.6-0.7-1-1.5-1.3-2.5s-0.4-2.1-0.4-3.3
			c0-1.1,0.2-2.1,0.5-3c0.3-0.9,0.8-1.8,1.3-2.5c0.6-0.7,1.3-1.3,2.2-1.7s1.8-0.6,2.9-0.6c1.1,0,2,0.2,2.8,0.5
			c0.8,0.3,1.5,0.8,2.1,1.4c0.6,0.6,1,1.3,1.3,2.2C651.8,109.6,651.9,110.6,651.9,111.7z M649.2,111.3c0-0.7,0-1.3-0.2-1.8
			c-0.2-0.6-0.4-1-0.7-1.4c-0.3-0.4-0.8-0.7-1.3-0.9c-0.5-0.2-1.1-0.3-1.7-0.3c-0.6,0-1.1,0.1-1.6,0.3c-0.5,0.2-0.9,0.5-1.2,0.9
			c-0.3,0.4-0.6,0.9-0.8,1.4c-0.2,0.6-0.3,1.2-0.4,1.9H649.2z"/>
		<path fill="#7A8FCC" d="M656.9,105l1.6-1.7l10.1,8.5l-10.1,8.5l-1.6-1.7l8.2-6.8L656.9,105z"/>
	</g>
</g>
</svg>
