<?xml version="1.0" encoding="utf-8"?>
<!-- Generator: Adobe Illustrator 18.0.0, SVG Export Plug-In . SVG Version: 6.00 Build 0)  -->
<!DOCTYPE svg PUBLIC "-//W3C//DTD SVG 1.1//EN" "http://www.w3.org/Graphics/SVG/1.1/DTD/svg11.dtd">
<svg version="1.1" id="Calque_1" xmlns="http://www.w3.org/2000/svg" xmlns:xlink="http://www.w3.org/1999/xlink" x="0px" y="0px"
	 viewBox="0 0 960 150" enable-background="new 0 0 960 150" xml:space="preserve">
<g>
	<text transform="matrix(1 0 0 1 122.261 93.1938)" fill="#666666" font-family="'Roboto-Medium'" font-size="62.2569">Utilisation</text>
	<g enable-background="new    ">
		<path fill="#7A8FCC" d="M463.9,81.1l-1.5,1.6l-9.5-7.9l9.5-7.9l1.5,1.6l-7.7,6.3L463.9,81.1z"/>
		<path fill="#7A8FCC" d="M480.4,78.6c0,0.5-0.1,0.9-0.3,1.3c-0.2,0.4-0.4,0.7-0.7,1.1c-0.3,0.3-0.6,0.6-1,0.8
			c-0.4,0.2-0.8,0.4-1.2,0.5c-0.4,0.1-0.9,0.2-1.3,0.3s-0.9,0.1-1.4,0.1c-1,0-1.8,0-2.6-0.1c-0.8-0.1-1.6-0.2-2.4-0.4v-2.3
			c0.8,0.2,1.7,0.4,2.5,0.5s1.6,0.2,2.4,0.2c1.2,0,2-0.2,2.6-0.5s0.8-0.8,0.8-1.4c0-0.3,0-0.5-0.1-0.7c-0.1-0.2-0.3-0.4-0.5-0.6
			c-0.2-0.2-0.6-0.4-1.1-0.6c-0.5-0.2-1.2-0.4-2-0.7c-0.6-0.2-1.2-0.4-1.8-0.6s-1-0.5-1.4-0.9c-0.4-0.3-0.7-0.7-0.9-1.2
			c-0.2-0.4-0.3-1-0.3-1.6c0-0.4,0.1-0.8,0.3-1.3s0.5-0.9,0.9-1.3c0.4-0.4,1-0.7,1.8-1c0.8-0.3,1.7-0.4,2.8-0.4c0.6,0,1.2,0,1.9,0.1
			c0.7,0.1,1.4,0.2,2.1,0.3v2.2c-0.8-0.2-1.5-0.3-2.2-0.4c-0.7-0.1-1.3-0.1-1.8-0.1c-0.6,0-1.1,0-1.5,0.1c-0.4,0.1-0.8,0.2-1,0.4
			c-0.3,0.2-0.4,0.4-0.6,0.6c-0.1,0.2-0.2,0.5-0.2,0.7c0,0.3,0,0.5,0.1,0.7c0.1,0.2,0.3,0.4,0.6,0.6c0.3,0.2,0.6,0.4,1.1,0.6
			c0.5,0.2,1.1,0.4,1.9,0.6c0.8,0.2,1.5,0.5,2.1,0.8c0.6,0.3,1,0.6,1.4,0.9c0.4,0.3,0.6,0.7,0.8,1.1S480.4,78.1,480.4,78.6z"/>
		<path fill="#7A8FCC" d="M496.5,82.5h-2.2l-0.1-2.3c-0.4,0.5-0.8,0.9-1.2,1.2c-0.4,0.3-0.8,0.6-1.1,0.8c-0.4,0.2-0.8,0.3-1.1,0.4
			c-0.4,0.1-0.8,0.1-1.2,0.1c-1.5,0-2.6-0.4-3.3-1.3c-0.7-0.9-1.1-2.2-1.1-3.9v-9.3h2.5v9.1c0,2.2,0.8,3.3,2.5,3.3
			c0.3,0,0.6,0,0.9-0.1c0.3-0.1,0.6-0.2,0.9-0.5c0.3-0.2,0.7-0.5,1-0.9c0.4-0.4,0.8-0.9,1.2-1.4v-9.4h2.5V82.5z"/>
		<path fill="#7A8FCC" d="M513.1,75.1c0,1.3-0.2,2.4-0.5,3.3c-0.4,0.9-0.8,1.7-1.5,2.3c-0.6,0.6-1.4,1.1-2.2,1.4s-1.8,0.5-2.8,0.5
			c-0.5,0-0.9,0-1.3-0.1s-0.9-0.1-1.4-0.2v5.9H501v-20h2.2l0.2,2.4c0.7-1,1.5-1.7,2.3-2c0.8-0.4,1.7-0.6,2.6-0.6
			c0.8,0,1.5,0.2,2.1,0.5c0.6,0.3,1.1,0.8,1.5,1.4c0.4,0.6,0.7,1.4,0.9,2.2S513.1,74.1,513.1,75.1z M510.6,75.2c0-0.7-0.1-1.4-0.2-2
			c-0.1-0.6-0.3-1.2-0.5-1.6c-0.2-0.4-0.5-0.8-0.9-1c-0.4-0.2-0.8-0.4-1.3-0.4c-0.3,0-0.6,0-0.9,0.1c-0.3,0.1-0.7,0.3-1,0.5
			c-0.3,0.2-0.7,0.5-1.1,0.9c-0.4,0.4-0.8,0.9-1.2,1.4V80c0.5,0.2,0.9,0.3,1.4,0.4s1,0.2,1.5,0.2c1.3,0,2.4-0.4,3.1-1.3
			C510.2,78.4,510.6,77.1,510.6,75.2z"/>
		<path fill="#7A8FCC" d="M528.8,74.6c0,0.3,0,0.6,0,0.9c0,0.2,0,0.5,0,0.7h-10c0,1.5,0.4,2.6,1.2,3.3c0.8,0.8,2,1.2,3.5,1.2
			c0.4,0,0.8,0,1.2,0c0.4,0,0.8-0.1,1.2-0.1c0.4-0.1,0.8-0.1,1.1-0.2c0.4-0.1,0.7-0.1,1-0.2v2c-0.7,0.2-1.4,0.3-2.3,0.5
			c-0.8,0.1-1.7,0.2-2.6,0.2c-1.2,0-2.3-0.2-3.1-0.5c-0.9-0.3-1.6-0.8-2.2-1.4s-1-1.4-1.2-2.3s-0.4-1.9-0.4-3.1c0-1,0.1-1.9,0.4-2.8
			s0.7-1.7,1.3-2.3c0.6-0.7,1.2-1.2,2-1.6s1.7-0.6,2.7-0.6c1,0,1.9,0.2,2.6,0.5c0.8,0.3,1.4,0.8,1.9,1.3c0.5,0.6,0.9,1.3,1.2,2.1
			C528.7,72.7,528.8,73.6,528.8,74.6z M526.3,74.3c0-0.6,0-1.2-0.2-1.7s-0.4-1-0.7-1.3c-0.3-0.4-0.7-0.7-1.2-0.9s-1-0.3-1.6-0.3
			c-0.5,0-1,0.1-1.5,0.3c-0.4,0.2-0.8,0.5-1.1,0.9s-0.6,0.8-0.8,1.4c-0.2,0.5-0.3,1.1-0.4,1.7H526.3z"/>
		<path fill="#7A8FCC" d="M533.3,68.3h2.2l0.1,2.6c0.8-1,1.7-1.7,2.5-2.2c0.8-0.5,1.6-0.7,2.5-0.7c1.5,0,2.6,0.5,3.3,1.4
			s1.1,2.4,1.1,4.2h-2.5c0-1.2-0.2-2.1-0.5-2.7s-1-0.8-1.7-0.8c-0.3,0-0.7,0.1-1,0.2c-0.3,0.1-0.7,0.3-1,0.6c-0.4,0.3-0.7,0.6-1.1,1
			c-0.4,0.4-0.8,0.9-1.3,1.5v9.1h-2.5V68.3z"/>
		<path fill="#7A8FCC" d="M558.6,75.9h-8.4v-2.3h8.4V75.9z"/>
		<path fill="#7A8FCC" d="M576.7,75.1c0,1.2-0.2,2.2-0.5,3.2s-0.8,1.7-1.4,2.4c-0.6,0.6-1.3,1.1-2.2,1.5c-0.9,0.3-1.8,0.5-2.9,0.5
			c-0.8,0-1.7-0.1-2.6-0.2c-0.9-0.2-1.7-0.4-2.6-0.8V62.5h2.5V68l-0.1,2.6c0.7-1,1.5-1.6,2.3-2c0.8-0.4,1.7-0.6,2.6-0.6
			c0.8,0,1.5,0.2,2.1,0.5c0.6,0.3,1.1,0.8,1.5,1.4c0.4,0.6,0.7,1.4,0.9,2.2S576.7,74.1,576.7,75.1z M574.2,75.2c0-0.7-0.1-1.4-0.2-2
			c-0.1-0.6-0.3-1.2-0.5-1.6c-0.2-0.4-0.5-0.8-0.9-1c-0.4-0.2-0.8-0.4-1.3-0.4c-0.3,0-0.6,0-0.9,0.1c-0.3,0.1-0.7,0.3-1,0.5
			c-0.3,0.2-0.7,0.5-1.1,0.9c-0.4,0.4-0.8,0.9-1.2,1.4V80c0.5,0.2,1,0.3,1.5,0.4s1,0.2,1.4,0.2c0.6,0,1.1-0.1,1.6-0.3
			c0.5-0.2,1-0.5,1.4-0.9s0.7-1,0.9-1.7C574.1,77.1,574.2,76.3,574.2,75.2z"/>
		<path fill="#7A8FCC" d="M591.9,82.5h-2.2l-0.1-2.3c-0.4,0.5-0.8,0.9-1.2,1.2c-0.4,0.3-0.8,0.6-1.1,0.8c-0.4,0.2-0.8,0.3-1.1,0.4
			c-0.4,0.1-0.8,0.1-1.2,0.1c-1.5,0-2.6-0.4-3.3-1.3c-0.7-0.9-1.1-2.2-1.1-3.9v-9.3h2.5v9.1c0,2.2,0.8,3.3,2.5,3.3
			c0.3,0,0.6,0,0.9-0.1c0.3-0.1,0.6-0.2,0.9-0.5c0.3-0.2,0.7-0.5,1-0.9c0.4-0.4,0.8-0.9,1.2-1.4v-9.4h2.5V82.5z"/>
		<path fill="#7A8FCC" d="M607.8,82.3c-0.6,0.1-1.1,0.2-1.7,0.3c-0.6,0.1-1.2,0.1-1.8,0.1c-1.8,0-3.1-0.4-4-1.2
			c-0.9-0.8-1.3-2-1.3-3.7v-7.4h-4v-2.1h4v-3.9l2.5-0.6v4.5h6.4v2.1h-6.4v7.2c0,1,0.3,1.8,0.8,2.3c0.5,0.5,1.3,0.8,2.4,0.8
			c0.5,0,0.9,0,1.5-0.1c0.5-0.1,1.1-0.2,1.7-0.3V82.3z"/>
		<path fill="#7A8FCC" d="M623.7,82.3c-0.6,0.1-1.1,0.2-1.7,0.3c-0.6,0.1-1.2,0.1-1.8,0.1c-1.8,0-3.1-0.4-4-1.2
			c-0.9-0.8-1.3-2-1.3-3.7v-7.4h-4v-2.1h4v-3.9l2.5-0.6v4.5h6.4v2.1h-6.4v7.2c0,1,0.3,1.8,0.8,2.3c0.5,0.5,1.3,0.8,2.4,0.8
			c0.5,0,0.9,0,1.5-0.1c0.5-0.1,1.1-0.2,1.7-0.3V82.3z"/>
		<path fill="#7A8FCC" d="M640.6,75.3c0,1.1-0.2,2.1-0.5,3c-0.3,0.9-0.8,1.7-1.3,2.4c-0.6,0.7-1.3,1.2-2.1,1.5
			c-0.8,0.4-1.8,0.5-2.9,0.5c-1,0-1.9-0.2-2.7-0.5c-0.8-0.3-1.5-0.8-2-1.4s-1-1.4-1.3-2.3s-0.4-1.9-0.4-3.1c0-1.1,0.2-2.1,0.5-3
			c0.3-0.9,0.8-1.7,1.3-2.3c0.6-0.7,1.3-1.2,2.1-1.5S633,68,634,68c1,0,1.9,0.2,2.7,0.5c0.8,0.3,1.5,0.8,2,1.4
			c0.6,0.6,1,1.4,1.3,2.3S640.6,74.1,640.6,75.3z M638,75.4c0-0.9-0.1-1.6-0.3-2.3c-0.2-0.7-0.5-1.2-0.8-1.6c-0.4-0.4-0.8-0.8-1.3-1
			c-0.5-0.2-1.1-0.3-1.7-0.3c-0.7,0-1.4,0.1-1.9,0.4c-0.5,0.3-1,0.7-1.3,1.2c-0.3,0.5-0.6,1-0.7,1.7s-0.2,1.3-0.2,2
			c0,0.9,0.1,1.6,0.3,2.3c0.2,0.7,0.5,1.2,0.8,1.6c0.4,0.4,0.8,0.8,1.3,1c0.5,0.2,1.1,0.3,1.7,0.3c0.7,0,1.4-0.1,1.9-0.4
			c0.5-0.3,1-0.7,1.3-1.2c0.3-0.5,0.6-1,0.7-1.7S638,76.1,638,75.4z"/>
		<path fill="#7A8FCC" d="M644.1,68.3h2.2l0.1,2.3c0.4-0.5,0.8-0.9,1.2-1.2c0.4-0.3,0.8-0.6,1.1-0.8c0.4-0.2,0.8-0.3,1.1-0.4
			c0.4-0.1,0.8-0.1,1.2-0.1c1.5,0,2.6,0.4,3.3,1.3c0.7,0.9,1.1,2.2,1.1,3.9v9.3h-2.5v-9.1c0-1.1-0.2-1.9-0.6-2.5
			c-0.4-0.5-1-0.8-1.9-0.8c-0.3,0-0.6,0-0.9,0.1c-0.3,0.1-0.6,0.2-0.9,0.5c-0.3,0.2-0.6,0.5-1,0.9c-0.4,0.4-0.8,0.8-1.2,1.4v9.4
			h-2.5V68.3z"/>
		<path fill="#7A8FCC" d="M660.7,68.4l1.5-1.6l9.5,7.9l-9.5,7.9l-1.5-1.6l7.7-6.3L660.7,68.4z"/>
	</g>
	<g enable-background="new    ">
		<path d="M681.5,78c0.3,0,0.6,0.1,0.9,0.2c0.3,0.1,0.5,0.3,0.7,0.5s0.4,0.5,0.5,0.8c0.1,0.3,0.2,0.6,0.2,0.9c0,0.3-0.1,0.6-0.2,0.9
			c-0.1,0.3-0.3,0.5-0.5,0.7s-0.5,0.4-0.7,0.5c-0.3,0.1-0.6,0.2-0.9,0.2c-0.3,0-0.6-0.1-0.9-0.2c-0.3-0.1-0.5-0.3-0.7-0.5
			c-0.2-0.2-0.4-0.5-0.5-0.7c-0.1-0.3-0.2-0.6-0.2-0.9c0-0.3,0.1-0.6,0.2-0.9s0.3-0.5,0.5-0.8c0.2-0.2,0.5-0.4,0.7-0.5
			C680.8,78.1,681.1,78,681.5,78z"/>
		<path d="M697.4,78c0.3,0,0.6,0.1,0.9,0.2c0.3,0.1,0.5,0.3,0.7,0.5s0.4,0.5,0.5,0.8c0.1,0.3,0.2,0.6,0.2,0.9c0,0.3-0.1,0.6-0.2,0.9
			c-0.1,0.3-0.3,0.5-0.5,0.7s-0.5,0.4-0.7,0.5c-0.3,0.1-0.6,0.2-0.9,0.2c-0.3,0-0.6-0.1-0.9-0.2c-0.3-0.1-0.5-0.3-0.7-0.5
			c-0.2-0.2-0.4-0.5-0.5-0.7c-0.1-0.3-0.2-0.6-0.2-0.9c0-0.3,0.1-0.6,0.2-0.9s0.3-0.5,0.5-0.8c0.2-0.2,0.5-0.4,0.7-0.5
			C696.7,78.1,697,78,697.4,78z"/>
		<path d="M713.3,78c0.3,0,0.6,0.1,0.9,0.2c0.3,0.1,0.5,0.3,0.7,0.5c0.2,0.2,0.4,0.5,0.5,0.8s0.2,0.6,0.2,0.9c0,0.3-0.1,0.6-0.2,0.9
			c-0.1,0.3-0.3,0.5-0.5,0.7c-0.2,0.2-0.5,0.4-0.7,0.5c-0.3,0.1-0.6,0.2-0.9,0.2c-0.3,0-0.6-0.1-0.9-0.2c-0.3-0.1-0.5-0.3-0.7-0.5
			s-0.4-0.5-0.5-0.7c-0.1-0.3-0.2-0.6-0.2-0.9c0-0.3,0.1-0.6,0.2-0.9c0.1-0.3,0.3-0.5,0.5-0.8s0.5-0.4,0.7-0.5
			C712.6,78.1,713,78,713.3,78z"/>
	</g>
	<g enable-background="new    ">
		<path fill="#7A8FCC" d="M734.3,81.1l-1.5,1.6l-9.5-7.9l9.5-7.9l1.5,1.6l-7.7,6.3L734.3,81.1z"/>
		<path fill="#7A8FCC" d="M750.9,62.5l-9.7,23h-2.3l9.7-23H750.9z"/>
		<path fill="#7A8FCC" d="M766.7,78.6c0,0.5-0.1,0.9-0.3,1.3c-0.2,0.4-0.4,0.7-0.7,1.1c-0.3,0.3-0.6,0.6-1,0.8s-0.8,0.4-1.2,0.5
			c-0.4,0.1-0.9,0.2-1.3,0.3c-0.5,0.1-0.9,0.1-1.4,0.1c-1,0-1.8,0-2.6-0.1s-1.6-0.2-2.4-0.4v-2.3c0.8,0.2,1.7,0.4,2.5,0.5
			s1.6,0.2,2.4,0.2c1.2,0,2-0.2,2.6-0.5c0.6-0.3,0.8-0.8,0.8-1.4c0-0.3,0-0.5-0.1-0.7c-0.1-0.2-0.3-0.4-0.5-0.6
			c-0.2-0.2-0.6-0.4-1.1-0.6c-0.5-0.2-1.2-0.4-2-0.7c-0.6-0.2-1.2-0.4-1.8-0.6c-0.5-0.2-1-0.5-1.4-0.9c-0.4-0.3-0.7-0.7-0.9-1.2
			c-0.2-0.4-0.3-1-0.3-1.6c0-0.4,0.1-0.8,0.3-1.3s0.5-0.9,0.9-1.3c0.4-0.4,1-0.7,1.8-1c0.8-0.3,1.7-0.4,2.8-0.4c0.6,0,1.2,0,1.9,0.1
			c0.7,0.1,1.4,0.2,2.1,0.3v2.2c-0.8-0.2-1.5-0.3-2.2-0.4c-0.7-0.1-1.3-0.1-1.8-0.1c-0.6,0-1.1,0-1.5,0.1c-0.4,0.1-0.8,0.2-1,0.4
			c-0.3,0.2-0.4,0.4-0.6,0.6c-0.1,0.2-0.2,0.5-0.2,0.7c0,0.3,0,0.5,0.1,0.7s0.3,0.4,0.6,0.6c0.3,0.2,0.6,0.4,1.1,0.6
			c0.5,0.2,1.1,0.4,1.9,0.6c0.8,0.2,1.5,0.5,2.1,0.8c0.6,0.3,1,0.6,1.4,0.9c0.4,0.3,0.6,0.7,0.8,1.1S766.7,78.1,766.7,78.6z"/>
		<path fill="#7A8FCC" d="M782.7,82.5h-2.2l-0.1-2.3c-0.4,0.5-0.8,0.9-1.2,1.2c-0.4,0.3-0.8,0.6-1.1,0.8c-0.4,0.2-0.8,0.3-1.1,0.4
			c-0.4,0.1-0.8,0.1-1.2,0.1c-1.5,0-2.6-0.4-3.3-1.3c-0.7-0.9-1.1-2.2-1.1-3.9v-9.3h2.5v9.1c0,2.2,0.8,3.3,2.5,3.3
			c0.3,0,0.6,0,0.9-0.1c0.3-0.1,0.6-0.2,0.9-0.5c0.3-0.2,0.7-0.5,1-0.9c0.4-0.4,0.8-0.9,1.2-1.4v-9.4h2.5V82.5z"/>
		<path fill="#7A8FCC" d="M799.4,75.1c0,1.3-0.2,2.4-0.5,3.3c-0.4,0.9-0.8,1.7-1.5,2.3c-0.6,0.6-1.4,1.1-2.2,1.4
			c-0.8,0.3-1.8,0.5-2.8,0.5c-0.5,0-0.9,0-1.3-0.1s-0.9-0.1-1.4-0.2v5.9h-2.5v-20h2.2l0.2,2.4c0.7-1,1.5-1.7,2.3-2
			c0.8-0.4,1.7-0.6,2.6-0.6c0.8,0,1.5,0.2,2.1,0.5s1.1,0.8,1.5,1.4c0.4,0.6,0.7,1.4,0.9,2.2S799.4,74.1,799.4,75.1z M796.9,75.2
			c0-0.7-0.1-1.4-0.2-2c-0.1-0.6-0.3-1.2-0.5-1.6c-0.2-0.4-0.5-0.8-0.9-1c-0.4-0.2-0.8-0.4-1.3-0.4c-0.3,0-0.6,0-0.9,0.1
			s-0.7,0.3-1,0.5c-0.3,0.2-0.7,0.5-1.1,0.9c-0.4,0.4-0.8,0.9-1.2,1.4V80c0.5,0.2,0.9,0.3,1.4,0.4s1,0.2,1.5,0.2
			c1.3,0,2.4-0.4,3.1-1.3C796.5,78.4,796.9,77.1,796.9,75.2z"/>
		<path fill="#7A8FCC" d="M815.1,74.6c0,0.3,0,0.6,0,0.9c0,0.2,0,0.5,0,0.7h-10c0,1.5,0.4,2.6,1.2,3.3c0.8,0.8,2,1.2,3.5,1.2
			c0.4,0,0.8,0,1.2,0c0.4,0,0.8-0.1,1.2-0.1c0.4-0.1,0.8-0.1,1.1-0.2c0.4-0.1,0.7-0.1,1-0.2v2c-0.7,0.2-1.4,0.3-2.3,0.5
			c-0.8,0.1-1.7,0.2-2.6,0.2c-1.2,0-2.3-0.2-3.1-0.5c-0.9-0.3-1.6-0.8-2.2-1.4c-0.6-0.6-1-1.4-1.2-2.3c-0.3-0.9-0.4-1.9-0.4-3.1
			c0-1,0.1-1.9,0.4-2.8s0.7-1.7,1.3-2.3c0.6-0.7,1.2-1.2,2-1.6c0.8-0.4,1.7-0.6,2.7-0.6c1,0,1.9,0.2,2.6,0.5
			c0.8,0.3,1.4,0.8,1.9,1.3c0.5,0.6,0.9,1.3,1.2,2.1C815,72.7,815.1,73.6,815.1,74.6z M812.6,74.3c0-0.6,0-1.2-0.2-1.7
			c-0.2-0.5-0.4-1-0.7-1.3c-0.3-0.4-0.7-0.7-1.2-0.9c-0.5-0.2-1-0.3-1.6-0.3c-0.5,0-1,0.1-1.5,0.3c-0.4,0.2-0.8,0.5-1.1,0.9
			c-0.3,0.4-0.6,0.8-0.8,1.4c-0.2,0.5-0.3,1.1-0.4,1.7H812.6z"/>
		<path fill="#7A8FCC" d="M819.6,68.3h2.2l0.1,2.6c0.8-1,1.7-1.7,2.5-2.2c0.8-0.5,1.6-0.7,2.5-0.7c1.5,0,2.6,0.5,3.3,1.4
			s1.1,2.4,1.1,4.2h-2.5c0-1.2-0.2-2.1-0.5-2.7s-1-0.8-1.7-0.8c-0.3,0-0.7,0.1-1,0.2c-0.3,0.1-0.7,0.3-1,0.6c-0.4,0.3-0.7,0.6-1.1,1
			c-0.4,0.4-0.8,0.9-1.3,1.5v9.1h-2.5V68.3z"/>
		<path fill="#7A8FCC" d="M844.9,75.9h-8.4v-2.3h8.4V75.9z"/>
		<path fill="#7A8FCC" d="M863,75.1c0,1.2-0.2,2.2-0.5,3.2c-0.3,0.9-0.8,1.7-1.4,2.4c-0.6,0.6-1.3,1.1-2.2,1.5s-1.8,0.5-2.9,0.5
			c-0.8,0-1.7-0.1-2.6-0.2s-1.7-0.4-2.6-0.8V62.5h2.5V68l-0.1,2.6c0.7-1,1.5-1.6,2.3-2c0.8-0.4,1.7-0.6,2.6-0.6
			c0.8,0,1.5,0.2,2.1,0.5s1.1,0.8,1.5,1.4c0.4,0.6,0.7,1.4,0.9,2.2S863,74.1,863,75.1z M860.5,75.2c0-0.7-0.1-1.4-0.2-2
			c-0.1-0.6-0.3-1.2-0.5-1.6c-0.2-0.4-0.5-0.8-0.9-1c-0.4-0.2-0.8-0.4-1.3-0.4c-0.3,0-0.6,0-0.9,0.1s-0.7,0.3-1,0.5
			c-0.3,0.2-0.7,0.5-1.1,0.9c-0.4,0.4-0.8,0.9-1.2,1.4V80c0.5,0.2,1,0.3,1.5,0.4c0.5,0.1,1,0.2,1.4,0.2c0.6,0,1.1-0.1,1.6-0.3
			s1-0.5,1.4-0.9c0.4-0.4,0.7-1,0.9-1.7C860.4,77.1,860.5,76.3,860.5,75.2z"/>
		<path fill="#7A8FCC" d="M878.2,82.5H876l-0.1-2.3c-0.4,0.5-0.8,0.9-1.2,1.2c-0.4,0.3-0.8,0.6-1.1,0.8c-0.4,0.2-0.8,0.3-1.1,0.4
			c-0.4,0.1-0.8,0.1-1.2,0.1c-1.5,0-2.6-0.4-3.3-1.3c-0.7-0.9-1.1-2.2-1.1-3.9v-9.3h2.5v9.1c0,2.2,0.8,3.3,2.5,3.3
			c0.3,0,0.6,0,0.9-0.1c0.3-0.1,0.6-0.2,0.9-0.5c0.3-0.2,0.7-0.5,1-0.9c0.4-0.4,0.8-0.9,1.2-1.4v-9.4h2.5V82.5z"/>
		<path fill="#7A8FCC" d="M894.1,82.3c-0.6,0.1-1.1,0.2-1.7,0.3c-0.6,0.1-1.2,0.1-1.8,0.1c-1.8,0-3.1-0.4-4-1.2
			c-0.9-0.8-1.3-2-1.3-3.7v-7.4h-4v-2.1h4v-3.9l2.5-0.6v4.5h6.4v2.1h-6.4v7.2c0,1,0.3,1.8,0.8,2.3c0.5,0.5,1.3,0.8,2.4,0.8
			c0.5,0,0.9,0,1.5-0.1c0.5-0.1,1.1-0.2,1.7-0.3V82.3z"/>
		<path fill="#7A8FCC" d="M910,82.3c-0.6,0.1-1.1,0.2-1.7,0.3c-0.6,0.1-1.2,0.1-1.8,0.1c-1.8,0-3.1-0.4-4-1.2
			c-0.9-0.8-1.3-2-1.3-3.7v-7.4h-4v-2.1h4v-3.9l2.5-0.6v4.5h6.4v2.1h-6.4v7.2c0,1,0.3,1.8,0.8,2.3c0.5,0.5,1.3,0.8,2.4,0.8
			c0.5,0,0.9,0,1.5-0.1c0.5-0.1,1.1-0.2,1.7-0.3V82.3z"/>
		<path fill="#7A8FCC" d="M926.8,75.3c0,1.1-0.2,2.1-0.5,3c-0.3,0.9-0.8,1.7-1.3,2.4c-0.6,0.7-1.3,1.2-2.1,1.5
			c-0.8,0.4-1.8,0.5-2.9,0.5c-1,0-1.9-0.2-2.7-0.5c-0.8-0.3-1.5-0.8-2-1.4c-0.6-0.6-1-1.4-1.3-2.3s-0.4-1.9-0.4-3.1
			c0-1.1,0.2-2.1,0.5-3c0.3-0.9,0.8-1.7,1.3-2.3c0.6-0.7,1.3-1.2,2.1-1.5c0.8-0.4,1.8-0.5,2.9-0.5c1,0,1.9,0.2,2.7,0.5
			c0.8,0.3,1.5,0.8,2,1.4s1,1.4,1.3,2.3C926.7,73.1,926.8,74.1,926.8,75.3z M924.3,75.4c0-0.9-0.1-1.6-0.3-2.3
			c-0.2-0.7-0.5-1.2-0.8-1.6c-0.4-0.4-0.8-0.8-1.3-1c-0.5-0.2-1.1-0.3-1.7-0.3c-0.7,0-1.4,0.1-1.9,0.4c-0.5,0.3-1,0.7-1.3,1.2
			c-0.3,0.5-0.6,1-0.7,1.7s-0.2,1.3-0.2,2c0,0.9,0.1,1.6,0.3,2.3s0.5,1.2,0.8,1.6c0.4,0.4,0.8,0.8,1.3,1c0.5,0.2,1.1,0.3,1.7,0.3
			c0.7,0,1.4-0.1,1.9-0.4s1-0.7,1.3-1.2c0.3-0.5,0.6-1,0.7-1.7S924.3,76.1,924.3,75.4z"/>
		<path fill="#7A8FCC" d="M930.4,68.3h2.2l0.1,2.3c0.4-0.5,0.8-0.9,1.2-1.2c0.4-0.3,0.8-0.6,1.1-0.8c0.4-0.2,0.8-0.3,1.1-0.4
			c0.4-0.1,0.8-0.1,1.2-0.1c1.5,0,2.6,0.4,3.3,1.3c0.7,0.9,1.1,2.2,1.1,3.9v9.3h-2.5v-9.1c0-1.1-0.2-1.9-0.6-2.5
			c-0.4-0.5-1-0.8-1.9-0.8c-0.3,0-0.6,0-0.9,0.1c-0.3,0.1-0.6,0.2-0.9,0.5c-0.3,0.2-0.6,0.5-1,0.9c-0.4,0.4-0.8,0.8-1.2,1.4v9.4
			h-2.5V68.3z"/>
		<path fill="#7A8FCC" d="M947,68.4l1.5-1.6l9.5,7.9l-9.5,7.9l-1.5-1.6l7.7-6.3L947,68.4z"/>
	</g>
</g>
</svg>
