<?xml version="1.0" encoding="utf-8"?>
<!-- Generator: Adobe Illustrator 18.0.0, SVG Export Plug-In . SVG Version: 6.00 Build 0)  -->
<!DOCTYPE svg PUBLIC "-//W3C//DTD SVG 1.1//EN" "http://www.w3.org/Graphics/SVG/1.1/DTD/svg11.dtd">
<svg version="1.1" id="Calque_1" xmlns="http://www.w3.org/2000/svg" xmlns:xlink="http://www.w3.org/1999/xlink" x="0px" y="0px"
	 viewBox="0 0 960 150" enable-background="new 0 0 960 150" xml:space="preserve">
<g>
	<g>
		<path fill="#E44D26" d="M55.4,115.6L32,51.3l64.5-17.2l11.7,67.4l-24.5,14.4L55.4,115.6z"/>
		<path fill="#F16529" d="M82.3,110.3L102,98.7L91.9,41l-26.4,7L82.3,110.3z"/>
		<path fill="#EFEFEF" d="M127.1,67.3l3.1,10.3l-23,6.4c0,0,0,13.8-11.2,19.4c-11.2,5.5-19.8,0.8-19.8,0.8l-1.4-4l16.5-4.5L95,81.5
			L84.4,71l-15.3,4.6L67.7,72c0,0,7.2-15.8,28.3-6.9c0,0,6.7,4.1,8.1,7.8L127.1,67.3L127.1,67.3z M130,66.6l3.7-1.1l3,10.6l-3.9,1.2
			L130,66.6z"/>
		<path fill="#BCBCBC" d="M131.4,66.1l2.4-0.5l3,10.6l-3.9,1.2l-1.1-3.5l1.6-0.5L131.4,66.1z M124.5,68l2.5-0.6l3.1,10.3l-23,6.4
			c0,0-0.3,12.1-8.2,17.5c-8,5.5-17,5.3-22.7,2.6l-0.6-1.8c0,0,15.6,3.7,23.3-8c4.7-7.7,4.6-13.3,4.6-13.3l23.1-6.2L124.5,68
			L124.5,68z M67.6,72.3L81,68.4l3.2,3l-15.3,4.5L67.6,72.3z"/>
		<path fill="#EFEFEF" d="M20,79.5L22.8,90l23.1-6.2c0,0,7.1,11.9,19.4,10.9c12.4-1.1,17.4-9.4,17.4-9.4l-0.8-4.1l-16.5,4.6L55,75.4
			L58.8,61l15.5-3.9l-0.8-3.8c0,0-14.2-9.9-27.9,8.7c0,0-3.6,7-3.1,10.9L20,79.5L20,79.5z M17.1,80.4l-3.7,0.9l2.9,10.6l3.9-0.9
			L17.1,80.4z"/>
		<path fill="#BCBCBC" d="M15.7,80.6l-2.3,0.7L16.3,92l3.9-0.9l-0.9-3.6l-1.7,0.3L15.7,80.6z M22.4,78.8L20,79.5L22.8,90l23.1-6.2
			c0,0,6.3,10.2,16,10.8s17.3-4.1,20.9-9.4l-0.4-1.9c0,0-11.5,11.2-24.3,5.1c-7.9-4.2-10.8-9.2-10.8-9.2l-23.1,6.4
			C24.3,85.7,22.4,78.8,22.4,78.8z M73.5,53.3L60,56.8l-1.1,4.1L74.4,57L73.5,53.3z"/>
		<g enable-background="new    ">
			<path fill="#666666" d="M182.7,54.1l4.7-23.2h5.3l-7.1,30.8h-5.1l-5.9-22.5l-6,22.5h-5.1l-7.1-30.8h5.3l4.8,23.1l5.9-23.1h4.5
				L182.7,54.1z"/>
			<path fill="#666666" d="M205.6,62.1c-3.3,0-5.9-1-7.9-3.1s-3-4.8-3-8.2v-0.6c0-2.3,0.4-4.3,1.3-6.1c0.9-1.8,2.1-3.2,3.7-4.2
				c1.6-1,3.4-1.5,5.3-1.5c3.1,0,5.5,1,7.2,3s2.5,4.8,2.5,8.4v2.1h-14.9c0.2,1.9,0.8,3.4,1.9,4.5c1.1,1.1,2.5,1.6,4.2,1.6
				c2.4,0,4.3-1,5.8-2.9l2.8,2.6c-0.9,1.4-2.1,2.4-3.7,3.2C209.2,61.7,207.5,62.1,205.6,62.1z M205,42.5c-1.4,0-2.5,0.5-3.4,1.5
				s-1.4,2.4-1.7,4.1h9.8v-0.4c-0.1-1.7-0.6-3-1.4-3.9C207.5,43,206.4,42.5,205,42.5z"/>
			<path fill="#666666" d="M238.8,50.5c0,3.6-0.8,6.4-2.4,8.5c-1.6,2.1-3.8,3.2-6.5,3.2s-4.8-1-6.3-2.9l-0.3,2.5h-4.7V29.2h5.1V41
				c1.5-1.7,3.5-2.6,6-2.6c2.8,0,5,1,6.6,3.1s2.4,5,2.4,8.7L238.8,50.5L238.8,50.5z M233.7,50.1c0-2.5-0.4-4.3-1.3-5.6
				c-0.9-1.2-2.1-1.9-3.8-1.9c-2.2,0-3.8,1-4.7,2.9V55c0.9,2,2.5,3,4.7,3c1.6,0,2.8-0.6,3.7-1.8s1.3-3,1.4-5.4L233.7,50.1
				L233.7,50.1z"/>
		</g>
		<g enable-background="new    ">
			<path fill="#666666" d="M180.6,104.2c-0.3,3.2-1.4,5.6-3.3,7.3c-1.9,1.7-4.5,2.5-7.7,2.5c-2.2,0-4.1-0.6-5.8-1.7s-3-2.7-3.9-4.7
				s-1.4-4.4-1.4-7v-4.8c0-2.6,0.5-5,1.4-7c0.9-2.1,2.2-3.7,3.9-4.8c1.7-1.1,3.6-1.7,5.8-1.7c3.2,0,5.8,0.8,7.7,2.5s3,4.1,3.3,7.3
				h-1.1c-0.3-2.8-1.3-5-3-6.5s-3.9-2.2-6.9-2.2s-5.4,1.1-7.2,3.4s-2.8,5.3-2.8,9.1v4.5c0,2.4,0.4,4.6,1.2,6.4
				c0.8,1.9,2,3.3,3.5,4.4c1.5,1,3.3,1.6,5.3,1.6c2.9,0,5.2-0.7,6.9-2.2s2.6-3.6,2.9-6.5L180.6,104.2L180.6,104.2z"/>
			<path fill="#666666" d="M185.4,101.7c0-2.2,0.4-4.1,1.3-5.9c0.8-1.7,2-3.1,3.6-4.1c1.5-1,3.3-1.5,5.2-1.5s3.6,0.5,5.2,1.4
				c1.5,0.9,2.7,2.3,3.6,4c0.9,1.7,1.3,3.7,1.3,5.9v1c0,2.2-0.4,4.2-1.2,5.9c-0.8,1.7-2,3.1-3.5,4.1s-3.3,1.5-5.2,1.5
				s-3.7-0.5-5.2-1.4c-1.5-1-2.7-2.3-3.6-4s-1.3-3.7-1.3-5.8v-1.1H185.4z M186.5,102.6c0,1.9,0.4,3.6,1.1,5.2
				c0.8,1.6,1.8,2.8,3.1,3.7c1.3,0.9,2.9,1.3,4.6,1.3c2.6,0,4.7-1,6.4-2.9c1.6-2,2.5-4.5,2.5-7.6v-0.7c0-1.9-0.4-3.6-1.1-5.2
				s-1.8-2.8-3.2-3.7c-1.3-0.9-2.9-1.3-4.6-1.3c-2.6,0-4.7,1-6.4,3s-2.5,4.5-2.5,7.5L186.5,102.6L186.5,102.6z"/>
			<path fill="#666666" d="M227.3,113.6h-1.1V98.3c0-2.3-0.5-4-1.5-5.1s-2.6-1.7-4.7-1.7c-2.5,0-4.6,1.1-6.2,3.3
				c-0.9,1.3-1.6,2.8-1.9,4.4v14.4h-1.2V90.7h1.2v5.4c0.8-1.9,1.9-3.3,3.3-4.3c1.4-1,3-1.5,4.8-1.5c1.9,0,3.5,0.4,4.7,1.3
				s2,2.2,2.4,4.1c0.7-1.6,1.8-3,3.3-3.9c1.5-1,3.2-1.5,5.1-1.5c2.5,0,4.3,0.7,5.5,2.1s1.8,3.5,1.8,6.3v14.9h-1.1V98.8
				c0-2.5-0.5-4.4-1.5-5.6s-2.6-1.8-4.7-1.8c-2.8,0-5,1.1-6.6,3.3c-0.9,1.3-1.4,2.5-1.5,3.6v15.3
				C227.4,113.6,227.3,113.6,227.3,113.6z"/>
			<path fill="#666666" d="M267.2,102.4c0,3.6-0.8,6.4-2.3,8.5s-3.6,3.2-6.3,3.2c-1.7,0-3.3-0.4-4.6-1.1c-1.4-0.7-2.4-1.7-3.2-2.9
				v12.3h-1.1V90.7h1.1v4.1c0.8-1.5,1.9-2.6,3.2-3.3c1.3-0.8,2.9-1.2,4.6-1.2c2.7,0,4.8,1,6.3,3.1s2.3,4.9,2.3,8.6V102.4z
				 M266.1,101.9c0-3.3-0.7-5.9-2-7.7s-3.1-2.8-5.5-2.8c-1.9,0-3.5,0.5-4.9,1.5c-1.3,1-2.3,2.4-2.9,4.3v10.7
				c0.6,1.6,1.6,2.8,2.9,3.7c1.3,0.9,3,1.3,4.9,1.3c2.3,0,4.2-0.9,5.5-2.8S266.1,105.5,266.1,101.9z"/>
			<path fill="#666666" d="M271.7,101.7c0-2.2,0.4-4.1,1.3-5.9c0.8-1.7,2-3.1,3.6-4.1c1.5-1,3.3-1.5,5.2-1.5c1.9,0,3.6,0.5,5.2,1.4
				c1.5,0.9,2.7,2.3,3.6,4s1.3,3.7,1.3,5.9v1c0,2.2-0.4,4.2-1.2,5.9c-0.8,1.7-2,3.1-3.5,4.1s-3.3,1.5-5.2,1.5
				c-1.9,0-3.7-0.5-5.2-1.4c-1.5-1-2.7-2.3-3.6-4s-1.3-3.7-1.3-5.8v-1.1H271.7z M272.9,102.6c0,1.9,0.4,3.6,1.1,5.2
				c0.8,1.6,1.8,2.8,3.1,3.7c1.3,0.9,2.9,1.3,4.6,1.3c2.6,0,4.7-1,6.4-2.9c1.6-2,2.5-4.5,2.5-7.6v-0.7c0-1.9-0.4-3.6-1.1-5.2
				s-1.8-2.8-3.2-3.7c-1.3-0.9-2.9-1.3-4.6-1.3c-2.6,0-4.7,1-6.4,3s-2.5,4.5-2.5,7.5v0.7H272.9z"/>
			<path fill="#666666" d="M298.4,96.1c0.7-1.8,1.8-3.2,3.3-4.2s3.1-1.5,4.8-1.5c2.5,0,4.3,0.7,5.5,2.1s1.8,3.5,1.8,6.3v14.9h-1.1
				v-15c0-2.5-0.5-4.3-1.5-5.4c-1-1.2-2.6-1.8-4.7-1.8c-2,0-3.7,0.7-5.1,2.1s-2.4,3.2-2.9,5.4v14.6h-1.1V90.7h1.1L298.4,96.1
				L298.4,96.1z"/>
			<path fill="#666666" d="M329.2,114c-1.8,0-3.5-0.5-5.1-1.5c-1.5-1-2.8-2.4-3.6-4.1c-0.9-1.7-1.3-3.7-1.3-5.8v-1
				c0-2.1,0.4-4.1,1.3-5.8c0.8-1.8,2-3.1,3.5-4.1s3.1-1.5,4.8-1.5c2.6,0,4.6,0.9,6.3,2.7c1.6,1.8,2.4,4.2,2.4,7.2v1.2h-17.1v1.2
				c0,1.9,0.4,3.6,1.2,5.2s1.9,2.8,3.2,3.7c1.4,0.9,2.9,1.4,4.5,1.4c1.5,0,2.8-0.3,3.9-0.8s2-1.3,2.9-2.4l0.8,0.6
				C335.1,112.8,332.6,114,329.2,114z M328.8,91.5c-2.2,0-4.1,0.8-5.7,2.5s-2.5,3.8-2.7,6.3h15.9V100c0-1.6-0.3-3-1-4.3
				s-1.6-2.4-2.7-3.1C331.5,91.8,330.2,91.5,328.8,91.5z"/>
			<path fill="#666666" d="M343.9,96.1c0.7-1.8,1.8-3.2,3.3-4.2s3.1-1.5,4.8-1.5c2.5,0,4.3,0.7,5.5,2.1s1.8,3.5,1.8,6.3v14.9h-1.1
				v-15c0-2.5-0.5-4.3-1.5-5.4c-1-1.2-2.6-1.8-4.7-1.8c-2,0-3.7,0.7-5.1,2.1s-2.4,3.2-2.9,5.4v14.6h-1.1V90.7h1.1L343.9,96.1
				L343.9,96.1z"/>
			<path fill="#666666" d="M369.1,84.6v6.2h5.2v1.1h-5.2v16.3c0,1.6,0.3,2.8,0.8,3.6c0.5,0.8,1.4,1.2,2.7,1.2c0.6,0,1.4-0.1,2.3-0.2
				l0.2,1.1c-0.5,0.2-1.3,0.3-2.4,0.3c-1.7,0-2.9-0.5-3.6-1.4s-1.1-2.4-1.1-4.4V91.9h-4.2v-1.1h4.2v-6.2
				C368,84.6,369.1,84.6,369.1,84.6z"/>
			<path fill="#666666" d="M394.3,108c0-2.8-2.4-4.7-7.1-5.7c-2.8-0.6-4.8-1.4-5.9-2.3c-1.1-1-1.7-2.3-1.7-3.9
				c0-1.7,0.7-3.1,2.1-4.1c1.4-1.1,3.3-1.6,5.5-1.6c2.5,0,4.4,0.6,5.9,1.8s2.2,2.8,2.2,4.8h-1.2c0-1.5-0.6-2.8-1.9-3.8
				s-3-1.5-5.1-1.5c-2,0-3.6,0.4-4.8,1.3c-1.2,0.9-1.8,2-1.8,3.3c0,1,0.2,1.8,0.7,2.4s1.1,1.1,2.1,1.6s2.4,0.9,4.3,1.4
				c1.9,0.4,3.4,1,4.5,1.5c1.1,0.6,1.9,1.3,2.4,2.1c0.5,0.8,0.7,1.8,0.7,3c0,1.8-0.7,3.3-2.2,4.4s-3.4,1.6-5.8,1.6
				c-2.6,0-4.6-0.6-6.2-1.7s-2.4-2.7-2.4-4.5h1.1c0.1,1.6,0.8,2.9,2.1,3.8c1.3,0.9,3.1,1.3,5.3,1.3c2,0,3.7-0.5,5-1.4
				C393.7,110.5,394.3,109.4,394.3,108z"/>
		</g>
	</g>
	<g enable-background="new    ">
		<path fill="#594C24" d="M449.9,75.5c0-0.9,0.1-1.8,0.4-2.5s0.6-1.4,1.1-1.9s1-0.9,1.7-1.2s1.4-0.4,2.2-0.4c0.4,0,0.7,0,1,0.1
			s0.7,0.1,1,0.2v-4.7h1.9v15.6h-1.7l-0.1-2.1c-0.5,0.8-1.1,1.4-1.7,1.7c-0.6,0.4-1.3,0.6-2,0.6c-0.6,0-1.2-0.1-1.7-0.4
			c-0.5-0.3-0.9-0.6-1.2-1.1c-0.3-0.5-0.6-1.1-0.7-1.7C450,77.1,449.9,76.4,449.9,75.5z M451.9,75.4c0,1.3,0.2,2.3,0.6,3
			c0.4,0.7,1,1,1.7,1c0.5,0,1-0.2,1.5-0.7s1.1-1.1,1.7-1.9v-5.2c-0.3-0.1-0.7-0.3-1.1-0.3c-0.4-0.1-0.8-0.1-1.1-0.1
			c-1,0-1.9,0.3-2.4,1C452.2,72.9,451.9,74,451.9,75.4z"/>
		<path fill="#594C24" d="M472.6,75.2c0,0.9-0.1,1.7-0.4,2.4c-0.2,0.7-0.6,1.3-1.1,1.8c-0.5,0.5-1,0.9-1.7,1.2
			c-0.7,0.3-1.4,0.4-2.2,0.4c-0.8,0-1.5-0.1-2.1-0.4c-0.6-0.2-1.2-0.6-1.6-1.1c-0.4-0.5-0.8-1.1-1-1.8c-0.2-0.7-0.3-1.5-0.3-2.4
			c0-0.9,0.1-1.7,0.4-2.4c0.2-0.7,0.6-1.3,1.1-1.8c0.5-0.5,1-0.9,1.7-1.2c0.7-0.3,1.4-0.4,2.2-0.4c0.8,0,1.5,0.1,2.1,0.4
			c0.6,0.2,1.2,0.6,1.6,1.1c0.4,0.5,0.8,1.1,1,1.8C472.5,73.5,472.6,74.3,472.6,75.2z M470.6,75.3c0-0.7-0.1-1.3-0.2-1.8
			c-0.2-0.5-0.4-0.9-0.6-1.3c-0.3-0.3-0.6-0.6-1-0.8c-0.4-0.2-0.8-0.3-1.3-0.3c-0.6,0-1.1,0.1-1.5,0.3s-0.7,0.5-1,0.9
			s-0.5,0.8-0.6,1.3s-0.2,1-0.2,1.6c0,0.7,0.1,1.3,0.2,1.8c0.2,0.5,0.4,0.9,0.6,1.3s0.6,0.6,1,0.8c0.4,0.2,0.8,0.3,1.3,0.3
			c0.6,0,1.1-0.1,1.5-0.3c0.4-0.2,0.7-0.5,1-0.9s0.5-0.8,0.6-1.3S470.6,75.9,470.6,75.3z"/>
		<path fill="#594C24" d="M484,80.4c-0.5,0.2-1,0.3-1.5,0.4s-1.1,0.1-1.6,0.1c-1.8,0-3.1-0.5-4.1-1.4c-0.9-1-1.4-2.3-1.4-4.2
			c0-0.9,0.1-1.7,0.4-2.4c0.3-0.7,0.7-1.3,1.2-1.8s1.1-0.9,1.8-1.2c0.7-0.3,1.4-0.4,2.3-0.4c0.6,0,1.1,0,1.6,0.1
			c0.5,0.1,1,0.2,1.4,0.4V72c-0.5-0.3-1-0.4-1.5-0.5s-1-0.2-1.5-0.2c-0.5,0-1,0.1-1.4,0.3c-0.4,0.2-0.8,0.5-1.2,0.8
			c-0.3,0.4-0.6,0.8-0.8,1.3s-0.3,1.1-0.3,1.7c0,1.3,0.3,2.3,1,3c0.7,0.7,1.6,1,2.7,1c0.5,0,1-0.1,1.5-0.2c0.5-0.1,1-0.3,1.4-0.5
			V80.4z"/>
		<path fill="#594C24" d="M496.8,80.9H495l-0.1-1.8c-0.3,0.4-0.6,0.7-0.9,1c-0.3,0.3-0.6,0.5-0.9,0.6c-0.3,0.2-0.6,0.3-0.9,0.3
			c-0.3,0.1-0.6,0.1-0.9,0.1c-1.1,0-2-0.3-2.6-1c-0.6-0.7-0.9-1.7-0.9-3v-7.3h1.9v7.1c0,1.7,0.6,2.6,1.9,2.6c0.2,0,0.5,0,0.7-0.1
			c0.2-0.1,0.5-0.2,0.7-0.4c0.2-0.2,0.5-0.4,0.8-0.7s0.6-0.7,1-1.1v-7.4h1.9V80.9z"/>
		<path fill="#594C24" d="M508.2,80.9v-8c0-0.3,0-0.6,0-0.9c0-0.2-0.1-0.4-0.1-0.5c-0.1-0.1-0.1-0.2-0.2-0.3
			c-0.1-0.1-0.2-0.1-0.3-0.1c-0.1,0-0.3,0-0.4,0.1c-0.1,0.1-0.3,0.2-0.4,0.4c-0.1,0.2-0.3,0.5-0.5,0.8c-0.2,0.3-0.4,0.7-0.6,1.2v7.1
			h-1.8v-7.8c0-0.4,0-0.7,0-1c0-0.3-0.1-0.4-0.1-0.6c-0.1-0.1-0.1-0.2-0.2-0.3c-0.1-0.1-0.2-0.1-0.3-0.1c-0.1,0-0.3,0-0.4,0.1
			c-0.1,0.1-0.2,0.2-0.4,0.4c-0.1,0.2-0.3,0.5-0.5,0.8c-0.2,0.3-0.4,0.8-0.6,1.3v7.1h-1.8V69.7h1.5l0.1,2.1c0.2-0.4,0.4-0.8,0.6-1.1
			s0.4-0.5,0.6-0.7c0.2-0.2,0.4-0.3,0.6-0.4s0.5-0.1,0.7-0.1c0.6,0,1.1,0.2,1.4,0.6c0.3,0.4,0.5,1,0.5,1.8c0.2-0.4,0.3-0.7,0.5-1
			s0.4-0.5,0.5-0.8s0.4-0.4,0.6-0.5c0.2-0.1,0.5-0.2,0.8-0.2c1.4,0,2.1,1.1,2.1,3.2v8.1H508.2z"/>
		<path fill="#594C24" d="M522.1,74.7c0,0.3,0,0.5,0,0.7c0,0.2,0,0.4,0,0.5h-7.8c0,1.1,0.3,2,1,2.6c0.6,0.6,1.5,0.9,2.7,0.9
			c0.3,0,0.6,0,1,0c0.3,0,0.6-0.1,0.9-0.1c0.3,0,0.6-0.1,0.9-0.1c0.3-0.1,0.5-0.1,0.8-0.2v1.6c-0.5,0.1-1.1,0.3-1.8,0.4
			c-0.7,0.1-1.3,0.1-2.1,0.1c-1,0-1.8-0.1-2.5-0.4c-0.7-0.3-1.2-0.6-1.7-1.1c-0.4-0.5-0.8-1.1-1-1.8c-0.2-0.7-0.3-1.5-0.3-2.4
			c0-0.8,0.1-1.5,0.3-2.2c0.2-0.7,0.6-1.3,1-1.8c0.4-0.5,1-0.9,1.6-1.3s1.3-0.5,2.1-0.5c0.8,0,1.5,0.1,2.1,0.4
			c0.6,0.2,1.1,0.6,1.5,1s0.7,1,0.9,1.6C522,73.2,522.1,73.9,522.1,74.7z M520.1,74.4c0-0.5,0-0.9-0.1-1.4s-0.3-0.8-0.5-1.1
			s-0.6-0.5-0.9-0.7c-0.4-0.2-0.8-0.2-1.3-0.2c-0.4,0-0.8,0.1-1.2,0.2s-0.6,0.4-0.9,0.7s-0.5,0.6-0.6,1.1s-0.3,0.9-0.3,1.4H520.1z"
			/>
		<path fill="#594C24" d="M525.2,69.7h1.7l0.1,1.8c0.3-0.4,0.6-0.7,0.9-1c0.3-0.3,0.6-0.5,0.9-0.6c0.3-0.2,0.6-0.3,0.9-0.3
			c0.3-0.1,0.6-0.1,0.9-0.1c1.1,0,2,0.3,2.6,1c0.6,0.7,0.9,1.7,0.9,3v7.2h-1.9v-7.1c0-0.9-0.2-1.5-0.5-1.9c-0.3-0.4-0.8-0.6-1.4-0.6
			c-0.2,0-0.5,0-0.7,0.1c-0.2,0.1-0.5,0.2-0.7,0.4c-0.2,0.2-0.5,0.4-0.8,0.7c-0.3,0.3-0.6,0.7-1,1.1v7.4h-1.9V69.7z"/>
		<path fill="#594C24" d="M546.6,80.7c-0.4,0.1-0.9,0.2-1.3,0.2c-0.5,0-0.9,0.1-1.4,0.1c-1.4,0-2.4-0.3-3.1-0.9
			c-0.7-0.6-1-1.6-1-2.9v-5.8h-3.1v-1.6h3.1v-3.1l1.9-0.5v3.6h5v1.6h-5V77c0,0.8,0.2,1.4,0.6,1.8s1,0.6,1.9,0.6c0.4,0,0.7,0,1.2-0.1
			c0.4-0.1,0.9-0.1,1.3-0.3V80.7z"/>
	</g>
	<g enable-background="new    ">
		<path d="M554.5,77.4c0.3,0,0.5,0,0.7,0.1c0.2,0.1,0.4,0.2,0.6,0.4c0.2,0.2,0.3,0.4,0.4,0.6c0.1,0.2,0.1,0.5,0.1,0.7
			c0,0.3,0,0.5-0.1,0.7c-0.1,0.2-0.2,0.4-0.4,0.6c-0.2,0.2-0.4,0.3-0.6,0.4s-0.5,0.1-0.7,0.1c-0.3,0-0.5,0-0.7-0.1
			c-0.2-0.1-0.4-0.2-0.6-0.4c-0.2-0.2-0.3-0.4-0.4-0.6c-0.1-0.2-0.1-0.5-0.1-0.7c0-0.3,0-0.5,0.1-0.7c0.1-0.2,0.2-0.4,0.4-0.6
			s0.4-0.3,0.6-0.4C554,77.4,554.2,77.4,554.5,77.4z"/>
		<path d="M563,69.7h1.8l0.1,2c0.7-0.8,1.3-1.4,1.9-1.7c0.6-0.4,1.3-0.5,1.9-0.5c1.2,0,2,0.4,2.6,1.1s0.9,1.9,0.8,3.3h-1.9
			c0-1-0.1-1.7-0.4-2.1s-0.8-0.7-1.3-0.7c-0.3,0-0.5,0-0.8,0.1c-0.3,0.1-0.5,0.2-0.8,0.4c-0.3,0.2-0.6,0.5-0.9,0.8
			c-0.3,0.3-0.6,0.7-1,1.2v7.1H563V69.7z"/>
		<path d="M584.4,74.7c0,0.3,0,0.5,0,0.7c0,0.2,0,0.4,0,0.5h-7.8c0,1.1,0.3,2,1,2.6s1.5,0.9,2.7,0.9c0.3,0,0.6,0,1,0
			c0.3,0,0.6-0.1,0.9-0.1c0.3,0,0.6-0.1,0.9-0.1c0.3-0.1,0.5-0.1,0.8-0.2v1.6c-0.5,0.1-1.1,0.3-1.8,0.4c-0.7,0.1-1.3,0.1-2.1,0.1
			c-1,0-1.8-0.1-2.5-0.4c-0.7-0.3-1.2-0.6-1.7-1.1s-0.8-1.1-1-1.8c-0.2-0.7-0.3-1.5-0.3-2.4c0-0.8,0.1-1.5,0.3-2.2
			c0.2-0.7,0.6-1.3,1-1.8s1-0.9,1.6-1.3c0.6-0.3,1.3-0.5,2.1-0.5c0.8,0,1.5,0.1,2.1,0.4c0.6,0.2,1.1,0.6,1.5,1
			c0.4,0.4,0.7,1,0.9,1.6S584.4,73.9,584.4,74.7z M582.4,74.4c0-0.5,0-0.9-0.1-1.4s-0.3-0.8-0.5-1.1s-0.6-0.5-0.9-0.7
			c-0.4-0.2-0.8-0.2-1.3-0.2c-0.4,0-0.8,0.1-1.2,0.2s-0.6,0.4-0.9,0.7c-0.3,0.3-0.5,0.6-0.6,1.1c-0.2,0.4-0.3,0.9-0.3,1.4H582.4z"/>
		<path d="M595.5,71.3c0.2,0.3,0.4,0.6,0.5,0.9c0.1,0.3,0.2,0.7,0.2,1.1c0,0.6-0.1,1.1-0.3,1.6c-0.2,0.5-0.5,0.9-0.9,1.2
			c-0.4,0.3-0.8,0.6-1.4,0.8c-0.5,0.2-1.1,0.3-1.8,0.3c-0.5,0-0.9,0-1.3-0.1s-0.7-0.2-1-0.4c-0.1,0.2-0.3,0.4-0.4,0.6
			s-0.1,0.4-0.1,0.6c0,0.3,0.1,0.5,0.4,0.7c0.3,0.2,0.6,0.3,1.1,0.3l2.9,0.1c0.6,0,1.1,0.1,1.5,0.2c0.5,0.1,0.9,0.3,1.2,0.5
			c0.3,0.2,0.6,0.5,0.8,0.9c0.2,0.3,0.3,0.7,0.3,1.2c0,0.5-0.1,1-0.3,1.4s-0.5,0.8-1,1.2c-0.4,0.3-1,0.6-1.7,0.8
			c-0.7,0.2-1.5,0.3-2.4,0.3c-0.9,0-1.7-0.1-2.3-0.2c-0.6-0.1-1.1-0.3-1.6-0.6c-0.4-0.3-0.7-0.6-0.9-0.9s-0.3-0.7-0.3-1.2
			c0-0.5,0.1-1,0.4-1.4c0.3-0.4,0.6-0.8,1.2-1.2c-0.2-0.1-0.4-0.2-0.5-0.3c-0.1-0.1-0.3-0.3-0.3-0.4c-0.1-0.2-0.2-0.3-0.2-0.5
			c0-0.2-0.1-0.3-0.1-0.5c0-0.5,0.1-0.9,0.3-1.3s0.5-0.8,0.8-1.1c-0.1-0.2-0.3-0.3-0.4-0.5c-0.1-0.2-0.2-0.3-0.3-0.5
			c-0.1-0.2-0.1-0.4-0.2-0.6c0-0.2-0.1-0.5-0.1-0.7c0-0.6,0.1-1.1,0.3-1.6s0.5-0.9,0.9-1.2c0.4-0.3,0.8-0.6,1.4-0.8
			c0.5-0.2,1.1-0.3,1.8-0.3c0.3,0,0.5,0,0.8,0.1c0.3,0,0.5,0.1,0.7,0.1h4v1.6H595.5z M588.8,82.5c0,0.5,0.3,0.9,0.8,1.1
			c0.5,0.2,1.3,0.4,2.3,0.4c0.6,0,1.1-0.1,1.5-0.2s0.8-0.3,1-0.4c0.3-0.2,0.4-0.4,0.5-0.6c0.1-0.2,0.2-0.5,0.2-0.7
			c0-0.5-0.2-0.8-0.6-1s-0.9-0.3-1.7-0.4l-2.9-0.1c-0.2,0.2-0.4,0.3-0.6,0.5c-0.2,0.2-0.3,0.3-0.4,0.5c-0.1,0.2-0.2,0.3-0.2,0.5
			C588.8,82.1,588.8,82.3,588.8,82.5z M589.4,73.4c0,0.4,0.1,0.7,0.2,1s0.3,0.5,0.5,0.8c0.2,0.2,0.5,0.4,0.8,0.5
			c0.3,0.1,0.6,0.2,1,0.2c0.4,0,0.7-0.1,1-0.2c0.3-0.1,0.5-0.3,0.8-0.5c0.2-0.2,0.4-0.5,0.5-0.8c0.1-0.3,0.2-0.6,0.2-0.9
			c0-0.4-0.1-0.7-0.2-1c-0.1-0.3-0.3-0.5-0.5-0.8c-0.2-0.2-0.5-0.4-0.8-0.5c-0.3-0.1-0.6-0.2-1-0.2c-0.4,0-0.7,0.1-1,0.2
			s-0.5,0.3-0.8,0.5c-0.2,0.2-0.4,0.5-0.5,0.8C589.5,72.8,589.4,73.1,589.4,73.4z"/>
		<path d="M603.7,71.3h-3.3v-1.6h5.2v9.5h3.3v1.6h-8.9v-1.6h3.7V71.3z M604.4,65.1c0.2,0,0.4,0,0.6,0.1s0.3,0.2,0.5,0.3
			c0.1,0.1,0.2,0.3,0.3,0.5s0.1,0.4,0.1,0.6c0,0.2,0,0.4-0.1,0.6c-0.1,0.2-0.2,0.3-0.3,0.5c-0.1,0.1-0.3,0.2-0.5,0.3
			s-0.4,0.1-0.6,0.1s-0.4,0-0.6-0.1c-0.2-0.1-0.3-0.2-0.5-0.3c-0.1-0.1-0.2-0.3-0.3-0.5c-0.1-0.2-0.1-0.4-0.1-0.6
			c0-0.2,0-0.4,0.1-0.6c0.1-0.2,0.2-0.3,0.3-0.5c0.1-0.1,0.3-0.2,0.5-0.3C604,65.1,604.2,65.1,604.4,65.1z"/>
		<path d="M621.2,77.8c0,0.4-0.1,0.7-0.2,1.1c-0.1,0.3-0.3,0.6-0.5,0.8c-0.2,0.2-0.5,0.4-0.8,0.6s-0.6,0.3-1,0.4
			c-0.3,0.1-0.7,0.2-1.1,0.2c-0.4,0.1-0.7,0.1-1.1,0.1c-0.8,0-1.4,0-2.1-0.1s-1.2-0.2-1.9-0.3v-1.8c0.6,0.2,1.3,0.3,1.9,0.4
			s1.3,0.1,1.9,0.1c0.9,0,1.6-0.1,2-0.4s0.7-0.6,0.7-1.1c0-0.2,0-0.4-0.1-0.5c-0.1-0.2-0.2-0.3-0.4-0.5c-0.2-0.1-0.5-0.3-0.9-0.4
			c-0.4-0.2-0.9-0.3-1.6-0.5c-0.5-0.1-1-0.3-1.4-0.5c-0.4-0.2-0.8-0.4-1.1-0.7c-0.3-0.3-0.6-0.6-0.7-0.9c-0.2-0.3-0.3-0.8-0.3-1.2
			c0-0.3,0.1-0.6,0.2-1c0.1-0.4,0.4-0.7,0.7-1c0.3-0.3,0.8-0.6,1.4-0.8c0.6-0.2,1.3-0.3,2.2-0.3c0.4,0,0.9,0,1.4,0.1
			c0.5,0,1.1,0.1,1.7,0.2v1.7c-0.6-0.1-1.2-0.3-1.7-0.3c-0.5-0.1-1-0.1-1.4-0.1c-0.5,0-0.9,0-1.2,0.1c-0.3,0.1-0.6,0.2-0.8,0.3
			c-0.2,0.1-0.3,0.3-0.4,0.5c-0.1,0.2-0.1,0.4-0.1,0.6c0,0.2,0,0.4,0.1,0.5s0.2,0.3,0.4,0.5s0.5,0.3,0.9,0.5
			c0.4,0.2,0.9,0.3,1.5,0.5c0.7,0.2,1.2,0.4,1.7,0.6c0.4,0.2,0.8,0.4,1.1,0.7s0.5,0.5,0.6,0.9C621.1,77,621.2,77.4,621.2,77.8z"/>
		<path d="M633.8,80.7c-0.4,0.1-0.9,0.2-1.3,0.2S631.5,81,631,81c-1.4,0-2.4-0.3-3.1-0.9s-1-1.6-1-2.9v-5.8h-3.1v-1.6h3.1v-3.1
			l1.9-0.5v3.6h5v1.6h-5V77c0,0.8,0.2,1.4,0.6,1.8s1,0.6,1.9,0.6c0.4,0,0.7,0,1.2-0.1c0.4-0.1,0.9-0.1,1.3-0.3V80.7z"/>
		<path d="M646.7,74.7c0,0.3,0,0.5,0,0.7c0,0.2,0,0.4,0,0.5h-7.8c0,1.1,0.3,2,1,2.6s1.5,0.9,2.7,0.9c0.3,0,0.6,0,1,0
			c0.3,0,0.6-0.1,0.9-0.1c0.3,0,0.6-0.1,0.9-0.1c0.3-0.1,0.5-0.1,0.8-0.2v1.6c-0.5,0.1-1.1,0.3-1.8,0.4c-0.7,0.1-1.3,0.1-2.1,0.1
			c-1,0-1.8-0.1-2.5-0.4c-0.7-0.3-1.2-0.6-1.7-1.1s-0.8-1.1-1-1.8c-0.2-0.7-0.3-1.5-0.3-2.4c0-0.8,0.1-1.5,0.3-2.2
			c0.2-0.7,0.6-1.3,1-1.8s1-0.9,1.6-1.3c0.6-0.3,1.3-0.5,2.1-0.5c0.8,0,1.5,0.1,2.1,0.4c0.6,0.2,1.1,0.6,1.5,1
			c0.4,0.4,0.7,1,0.9,1.6S646.7,73.9,646.7,74.7z M644.7,74.4c0-0.5,0-0.9-0.1-1.4s-0.3-0.8-0.5-1.1s-0.6-0.5-0.9-0.7
			c-0.4-0.2-0.8-0.2-1.3-0.2c-0.4,0-0.8,0.1-1.2,0.2s-0.6,0.4-0.9,0.7c-0.3,0.3-0.5,0.6-0.6,1.1c-0.2,0.4-0.3,0.9-0.3,1.4H644.7z"/>
		<path d="M650.2,69.7h1.8l0.1,2c0.7-0.8,1.3-1.4,1.9-1.7c0.6-0.4,1.3-0.5,1.9-0.5c1.2,0,2,0.4,2.6,1.1s0.9,1.9,0.8,3.3h-1.9
			c0-1-0.1-1.7-0.4-2.1s-0.8-0.7-1.3-0.7c-0.3,0-0.5,0-0.8,0.1c-0.3,0.1-0.5,0.2-0.8,0.4c-0.3,0.2-0.6,0.5-0.9,0.8
			c-0.3,0.3-0.6,0.7-1,1.2v7.1h-1.9V69.7z"/>
		<path d="M670.9,80.9h-8.2V66.4h8.2v1.7h-6.2v4.5h6v1.7h-6v5h6.2V80.9z"/>
		<path d="M678.5,66.8h-3.3v-1.6h5.2v14h3.3v1.6h-8.9v-1.6h3.7V66.8z"/>
		<path d="M696.5,74.7c0,0.3,0,0.5,0,0.7c0,0.2,0,0.4,0,0.5h-7.8c0,1.1,0.3,2,1,2.6c0.6,0.6,1.5,0.9,2.7,0.9c0.3,0,0.6,0,1,0
			c0.3,0,0.6-0.1,0.9-0.1c0.3,0,0.6-0.1,0.9-0.1c0.3-0.1,0.5-0.1,0.8-0.2v1.6c-0.5,0.1-1.1,0.3-1.8,0.4c-0.7,0.1-1.3,0.1-2.1,0.1
			c-1,0-1.8-0.1-2.5-0.4c-0.7-0.3-1.2-0.6-1.7-1.1c-0.4-0.5-0.8-1.1-1-1.8c-0.2-0.7-0.3-1.5-0.3-2.4c0-0.8,0.1-1.5,0.3-2.2
			c0.2-0.7,0.6-1.3,1-1.8c0.4-0.5,1-0.9,1.6-1.3s1.3-0.5,2.1-0.5c0.8,0,1.5,0.1,2.1,0.4c0.6,0.2,1.1,0.6,1.5,1s0.7,1,0.9,1.6
			C696.4,73.2,696.5,73.9,696.5,74.7z M694.5,74.4c0-0.5,0-0.9-0.1-1.4s-0.3-0.8-0.5-1.1s-0.6-0.5-0.9-0.7c-0.4-0.2-0.8-0.2-1.3-0.2
			c-0.4,0-0.8,0.1-1.2,0.2s-0.6,0.4-0.9,0.7s-0.5,0.6-0.6,1.1s-0.3,0.9-0.3,1.4H694.5z"/>
		<path d="M707.5,80.9v-8c0-0.3,0-0.6,0-0.9c0-0.2-0.1-0.4-0.1-0.5c-0.1-0.1-0.1-0.2-0.2-0.3c-0.1-0.1-0.2-0.1-0.3-0.1
			c-0.1,0-0.3,0-0.4,0.1c-0.1,0.1-0.3,0.2-0.4,0.4c-0.1,0.2-0.3,0.5-0.5,0.8c-0.2,0.3-0.4,0.7-0.6,1.2v7.1h-1.8v-7.8
			c0-0.4,0-0.7,0-1c0-0.3-0.1-0.4-0.1-0.6c-0.1-0.1-0.1-0.2-0.2-0.3c-0.1-0.1-0.2-0.1-0.3-0.1c-0.1,0-0.3,0-0.4,0.1
			c-0.1,0.1-0.2,0.2-0.4,0.4c-0.1,0.2-0.3,0.5-0.5,0.8c-0.2,0.3-0.4,0.8-0.6,1.3v7.1h-1.8V69.7h1.5l0.1,2.1c0.2-0.4,0.4-0.8,0.6-1.1
			s0.4-0.5,0.6-0.7c0.2-0.2,0.4-0.3,0.6-0.4s0.5-0.1,0.7-0.1c0.6,0,1.1,0.2,1.4,0.6c0.3,0.4,0.5,1,0.5,1.8c0.2-0.4,0.3-0.7,0.5-1
			s0.4-0.5,0.5-0.8s0.4-0.4,0.6-0.5c0.2-0.1,0.5-0.2,0.8-0.2c1.4,0,2.1,1.1,2.1,3.2v8.1H707.5z"/>
		<path d="M721.4,74.7c0,0.3,0,0.5,0,0.7c0,0.2,0,0.4,0,0.5h-7.8c0,1.1,0.3,2,1,2.6c0.6,0.6,1.5,0.9,2.7,0.9c0.3,0,0.6,0,1,0
			c0.3,0,0.6-0.1,0.9-0.1c0.3,0,0.6-0.1,0.9-0.1c0.3-0.1,0.5-0.1,0.8-0.2v1.6c-0.5,0.1-1.1,0.3-1.8,0.4c-0.7,0.1-1.3,0.1-2.1,0.1
			c-1,0-1.8-0.1-2.5-0.4c-0.7-0.3-1.2-0.6-1.7-1.1c-0.4-0.5-0.8-1.1-1-1.8c-0.2-0.7-0.3-1.5-0.3-2.4c0-0.8,0.1-1.5,0.3-2.2
			c0.2-0.7,0.6-1.3,1-1.8c0.4-0.5,1-0.9,1.6-1.3s1.3-0.5,2.1-0.5c0.8,0,1.5,0.1,2.1,0.4c0.6,0.2,1.1,0.6,1.5,1s0.7,1,0.9,1.6
			C721.3,73.2,721.4,73.9,721.4,74.7z M719.4,74.4c0-0.5,0-0.9-0.1-1.4s-0.3-0.8-0.5-1.1s-0.6-0.5-0.9-0.7c-0.4-0.2-0.8-0.2-1.3-0.2
			c-0.4,0-0.8,0.1-1.2,0.2s-0.6,0.4-0.9,0.7s-0.5,0.6-0.6,1.1s-0.3,0.9-0.3,1.4H719.4z"/>
		<path d="M724.5,69.7h1.7l0.1,1.8c0.3-0.4,0.6-0.7,0.9-1c0.3-0.3,0.6-0.5,0.9-0.6c0.3-0.2,0.6-0.3,0.9-0.3c0.3-0.1,0.6-0.1,0.9-0.1
			c1.1,0,2,0.3,2.6,1c0.6,0.7,0.9,1.7,0.9,3v7.2h-1.9v-7.1c0-0.9-0.2-1.5-0.5-1.9c-0.3-0.4-0.8-0.6-1.4-0.6c-0.2,0-0.5,0-0.7,0.1
			c-0.2,0.1-0.5,0.2-0.7,0.4c-0.2,0.2-0.5,0.4-0.8,0.7c-0.3,0.3-0.6,0.7-1,1.1v7.4h-1.9V69.7z"/>
		<path d="M745.9,80.7c-0.4,0.1-0.9,0.2-1.3,0.2c-0.5,0-0.9,0.1-1.4,0.1c-1.4,0-2.4-0.3-3.1-0.9c-0.7-0.6-1-1.6-1-2.9v-5.8h-3.1
			v-1.6h3.1v-3.1l1.9-0.5v3.6h5v1.6h-5V77c0,0.8,0.2,1.4,0.6,1.8s1,0.6,1.9,0.6c0.4,0,0.7,0,1.2-0.1c0.4-0.1,0.9-0.1,1.3-0.3V80.7z"
			/>
		<path d="M756.1,85.5c-3.4-3.1-5.1-6.6-5.1-10.4c0-0.9,0.1-1.8,0.3-2.7s0.5-1.8,0.9-2.7s0.9-1.8,1.6-2.7s1.5-1.8,2.4-2.7l1.1,1.1
			c-2.9,2.8-4.3,6-4.3,9.4c0,1.7,0.4,3.4,1.1,4.9s1.8,3.1,3.2,4.5L756.1,85.5z"/>
	</g>
	<g enable-background="new    ">
		<path fill="#E6845C" d="M769.9,66.6c-0.4,0-0.7,0-1.1,0.1c-0.4,0.1-0.7,0.2-0.9,0.3c-0.3,0.2-0.5,0.4-0.6,0.6
			c-0.2,0.2-0.2,0.5-0.2,0.8s0.1,0.6,0.2,0.7c0.1,0.2,0.2,0.4,0.4,0.5s0.3,0.3,0.4,0.5c0.1,0.2,0.2,0.4,0.2,0.7c0,0.2,0,0.3-0.1,0.5
			c-0.1,0.2-0.1,0.3-0.3,0.5c-0.1,0.1-0.3,0.3-0.5,0.3c-0.2,0.1-0.4,0.1-0.7,0.1c-0.3,0-0.5-0.1-0.8-0.2c-0.2-0.1-0.4-0.3-0.6-0.5
			c-0.2-0.2-0.3-0.5-0.4-0.8c-0.1-0.3-0.2-0.7-0.2-1.2c0-0.6,0.1-1.2,0.3-1.8c0.2-0.6,0.6-1.1,1-1.5c0.4-0.4,1-0.8,1.7-1
			c0.7-0.3,1.4-0.4,2.3-0.4V66.6z"/>
		<path fill="#E6845C" d="M783.1,77.8c0,0.4-0.1,0.7-0.2,1.1c-0.1,0.3-0.3,0.6-0.5,0.8c-0.2,0.2-0.5,0.4-0.8,0.6
			c-0.3,0.2-0.6,0.3-1,0.4c-0.3,0.1-0.7,0.2-1.1,0.2c-0.4,0.1-0.7,0.1-1.1,0.1c-0.8,0-1.4,0-2.1-0.1c-0.6-0.1-1.2-0.2-1.9-0.3v-1.8
			c0.6,0.2,1.3,0.3,1.9,0.4s1.3,0.1,1.9,0.1c0.9,0,1.6-0.1,2-0.4c0.4-0.3,0.7-0.6,0.7-1.1c0-0.2,0-0.4-0.1-0.5
			c-0.1-0.2-0.2-0.3-0.4-0.5c-0.2-0.1-0.5-0.3-0.9-0.4c-0.4-0.2-0.9-0.3-1.6-0.5c-0.5-0.1-1-0.3-1.4-0.5c-0.4-0.2-0.8-0.4-1.1-0.7
			c-0.3-0.3-0.6-0.6-0.7-0.9c-0.2-0.3-0.3-0.8-0.3-1.2c0-0.3,0.1-0.6,0.2-1c0.1-0.4,0.4-0.7,0.7-1c0.3-0.3,0.8-0.6,1.4-0.8
			s1.3-0.3,2.2-0.3c0.4,0,0.9,0,1.4,0.1c0.5,0,1.1,0.1,1.7,0.2v1.7c-0.6-0.1-1.2-0.3-1.7-0.3s-1-0.1-1.4-0.1c-0.5,0-0.9,0-1.2,0.1
			c-0.3,0.1-0.6,0.2-0.8,0.3s-0.3,0.3-0.4,0.5c-0.1,0.2-0.1,0.4-0.1,0.6c0,0.2,0,0.4,0.1,0.5c0.1,0.2,0.2,0.3,0.4,0.5
			c0.2,0.2,0.5,0.3,0.9,0.5c0.4,0.2,0.9,0.3,1.5,0.5c0.7,0.2,1.2,0.4,1.7,0.6c0.5,0.2,0.8,0.4,1.1,0.7s0.5,0.5,0.6,0.9
			S783.1,77.4,783.1,77.8z"/>
		<path fill="#E6845C" d="M795.7,80.9H794l-0.1-1.8c-0.3,0.4-0.6,0.7-0.9,1c-0.3,0.3-0.6,0.5-0.9,0.6c-0.3,0.2-0.6,0.3-0.9,0.3
			c-0.3,0.1-0.6,0.1-0.9,0.1c-1.1,0-2-0.3-2.6-1c-0.6-0.7-0.9-1.7-0.9-3v-7.3h1.9v7.1c0,1.7,0.6,2.6,1.9,2.6c0.2,0,0.5,0,0.7-0.1
			c0.2-0.1,0.5-0.2,0.7-0.4c0.2-0.2,0.5-0.4,0.8-0.7s0.6-0.7,1-1.1v-7.4h1.9V80.9z"/>
		<path fill="#E6845C" d="M808.7,75.1c0,1-0.1,1.9-0.4,2.6s-0.7,1.3-1.1,1.8c-0.5,0.5-1.1,0.9-1.7,1.1c-0.7,0.2-1.4,0.4-2.2,0.4
			c-0.4,0-0.7,0-1.1-0.1s-0.7-0.1-1.1-0.2v4.6h-1.9V69.7h1.7l0.1,1.9c0.6-0.8,1.1-1.3,1.8-1.6c0.6-0.3,1.3-0.5,2-0.5
			c0.6,0,1.2,0.1,1.7,0.4s0.9,0.6,1.2,1.1c0.3,0.5,0.6,1.1,0.7,1.7C808.6,73.5,808.7,74.3,808.7,75.1z M806.7,75.2
			c0-0.6,0-1.1-0.1-1.6c-0.1-0.5-0.2-0.9-0.4-1.3c-0.2-0.3-0.4-0.6-0.7-0.8c-0.3-0.2-0.6-0.3-1-0.3c-0.2,0-0.5,0-0.7,0.1
			c-0.3,0.1-0.5,0.2-0.8,0.4c-0.3,0.2-0.6,0.4-0.9,0.7s-0.6,0.7-1,1.1V79c0.4,0.1,0.7,0.3,1.1,0.3c0.4,0.1,0.8,0.1,1.2,0.1
			c1,0,1.9-0.4,2.4-1.1S806.7,76.6,806.7,75.2z"/>
		<path fill="#E6845C" d="M821.1,74.7c0,0.3,0,0.5,0,0.7c0,0.2,0,0.4,0,0.5h-7.8c0,1.1,0.3,2,1,2.6c0.6,0.6,1.5,0.9,2.7,0.9
			c0.3,0,0.6,0,1,0c0.3,0,0.6-0.1,0.9-0.1c0.3,0,0.6-0.1,0.9-0.1c0.3-0.1,0.5-0.1,0.8-0.2v1.6c-0.5,0.1-1.1,0.3-1.8,0.4
			c-0.7,0.1-1.3,0.1-2.1,0.1c-1,0-1.8-0.1-2.5-0.4c-0.7-0.3-1.2-0.6-1.7-1.1c-0.4-0.5-0.8-1.1-1-1.8c-0.2-0.7-0.3-1.5-0.3-2.4
			c0-0.8,0.1-1.5,0.3-2.2c0.2-0.7,0.6-1.3,1-1.8c0.4-0.5,1-0.9,1.6-1.3s1.3-0.5,2.1-0.5c0.8,0,1.5,0.1,2.1,0.4
			c0.6,0.2,1.1,0.6,1.5,1s0.7,1,0.9,1.6C820.9,73.2,821.1,73.9,821.1,74.7z M819.1,74.4c0-0.5,0-0.9-0.1-1.4s-0.3-0.8-0.5-1.1
			s-0.6-0.5-0.9-0.7c-0.4-0.2-0.8-0.2-1.3-0.2c-0.4,0-0.8,0.1-1.2,0.2s-0.6,0.4-0.9,0.7s-0.5,0.6-0.6,1.1s-0.3,0.9-0.3,1.4H819.1z"
			/>
		<path fill="#E6845C" d="M824.6,69.7h1.8l0.1,2c0.7-0.8,1.3-1.4,1.9-1.7c0.6-0.4,1.3-0.5,1.9-0.5c1.2,0,2,0.4,2.6,1.1
			s0.9,1.9,0.8,3.3h-1.9c0-1-0.1-1.7-0.4-2.1c-0.3-0.4-0.8-0.7-1.3-0.7c-0.3,0-0.5,0-0.8,0.1c-0.3,0.1-0.5,0.2-0.8,0.4
			c-0.3,0.2-0.6,0.5-0.9,0.8c-0.3,0.3-0.6,0.7-1,1.2v7.1h-1.9V69.7z"/>
		<path fill="#E6845C" d="M844.3,75.7h-6.6v-1.8h6.6V75.7z"/>
		<path fill="#E6845C" d="M858.5,75.1c0,0.9-0.1,1.7-0.4,2.5c-0.3,0.7-0.6,1.3-1.1,1.8c-0.5,0.5-1,0.9-1.7,1.2
			c-0.7,0.3-1.4,0.4-2.3,0.4c-0.7,0-1.3-0.1-2-0.2c-0.7-0.1-1.4-0.3-2-0.6v-15h1.9v4.3l-0.1,2.1c0.6-0.7,1.1-1.3,1.8-1.6
			c0.6-0.3,1.3-0.5,2-0.5c0.6,0,1.2,0.1,1.7,0.4s0.9,0.6,1.2,1.1c0.3,0.5,0.6,1.1,0.7,1.7C858.4,73.5,858.5,74.3,858.5,75.1z
			 M856.6,75.2c0-0.6,0-1.1-0.1-1.6c-0.1-0.5-0.2-0.9-0.4-1.3c-0.2-0.3-0.4-0.6-0.7-0.8c-0.3-0.2-0.6-0.3-1-0.3
			c-0.2,0-0.5,0-0.7,0.1c-0.3,0.1-0.5,0.2-0.8,0.4c-0.3,0.2-0.6,0.4-0.9,0.7s-0.6,0.7-1,1.1V79c0.4,0.1,0.8,0.3,1.2,0.3
			c0.4,0.1,0.8,0.1,1.1,0.1c0.4,0,0.9-0.1,1.3-0.2c0.4-0.1,0.8-0.4,1.1-0.7s0.5-0.8,0.7-1.3S856.6,76,856.6,75.2z"/>
		<path fill="#E6845C" d="M870.4,80.9h-1.7l-0.1-1.8c-0.3,0.4-0.6,0.7-0.9,1c-0.3,0.3-0.6,0.5-0.9,0.6c-0.3,0.2-0.6,0.3-0.9,0.3
			c-0.3,0.1-0.6,0.1-0.9,0.1c-1.1,0-2-0.3-2.6-1c-0.6-0.7-0.9-1.7-0.9-3v-7.3h1.9v7.1c0,1.7,0.6,2.6,1.9,2.6c0.2,0,0.5,0,0.7-0.1
			c0.2-0.1,0.5-0.2,0.7-0.4c0.2-0.2,0.5-0.4,0.8-0.7s0.6-0.7,1-1.1v-7.4h1.9V80.9z"/>
		<path fill="#E6845C" d="M882.9,80.7c-0.4,0.1-0.9,0.2-1.3,0.2s-0.9,0.1-1.4,0.1c-1.4,0-2.4-0.3-3.1-0.9s-1-1.6-1-2.9v-5.8h-3.1
			v-1.6h3.1v-3.1l1.9-0.5v3.6h5v1.6h-5V77c0,0.8,0.2,1.4,0.6,1.8s1,0.6,1.9,0.6c0.4,0,0.7,0,1.2-0.1c0.4-0.1,0.9-0.1,1.3-0.3V80.7z"
			/>
		<path fill="#E6845C" d="M895.4,80.7c-0.4,0.1-0.9,0.2-1.3,0.2s-0.9,0.1-1.4,0.1c-1.4,0-2.4-0.3-3.1-0.9s-1-1.6-1-2.9v-5.8h-3.1
			v-1.6h3.1v-3.1l1.9-0.5v3.6h5v1.6h-5V77c0,0.8,0.2,1.4,0.6,1.8s1,0.6,1.9,0.6c0.4,0,0.7,0,1.2-0.1c0.4-0.1,0.9-0.1,1.3-0.3V80.7z"
			/>
		<path fill="#E6845C" d="M908.5,75.2c0,0.9-0.1,1.7-0.4,2.4c-0.2,0.7-0.6,1.3-1.1,1.8c-0.5,0.5-1,0.9-1.7,1.2
			c-0.7,0.3-1.4,0.4-2.2,0.4c-0.8,0-1.5-0.1-2.1-0.4c-0.6-0.2-1.2-0.6-1.6-1.1s-0.8-1.1-1-1.8s-0.3-1.5-0.3-2.4
			c0-0.9,0.1-1.7,0.4-2.4c0.2-0.7,0.6-1.3,1.1-1.8c0.5-0.5,1-0.9,1.7-1.2c0.7-0.3,1.4-0.4,2.2-0.4c0.8,0,1.5,0.1,2.1,0.4
			c0.6,0.2,1.2,0.6,1.6,1.1c0.4,0.5,0.8,1.1,1,1.8C908.4,73.5,908.5,74.3,908.5,75.2z M906.6,75.3c0-0.7-0.1-1.3-0.2-1.8
			c-0.2-0.5-0.4-0.9-0.6-1.3c-0.3-0.3-0.6-0.6-1-0.8c-0.4-0.2-0.8-0.3-1.3-0.3c-0.6,0-1.1,0.1-1.5,0.3s-0.7,0.5-1,0.9
			s-0.5,0.8-0.6,1.3c-0.1,0.5-0.2,1-0.2,1.6c0,0.7,0.1,1.3,0.2,1.8c0.2,0.5,0.4,0.9,0.6,1.3s0.6,0.6,1,0.8c0.4,0.2,0.8,0.3,1.3,0.3
			c0.6,0,1.1-0.1,1.5-0.3c0.4-0.2,0.7-0.5,1-0.9s0.5-0.8,0.6-1.3C906.5,76.4,906.6,75.9,906.6,75.3z"/>
		<path fill="#E6845C" d="M911.3,69.7h1.7l0.1,1.8c0.3-0.4,0.6-0.7,0.9-1c0.3-0.3,0.6-0.5,0.9-0.6c0.3-0.2,0.6-0.3,0.9-0.3
			c0.3-0.1,0.6-0.1,0.9-0.1c1.1,0,2,0.3,2.6,1s0.9,1.7,0.9,3v7.2h-1.9v-7.1c0-0.9-0.2-1.5-0.5-1.9s-0.8-0.6-1.4-0.6
			c-0.2,0-0.5,0-0.7,0.1c-0.2,0.1-0.5,0.2-0.7,0.4c-0.2,0.2-0.5,0.4-0.8,0.7s-0.6,0.7-1,1.1v7.4h-1.9V69.7z"/>
		<path fill="#E6845C" d="M924.6,70.9c0.4,0,0.7,0,1.1-0.1c0.4-0.1,0.7-0.2,0.9-0.4c0.3-0.2,0.5-0.4,0.6-0.6
			c0.2-0.2,0.2-0.5,0.2-0.8s-0.1-0.6-0.2-0.8s-0.2-0.4-0.4-0.5c-0.1-0.2-0.3-0.3-0.4-0.5c-0.1-0.2-0.2-0.4-0.2-0.7
			c0-0.2,0-0.3,0.1-0.5c0.1-0.2,0.1-0.3,0.3-0.5c0.1-0.1,0.3-0.3,0.5-0.3c0.2-0.1,0.4-0.1,0.7-0.1c0.3,0,0.5,0.1,0.7,0.2
			c0.2,0.1,0.5,0.3,0.6,0.5s0.3,0.5,0.4,0.8c0.1,0.3,0.2,0.7,0.2,1.2c0,0.6-0.1,1.2-0.3,1.8c-0.2,0.6-0.6,1.1-1,1.5
			c-0.4,0.4-1,0.8-1.7,1c-0.7,0.3-1.4,0.4-2.3,0.4V70.9z"/>
	</g>
	<g enable-background="new    ">
		<path d="M938.5,64.4c3.4,3.1,5.1,6.7,5.1,10.5c0,0.8-0.1,1.6-0.2,2.5s-0.4,1.7-0.8,2.6c-0.4,0.9-0.9,1.8-1.6,2.7
			c-0.7,0.9-1.5,1.8-2.5,2.8l-1.1-1.1c1.4-1.4,2.5-2.9,3.2-4.5s1.1-3.2,1.1-4.9c0-3.5-1.4-6.7-4.3-9.5L938.5,64.4z"/>
		<path d="M949.6,83.1c0.4,0,0.7,0,1.1-0.1c0.4-0.1,0.7-0.2,0.9-0.4c0.3-0.2,0.5-0.4,0.6-0.6s0.2-0.5,0.2-0.8c0-0.3-0.1-0.6-0.2-0.8
			c-0.1-0.2-0.2-0.4-0.4-0.5s-0.3-0.3-0.4-0.5c-0.1-0.2-0.2-0.4-0.2-0.7c0-0.2,0-0.3,0.1-0.5c0.1-0.2,0.1-0.3,0.3-0.5
			c0.1-0.1,0.3-0.3,0.5-0.3c0.2-0.1,0.4-0.1,0.7-0.1c0.3,0,0.5,0.1,0.7,0.2c0.2,0.1,0.5,0.3,0.6,0.5c0.2,0.2,0.3,0.5,0.4,0.8
			c0.1,0.3,0.2,0.7,0.2,1.2c0,0.6-0.1,1.2-0.3,1.8c-0.2,0.6-0.6,1.1-1,1.5c-0.4,0.4-1,0.8-1.7,1c-0.7,0.3-1.4,0.4-2.3,0.4V83.1z
			 M953.1,69.5c0.2,0,0.4,0,0.7,0.1c0.2,0.1,0.4,0.2,0.5,0.4c0.2,0.2,0.3,0.3,0.4,0.5c0.1,0.2,0.1,0.4,0.1,0.7c0,0.2,0,0.5-0.1,0.7
			c-0.1,0.2-0.2,0.4-0.4,0.5c-0.2,0.2-0.3,0.3-0.5,0.4c-0.2,0.1-0.4,0.1-0.7,0.1c-0.2,0-0.5,0-0.7-0.1c-0.2-0.1-0.4-0.2-0.5-0.4
			c-0.2-0.2-0.3-0.3-0.4-0.5c-0.1-0.2-0.1-0.4-0.1-0.7c0-0.2,0-0.4,0.1-0.7c0.1-0.2,0.2-0.4,0.4-0.5s0.3-0.3,0.5-0.4
			C952.7,69.6,952.9,69.5,953.1,69.5z"/>
	</g>
</g>
</svg>
